<?xml version="1.0" encoding="utf-8"?>
<!-- Generator: Adobe Illustrator 22.0.1, SVG Export Plug-In . SVG Version: 6.00 Build 0)  -->
<svg version="1.1" id="Layer_1" xmlns="http://www.w3.org/2000/svg" xmlns:xlink="http://www.w3.org/1999/xlink" x="0px" y="0px"
	 viewBox="0 0 400 2000" style="enable-background:new 0 0 400 2000;" xml:space="preserve">
<g>
	<g>
		<path d="M166.1-7.6c-41.8,62.5,8,136.1,40.7,189.8c20.2,33.2,40.7,70.7,37.8,110.9c-2.9,41.2-30.6,73.3-50.8,107.4
			c-17.7,29.8-32.2,67.4-17.3,101.4c11.7,26.8,36.4,44.7,50.8,69.7c8.8,15.3,11.2,32.2,4.6,48.8c-5.8,14.5-16.3,26.6-25.6,38.9
			c-9.3,12.3-18,25.3-21,40.7c-3.2,16.5,0.2,33.3,5.7,48.9c12.3,35,31.3,66,35.4,103.6c3.6,33-1,66.2-8.6,98.2
			c-15.6,65.4-43.8,127.4-55.9,193.8c-5.5,30.4-7.3,61.6-1.9,92.1c6.2,34.7,22.6,66,39.4,96.5c17.5,31.9,36.2,64.2,42.9,100.4
			c6.5,35.2-0.2,70.7-11.4,104.2c-20.8,62.4-58.6,122.7-58.7,190.3c-0.1,75.1,65.7,137.9,50,214.3c-3.5,16.9-11.5,32.1-24.5,43.6
			c-1.4,1.3,0.7,3.4,2.1,2.1c22.9-20.2,29.5-51,27.1-80.5c-3-36.9-20.6-69.6-34.3-103.3c-14.8-36.4-21.3-72.5-13.9-111.4
			c6.4-33.6,19.8-65.4,32.8-96.8c13.1-31.5,26.5-63.3,32.8-96.9c6.2-32.6,3.9-65-7.5-96.2c-11.9-32.9-30.9-62.7-47-93.6
			c-17.2-33.2-29.2-67.5-30.1-105.1c-1.7-67.8,24.6-132.7,44.8-196.2c19.1-59.8,36.4-124.8,18.7-187.2
			c-10.4-36.7-38-71.2-36.1-110.7c1.7-35.3,33.1-55.7,46.5-85.9c11.6-26.1,1.1-50.1-15.6-71c-21.8-27.3-47.7-51.1-44.4-89.3
			c3.7-42,32.9-74.9,53.1-109.9c18-31.2,26.1-64.3,16.9-99.8c-19-73.8-88.7-128-90-207.6c-0.3-18.9,4.5-36.9,15.1-52.6
			C169.8-7.7,167.2-9.2,166.1-7.6L166.1-7.6z"/>
	</g>
</g>
</svg>
