<?xml version="1.0" encoding="utf-8"?>
<!-- Generator: Adobe Illustrator 22.0.1, SVG Export Plug-In . SVG Version: 6.00 Build 0)  -->
<svg version="1.1" id="Layer_1" xmlns="http://www.w3.org/2000/svg" xmlns:xlink="http://www.w3.org/1999/xlink" x="0px" y="0px"
	 viewBox="0 0 462.6 2000" style="enable-background:new 0 0 462.6 2000;" xml:space="preserve">
<g>
	<g>
		<path d="M142.3,161.3c4.5-19.8-14.5-36.7-33.6-29.4c0.4,0.7,0.9,1.5,1.3,2.2c18.7-14.7,13.3-45.1-9.7-51.7
			c-23.1-6.6-43.7,16.3-35.7,38.7c0.7-0.4,1.5-0.9,2.2-1.3c-10.3-10.7-28.3-11.9-37.5,1c-7.9,11.1-2.3,28.3,11.4,31.4
			c-0.3-0.7-0.5-1.3-0.8-2c-0.1,0.2-6.5,0.3-7.9,0.7c-3.3,0.9-6.5,2.5-9.2,4.7c-5,4.1-8,10.4-8.2,16.9c-0.1,5.2,1.8,10.6,5.9,13.9
			c5.9,4.7,14.4,3.5,21.4,3.4c44-0.5,88-0.1,132-0.1c25.1,0,50.3,0,75.4,0c0.6,0,1.2-0.4,1.3-1c4.2-19.9-18.4-33.7-34.3-21.1
			c0.7,0.2,1.5,0.4,2.2,0.6c-5.9-14.9-19.6-26.3-35.6-28.5c-16.9-2.4-34,5.9-43.5,19.9c-1,1.4,1.3,2.7,2.3,1.3
			c8.7-12.8,24.2-20.5,39.7-18.7c15.4,1.7,28.8,12.5,34.5,26.7c0.4,1,1.4,1.2,2.2,0.6c8.9-7,22.1-5.1,27.8,4.9
			c1.5,2.5,4.7,10.4,1.4,12.7c-1.3,0.9-6.3,0-7.9,0c-3,0-6,0-8.9,0c-22.2,0-44.3,0-66.5,0c-43.4,0-87,0.7-130.4,0.1
			c-5.2-0.1-10.1-0.5-13.5-5c-2.8-3.6-3.4-8.5-2.6-13c2.1-10.7,12.3-17.4,22.9-16.2c0.4,0.1,1-0.3,1.1-0.7c0.1-0.3,0.3-0.6,0.4-0.9
			c0.4-0.7,0.1-1.7-0.8-2c-12.3-2.8-16.8-18.2-9.4-27.9c8.4-11,24-9.4,32.9-0.1c0.9,0.9,2.7,0,2.2-1.3
			c-7.3-20.5,11.2-41.6,32.4-35.5c21.3,6.1,25.6,33.9,8.6,47.3c-1,0.8,0.1,2.7,1.3,2.2c17.1-6.5,34.5,8.1,30.3,26.1
			C139.3,162.2,141.9,162.9,142.3,161.3L142.3,161.3z"/>
	</g>
</g>
<g>
	<g>
		<path d="M345,379.2c6.2-17.6-2-40.9-23.4-41c-7.9,0-15.1,4.2-18.1,11.6c-3,7.2-1.8,15.8,4.2,21.1c0.5-0.5,1-1,1.5-1.5
			c-13.1-10.8-32.1-15-46.5-4.1c-12,9.1-14.5,27.4-3.2,38.1c0.5-0.5,1-1,1.5-1.5c-10.6-9.7-29.4-10.2-38.7,1.7
			c-5.5,7.1-10.4,21.4-3.4,29.1c4.8,5.3,13.5,3.7,19.8,3.6c12.6-0.2,25.3-1,37.9-1.7c25.1-1.3,50.2-1.7,75.3-1.9
			c28.6-0.3,57.3-0.2,85.9,0.2c0.4,0,0.9-0.3,1-0.8c2.8-14.6-3.5-30.4-16.4-38.3c-13.3-8.1-30.9-6-42.6,4c0.6,0.2,1.2,0.5,1.8,0.7
			c1.1-9.6-3.7-19.4-12.4-23.9c-8.8-4.6-19.6-2.5-26.9,4c-1,0.9,0.5,2.4,1.5,1.5c14.9-13.4,37.9-1.3,35.7,18.5
			c-0.1,1,1.2,1.3,1.8,0.7c19.2-16.4,49.1-7,55.2,17.5c0.7,2.6,1,5.4,1,8.1c0,1.1,0.2,4.6-0.4,5.3c-0.9,1.1-3,0.6-4.2,0.5
			c-7-0.1-14-0.2-21-0.2c-14-0.1-28-0.1-41.9,0c-27.8,0.2-55.7,0.4-83.5,1.6c-13.9,0.6-27.8,1.6-41.8,2c-8.3,0.3-23.7,3.7-26.4-7.4
			c-1.9-7.6,1.6-17.5,6.8-23.1c9-9.6,25.2-8.8,34.5-0.3c1,0.9,2.5-0.5,1.5-1.5c-11.3-10.7-7.4-28.7,5.2-36.5
			c13.5-8.4,30-4.2,41.6,5.4c1,0.8,2.5-0.6,1.5-1.5c-5.3-4.6-6.4-12-3.9-18.5c3.1-8,11.3-11.6,19.5-10.4c18.2,2.7,23.5,22.7,18.1,38
			C342.5,380,344.5,380.5,345,379.2L345,379.2z"/>
	</g>
</g>
<g>
	<g>
		<path d="M226.5,1437c-7.4-20.7,0.4-48.1,25.1-51c10.3-1.2,20.5,3.3,24.8,13.1c3.8,8.7,2.6,19.3-4.8,25.7c-1.4,1.2,0.6,3.1,2,2
			c15.6-12.9,38.1-18.5,56.1-7c16.4,10.5,21.6,34.4,6.5,48.6c-1.3,1.2,0.7,3.2,2,2c15.8-14.7,42.5-10.7,51.8,9
			c3.2,6.7,5.3,15.2,3.4,22.5c-2.7,10.3-12.1,9.9-20.9,9.8c-28.6-0.2-57.1-2.7-85.7-3.5c-29.2-0.8-58.4-1.3-87.5-1.5
			c-33.2-0.2-66.3-0.1-99.5,0.4c0.5,0.3,0.9,0.7,1.4,1c-3.7-18.4,4.7-38.4,20.8-48.2c16.6-10,38.9-7.6,53.4,5c0.8,0.7,2.6,0.3,2.4-1
			c-1.4-11.6,4.1-23.6,14.6-29.2c10.7-5.8,24.3-3.6,33.2,4.5c1.3,1.2,3.3-0.8,2-2c-9.4-8.7-23.6-11.3-35.3-5.6
			c-12,5.8-18.8,19.3-17.2,32.3c0.8-0.3,1.6-0.7,2.4-1c-15.5-13.4-39.1-16.1-56.8-5.4c-17.3,10.5-26,31.8-22.1,51.4
			c0.1,0.6,0.8,1,1.4,1c66.2-1,132.6-1.2,198.7,1.5c16.3,0.7,32.5,1.7,48.8,2.4c8.4,0.4,16.9,0.6,25.3,0.7c4.9,0,10.3,0.6,15-1.3
			c14.2-5.9,9.6-26.6,4.1-37c-10.7-20.2-39-23-55.3-7.8c0.7,0.7,1.3,1.3,2,2c15.4-14.5,11.6-39.3-4.7-51.3
			c-19.2-14.3-44.5-8.6-61.9,5.8c0.7,0.7,1.3,1.3,2,2c7.9-6.7,9.5-18,6-27.5c-3.9-10.4-13.8-16.4-24.7-16.3
			c-11.7,0.1-22.7,6.6-28.6,16.7c-6.7,11.5-6.8,25.8-2.4,38.1C224.4,1439.4,227.1,1438.7,226.5,1437L226.5,1437z"/>
	</g>
</g>
<g>
	<g>
		<path d="M215.1,624.3c6.5-14.3-18.8-22.4-22.8-10.1c-0.5,1.6-0.4,4.2,1,5.4c1.9,1.6,0.7,0.1-0.3-0.7c-1.9-1.4-5.2-1.9-7.6-2.2
			c-6.3-1-16.2,0.2-19.6,6.7c-1.1,2.1-1.1,4.6,0,6.7c0.3,0.6,1.3,2.5,2.1,2.6c2.8,0.7-2.6-2.7-0.7-1.3c-0.8-0.6-2.4-0.8-3.4-1
			c-5.8-1.2-13.2-0.2-16.8,5c-2.2,3.2-2.9,8,1.2,9.9c3.2,1.5,7.8,0.6,11.2,0.6c6.3-0.1,12.7-0.4,19-0.6c29-1.1,58.1-1,87.2-0.7
			c0.2,0,0.4-0.1,0.5-0.3c3.2-13.4-14.7-18-24.6-16c-1.6,0.3-3.2,1.2-4.8,1.5c-2.2,0.5-0.7,0.9-1.7-0.7c-1.2-1.8-1.5-3.5-3.4-5
			c-5-3.8-12.4-3.4-17.6-0.3c-0.5,0.3,0,1.1,0.5,0.8c6-3.5,20.6-3.3,19.6,6.9c0,0.4,0.4,0.6,0.7,0.4c6.5-3.7,14.8-4.3,21.7-1.5
			c3.9,1.6,7.8,4.7,8.8,9.1c1.2,5.5-6.3,4-9.7,4c-16.3-0.1-32.6-0.1-48.9,0.1c-15.8,0.2-31.5,0.9-47.3,1.2
			c-3.3,0.1-8.7,1.1-11.5-0.9c-2.9-2.1-1.7-5.9-0.1-8.2c4.5-6.5,15.1-6.1,21.2-2.4c0.5,0.3,1-0.5,0.5-0.8c-8.8-6.4,0.7-13.8,7.7-15
			c6.2-1.1,12.6,0.5,18,3.5c0.5,0.3,1-0.5,0.5-0.8c-5-3.4-2.1-8.6,2.4-10.2c2.2-0.8,4.6-0.7,6.9-0.4c7.1,1,12.6,6.7,9.2,14.1
			C214.1,624.4,214.9,624.8,215.1,624.3L215.1,624.3z"/>
	</g>
</g>
<g>
	<g>
		<path d="M405.1,1177.3c6.5-14.3-18.8-22.4-22.8-10.1c-0.5,1.6-0.4,4.2,1,5.4c1.9,1.6,0.7,0.1-0.3-0.7c-1.9-1.4-5.2-1.9-7.6-2.2
			c-6.3-1-16.2,0.2-19.6,6.7c-1.1,2.1-1.1,4.6,0,6.7c0.3,0.6,1.3,2.5,2.1,2.6c2.8,0.7-2.6-2.7-0.7-1.3c-0.8-0.6-2.4-0.8-3.4-1
			c-5.8-1.2-13.2-0.2-16.8,5c-2.2,3.2-2.9,8,1.2,9.9c3.2,1.5,7.8,0.6,11.2,0.6c6.3-0.1,12.7-0.4,19-0.6c29-1.1,58.1-1,87.2-0.7
			c0.2,0,0.4-0.1,0.5-0.3c3.2-13.4-14.7-18-24.6-16c-1.6,0.3-3.2,1.1-4.8,1.5c-2.2,0.5-0.7,0.9-1.7-0.7c-1.2-1.8-1.5-3.5-3.4-5
			c-5-3.8-12.4-3.4-17.6-0.3c-0.5,0.3,0,1.1,0.5,0.8c6-3.5,20.6-3.3,19.6,6.9c0,0.4,0.4,0.6,0.7,0.4c6.5-3.7,14.8-4.3,21.7-1.5
			c3.9,1.6,7.8,4.7,8.8,9.1c1.2,5.5-6.3,4-9.7,4c-16.3-0.1-32.6-0.1-48.9,0.1c-15.8,0.2-31.5,0.9-47.3,1.2
			c-3.3,0.1-8.7,1.1-11.5-0.9c-2.9-2.1-1.7-5.9-0.1-8.2c4.5-6.5,15.1-6.1,21.2-2.4c0.5,0.3,1-0.5,0.5-0.8c-8.8-6.4,0.7-13.8,7.7-15
			c6.2-1.1,12.6,0.5,18,3.5c0.5,0.3,1-0.5,0.5-0.8c-5-3.4-2.1-8.6,2.4-10.2c2.2-0.8,4.6-0.7,6.9-0.4c7.1,1,12.6,6.7,9.2,14.1
			C404.1,1177.4,404.9,1177.8,405.1,1177.3L405.1,1177.3z"/>
	</g>
</g>
<g>
	<g>
		<path d="M100.8,289c-6.4-0.6-11.5-7.2-8.9-13.5c2.2-5.4,8.6-7.5,13.8-5.3c0.1,0,0.3,0,0.3-0.2c-0.9-7.7,1.9-15.9,9.5-19.1
			c8-3.3,17.1,1.7,17,10.8c0,0.2,0.2,0.2,0.3,0.1c5.4-5.1,13.5,0.4,10.6,7.4c-0.1,0.1,0.1,0.3,0.2,0.2c8.5-1.8,18.6-1.6,25.3,4.8
			c3,2.9,5.1,6.7,5.5,10.9c0.1,1.3,0.4,2.1-0.4,2.6c-0.9,0.5-3.7,0.1-4.7,0.1c-3,0-5.9,0.1-8.9,0.1c-15.8,0.2-31.5,0.5-47.3,0.7
			C109.2,288.8,105,288.9,100.8,289c-0.2,0-0.2,0.4,0,0.4c24.6-0.4,49.2-0.8,73.8-1.2c0.1,0,0.2-0.1,0.2-0.2
			c1-12.5-10.9-19.9-22.2-19.9c-2.4,0-7.2,1.4-8.2-0.5c-0.6-1.2,0.1-3.4-0.7-4.9c-2.3-4.1-5.4-3.1-9.2-2.7c-1.6,0.2-0.6,1.3-1.7-0.3
			c-0.4-0.6-0.4-1.9-0.7-2.6c-0.7-1.9-2-3.6-3.5-4.9c-3.8-3.2-8.9-3.6-13.4-1.7c-5.4,2.3-8.8,7.4-9.7,13.1c-0.2,1.1,0.4,4.1-0.2,4.8
			c-1.1,1.4-0.5,0.5-2.4,0.5c-1.9,0-3.6-0.1-5.4,0.6c-10.6,4.1-7.3,18.7,3.3,19.8C101.1,289.4,101.1,289,100.8,289z"/>
	</g>
</g>
<g>
	<g>
		<path d="M397,1263.5c6.4-1.8,10.7-9.6,7.1-15.8c-3.5-6.2-12.3-6.6-17.2-2c0.6,0.3,1.2,0.7,1.8,1c2.6-16.1-10.3-32.9-27-33.1
			c-16.7-0.2-29.9,16.6-27.6,32.7c0.6-0.3,1.2-0.7,1.8-1c-5.9-6-15.7-7.8-23-3.2c-7.3,4.6-10.1,14.1-7.2,22.1c0.5-0.4,1-0.8,1.5-1.2
			c-14.9-7-33.6,0.8-36.8,17.5c0.7,0.1,1.4,0.2,2.1,0.3c-1.6-15.3-17.9-26.2-32.8-21.7c-14.5,4.5-21.6,22.4-15.4,35.9
			c0.2,0.3,0.6,0.5,0.9,0.5c48.8,0,97.6,0,146.5,0c8.1,0,16.1,0,24.1,0.4c5.9,0.3,11.9,0.6,17.8,0c9.8-1,19.1-5.3,19.6-16.3
			c0.3-7.6-3.4-15.7-11.2-18.1c-7.2-2.3-14.9,2.2-16.7,9.4c0.7,0,1.4,0,2,0c-1.5-5.7-6.6-8.9-12.4-8c-1.3,0.2-0.8,2.2,0.6,2
			c4.7-0.7,8.7,2.1,9.8,6.6c0.3,1,1.8,1,2,0c1.8-7.2,10.1-10.6,16.5-6.9c5.5,3.1,7.7,9.6,7.3,15.6c-0.6,7.6-6.2,11.5-13.1,13
			c-6.6,1.5-13.5,1.1-20.2,0.8c-8.1-0.4-16-0.5-24.1-0.5c-27,0-54.1,0-81.1,0c-13.2,0-26.4,0-39.6,0c-6.6,0-13.2,0-19.8,0
			c-3,0-6.4,0.9-8.1-2.1c-1.2-2.1-1.1-5.3-1-7.7c0.5-11.7,9.5-22.9,21.7-23.4c12-0.5,23.4,8.5,24.7,20.6c0.1,1.1,1.8,1.5,2.1,0.3
			c2.9-15.3,19.9-22.8,33.7-16.3c0.7,0.4,1.9-0.2,1.5-1.2c-2.5-7-0.3-15.6,6.3-19.7c6.6-4.1,15.2-2.5,20.5,2.8
			c0.8,0.8,1.9-0.1,1.8-1c-2.1-14.7,10.3-30.3,25.6-30c15.3,0.3,27.4,15.6,25,30.5c-0.2,1,0.9,1.8,1.8,1c3.9-3.6,11.1-3.4,13.9,1.6
			c2.8,5-0.8,11.3-5.9,12.7C395.1,1261.9,395.6,1263.9,397,1263.5L397,1263.5z"/>
	</g>
</g>
<g>
	<g>
		<path d="M95.1,1923.3c6.5-14.3-18.8-22.4-22.8-10.1c-0.5,1.6-0.4,4.2,1,5.4c1.9,1.6,0.7,0.1-0.3-0.7c-1.9-1.4-5.2-1.9-7.6-2.2
			c-6.3-1-16.2,0.2-19.6,6.7c-1.1,2.1-1.1,4.6,0,6.7c0.3,0.6,1.3,2.5,2.1,2.6c2.8,0.7-2.6-2.7-0.7-1.3c-0.8-0.6-2.4-0.8-3.4-1
			c-5.8-1.2-13.2-0.2-16.8,5c-2.2,3.2-2.9,8,1.2,9.9c3.2,1.5,7.8,0.6,11.2,0.6c6.3-0.1,12.7-0.4,19-0.6c29-1.1,58.1-1,87.2-0.7
			c0.2,0,0.4-0.1,0.5-0.3c3.2-13.4-14.7-18-24.6-16c-1.6,0.3-3.2,1.1-4.8,1.5c-2.2,0.5-0.7,0.9-1.7-0.7c-1.2-1.8-1.5-3.5-3.4-5
			c-5-3.8-12.4-3.4-17.6-0.3c-0.5,0.3,0,1.1,0.5,0.8c6-3.5,20.6-3.3,19.6,6.9c0,0.4,0.4,0.6,0.7,0.4c6.5-3.7,14.8-4.3,21.7-1.5
			c3.9,1.6,7.8,4.7,8.8,9.1c1.2,5.5-6.3,4-9.7,4c-16.3-0.1-32.6-0.1-48.9,0.1c-15.8,0.2-31.5,0.9-47.3,1.2
			c-3.3,0.1-8.7,1.1-11.5-0.9c-2.9-2.1-1.7-5.9-0.1-8.2c4.5-6.5,15.1-6.1,21.2-2.4c0.5,0.3,1-0.5,0.5-0.8c-8.8-6.4,0.7-13.8,7.7-15
			c6.2-1.1,12.6,0.5,18,3.5c0.5,0.3,1-0.5,0.5-0.8c-5-3.4-2.1-8.6,2.4-10.2c2.2-0.8,4.6-0.7,6.9-0.4c7.1,1,12.6,6.7,9.2,14.1
			C94.1,1923.4,94.9,1923.8,95.1,1923.3L95.1,1923.3z"/>
	</g>
</g>
<g>
	<g>
		<path d="M130.4,1841.5c-5.1-1.4-8.7-7.7-5.9-12.7c2.8-5,10-5.2,13.9-1.6c0.8,0.8,1.9,0,1.8-1c-2.4-14.6,9.8-30.5,25-30.5
			c15.2,0,27.7,15.1,25.6,30c-0.1,1,0.9,1.8,1.8,1c5.3-5.3,13.9-7,20.5-2.8c6.6,4.1,8.8,12.6,6.3,19.7c-0.3,0.9,0.8,1.5,1.5,1.2
			c13.8-6.5,30.8,1,33.7,16.3c0.2,1.2,2,0.8,2.1-0.3c1.1-10.8,10.3-19.1,21-20.4c11-1.3,20.5,5.8,24,16.1c1.3,3.9,2.3,9.6,0.7,13.6
			c-1.4,3.4-3.1,3.3-6.5,3.3c-4,0-7.9,0-11.9,0c-13.2,0-26.4,0-39.6,0c-27,0-54.1,0-81.1,0c-9.7,0-19.5-0.3-29.3,0.3
			c-6.5,0.4-13.1,0.8-19.6,0.3c-7.3-0.7-15.8-2.9-17.9-10.8c-1.5-5.4-0.2-12,3.7-16.1c6.1-6.4,17.3-4.7,19.6,4.4c0.3,1,1.8,1,2,0
			c1.1-4.5,5.1-7.3,9.8-6.6c1.3,0.2,1.9-1.8,0.6-2c-5.8-0.9-10.9,2.3-12.4,8c0.7,0,1.4,0,2,0c-1.6-6.6-8.3-11-15.1-9.8
			c-6.7,1.2-11.5,7.3-12.6,13.8c-1.7,11.1,4.7,18.4,15.3,20.5c11.8,2.3,24.1,0.1,36.1,0.1c24.4,0,48.8,0,73.2,0
			c27.7,0,55.4,0,83.1,0c0.3,0,0.8-0.2,0.9-0.5c6.3-13.5-0.8-31.4-15.4-35.9c-14.8-4.6-31.2,6.4-32.8,21.7c0.7-0.1,1.4-0.2,2.1-0.3
			c-3.2-16.7-21.9-24.5-36.8-17.5c0.5,0.4,1,0.8,1.5,1.2c2.8-8,0.1-17.5-7.2-22.1c-7.4-4.6-17.1-2.8-23,3.2c0.6,0.3,1.2,0.7,1.8,1
			c2.3-16.1-10.9-32.8-27.6-32.7c-16.7,0.1-29.6,17.1-27,33.1c0.6-0.3,1.2-0.7,1.8-1c-4.9-4.5-13.7-4.2-17.2,2
			c-3.5,6.2,0.7,14,7.1,15.8C131.2,1843.9,131.7,1841.9,130.4,1841.5L130.4,1841.5z"/>
	</g>
</g>
<g>
	<g>
		<path d="M84,1362.3c-7-1.5-13.4-10.4-5.7-15.8c4.8-3.3,12-3,16.6,0.5c0.3,0.2,0.6-0.1,0.6-0.4c-3.7-18,16.1-31.1,32-31.2
			c15.9-0.1,36,12.7,32.7,30.7c-0.1,0.4,0.3,0.6,0.6,0.4c6.4-5.3,15.7-6.7,23.5-4.2c9,2.9,15.5,12.2,11.3,21.5
			c-0.1,0.3,0.1,0.7,0.4,0.6c15-5.8,39.1-1.6,43.3,16.6c0.1,0.4,0.7,0.3,0.7-0.1c1.7-13.7,17.1-20.8,29.4-21.2
			c12.3-0.3,25.1,6.3,29,18.6c1.4,4.2,2.4,14.7-3.4,15.9c-3.1,0.6-6.8,0-10,0c-4.6,0-9.3,0-13.9,0c-15.9,0-31.9,0-47.8,0
			c-32.5,0-65.1,0-97.6,0c-12.3,0-24.6-0.3-36.8,0.3c-8.4,0.4-16.9,0.9-25.3,0.2c-8.1-0.6-19.8-2.4-22.7-11.4
			c-2.2-6.9,0.9-14.3,7-18c7.4-4.6,20.9-3.4,23.8,6.2c0.1,0.4,0.6,0.4,0.7,0c1.7-5.6,8-7.7,13.3-7c0.5,0.1,0.7-0.7,0.2-0.7
			c-4.4-0.6-9.1,0.4-12.2,3.8c-0.4,0.5-1.7,2.5-1.7,2.5c0.1,0-4-4.9-4.5-5.2c-8.5-5.7-21.2-3-26.2,6.2c-3.3,6.1-2.3,14.3,3.2,18.7
			c5.9,4.8,14.5,5.5,21.7,5.9c9.3,0.5,18.6-0.3,27.9-0.6c16.5-0.5,33.1-0.1,49.6-0.1c36.2,0,72.4,0,108.6,0c9,0,17.9,0,26.9,0
			c4.6,0,9.3,0,13.9,0c2.8,0,3.4,0.6,4.9-1.2c5.4-6.7,1.3-18.2-3.4-24c-13-15.8-45-14.3-53.8,5.5c-0.5,1.1-0.8,2.2-1.1,3.3
			c-0.5,1.6,0.4,1.2-0.1,0.4c-1.3-2-1.8-4.3-3.3-6.3c-3.2-4.1-7.8-7.1-12.7-9c-6.2-2.5-13.2-3.2-19.9-2.1c-1.7,0.3-3.2,0.7-4.9,1.1
			c-1.9,0.4-1.5,0.9-1.9-0.2c-0.2-0.5,0.6-2.4,0.7-3.1c0.1-1.1,0.1-2.2-0.1-3.3c-1.5-11.1-13.4-16.4-23.5-15.5
			c-2.6,0.2-5.1,0.8-7.5,1.7c-0.9,0.4-5.2,3.1-5.4,2.9c-0.3-0.2,0.1-4.3,0-5.1c-0.3-2.5-1-4.9-2.1-7.1c-10.6-22-43.3-23.8-58.5-6.1
			c-3.1,3.6-5.4,7.9-6.1,12.5c-0.1,0.8,0.3,6,0,6.2c-0.1,0.1-5.1-1.8-5.8-1.9c-7-1-17.2,3.5-14.1,12.1c1.5,4,5.1,6.4,9.2,7.3
			C84.3,1363.1,84.5,1362.4,84,1362.3L84,1362.3z"/>
	</g>
</g>
<g>
	<g>
		<path d="M182.1,148.4c-5.9-2.8-9.5-10.1-6.7-16.4c2.8-6.3,10.3-8.8,16.5-6.4c0.2,0.1,0.5-0.1,0.5-0.4
			c-1.8-17.9,13.8-33.3,31.8-29.8c18,3.5,26.7,23.6,18.3,39.6c-0.2,0.4,0.3,0.8,0.6,0.5c11.8-11.4,32.3-6.7,35.6,10.1
			c0.7,3.4,1.4,10.5-2.9,12c-1.3,0.5-4.5,0-5.9,0c-2,0-3.9,0-5.9,0c-8.5,0-17,0-25.6,0c-16.2,0-32.5,0-48.7,0c-4.2,0-8.3,0-12.5,0
			c-2.2,0-8,1-10.1-0.3c-3.9-2.5,4.3-4.6,6.7-5.2c3-0.8,6.1-0.9,9.1-1c0.3,0,0.5-0.3,0.3-0.6c-0.4-0.7-0.7-1.3-1.1-2
			c-0.2-0.4-0.9,0-0.6,0.4c1,1.9,1.3,1.3-0.7,1.5c-2.5,0.2-4.8,0.4-7.2,1c-1.8,0.4-9,2.1-9.4,4.6c-0.6,4.2,19.6,2.4,21.5,2.4
			c30.6,0,61.3,0,91.9,0c0.1,0,0.3-0.1,0.3-0.2c5.2-12.4-2.1-27.5-15.8-29.6c-3.3-0.5-6.7-0.3-9.9,0.6c-1,0.3-8.9,4.7-8.8,4.8
			c0.7,0.5,2.6-7.1,2.8-8.1c0.5-3.6,0.3-7.3-0.6-10.8c-3.5-14.5-18.4-23.3-32.9-20.2c-6.9,1.5-12.9,5.9-16.7,11.8
			c-2,3-3.4,6.4-4.1,10c-0.3,1.4-0.5,2.9-0.5,4.3c-0.1,3.2,0.2,3.3-3,2.9c-15.1-1.7-20.1,18.8-6.8,25.1
			C182.2,149.3,182.6,148.6,182.1,148.4z"/>
	</g>
</g>
<g>
	<g>
		<path d="M142.3,905.3c4.5-19.8-14.5-36.7-33.6-29.4c0.4,0.7,0.9,1.5,1.3,2.2c18.7-14.7,13.3-45.1-9.7-51.7
			c-23.1-6.6-43.7,16.3-35.7,38.7c0.7-0.4,1.5-0.9,2.2-1.3c-10.3-10.7-28.3-11.9-37.5,1c-7.9,11.1-2.3,28.3,11.4,31.4
			c-0.3-0.7-0.5-1.3-0.8-2c-0.1,0.2-6.5,0.3-7.9,0.7c-3.3,0.9-6.5,2.5-9.2,4.7c-5,4.1-8,10.4-8.2,16.9c-0.1,5.2,1.8,10.6,5.9,13.9
			c5.9,4.7,14.4,3.5,21.4,3.4c44-0.5,88-0.1,132-0.1c25.1,0,50.3,0,75.4,0c0.6,0,1.2-0.4,1.3-1c4.2-19.9-18.4-33.7-34.3-21.1
			c0.7,0.2,1.5,0.4,2.2,0.6c-5.9-14.9-19.6-26.3-35.6-28.5c-16.9-2.4-34,5.9-43.5,19.9c-1,1.4,1.3,2.7,2.3,1.3
			c8.7-12.8,24.2-20.5,39.7-18.7c15.4,1.7,28.8,12.5,34.5,26.7c0.4,1,1.4,1.2,2.2,0.6c8.9-7,22.1-5.1,27.8,4.9
			c1.5,2.5,4.7,10.4,1.4,12.7c-1.3,0.9-6.3,0-7.9,0c-3,0-6,0-8.9,0c-22.2,0-44.3,0-66.5,0c-43.4,0-87,0.7-130.4,0.1
			c-5.2-0.1-10.1-0.5-13.5-5c-2.8-3.6-3.4-8.5-2.6-13c2.1-10.7,12.3-17.4,22.9-16.2c0.4,0.1,1-0.3,1.1-0.7c0.1-0.3,0.3-0.6,0.4-0.9
			c0.4-0.7,0.1-1.7-0.8-2c-12.3-2.8-16.8-18.2-9.4-27.9c8.4-11,24-9.4,32.9-0.1c0.9,0.9,2.7,0,2.2-1.3
			c-7.3-20.5,11.2-41.6,32.4-35.5c21.3,6.1,25.6,33.9,8.6,47.3c-1,0.8,0.1,2.7,1.3,2.2c17.1-6.5,34.5,8.1,30.3,26.1
			C139.3,906.2,141.9,906.9,142.3,905.3L142.3,905.3z"/>
	</g>
</g>
<g>
	<g>
		<path d="M182.1,892.4c-5.9-2.8-9.5-10.1-6.7-16.4c2.8-6.3,10.3-8.8,16.5-6.4c0.2,0.1,0.5-0.1,0.5-0.4
			c-1.8-17.9,13.8-33.3,31.8-29.8c18,3.5,26.7,23.6,18.3,39.6c-0.2,0.4,0.3,0.8,0.6,0.5c11.8-11.4,32.3-6.7,35.6,10.1
			c0.7,3.4,1.4,10.5-2.9,12c-1.3,0.5-4.5,0-5.9,0c-2,0-3.9,0-5.9,0c-8.5,0-17,0-25.6,0c-16.2,0-32.5,0-48.7,0c-4.2,0-8.3,0-12.5,0
			c-2.2,0-8,1-10.1-0.3c-3.9-2.5,4.3-4.6,6.7-5.2c3-0.8,6.1-0.9,9.1-1c0.3,0,0.5-0.3,0.3-0.6c-0.4-0.7-0.7-1.3-1.1-2
			c-0.2-0.4-0.9,0-0.6,0.4c1,1.9,1.3,1.3-0.7,1.5c-2.5,0.2-4.8,0.4-7.2,1c-1.8,0.4-9,2.1-9.4,4.6c-0.6,4.2,19.6,2.4,21.5,2.4
			c30.6,0,61.3,0,91.9,0c0.1,0,0.3-0.1,0.3-0.2c5.2-12.4-2.1-27.5-15.8-29.6c-3.3-0.5-6.7-0.3-9.9,0.6c-1,0.3-8.9,4.7-8.8,4.8
			c0.7,0.5,2.6-7.1,2.8-8.1c0.5-3.6,0.3-7.3-0.6-10.8c-3.5-14.5-18.4-23.3-32.9-20.2c-6.9,1.5-12.9,5.9-16.7,11.8
			c-2,3-3.4,6.4-4.1,10c-0.3,1.4-0.5,2.9-0.5,4.3c-0.1,3.2,0.2,3.3-3,2.9c-15.1-1.7-20.1,18.8-6.8,25.1
			C182.2,893.3,182.6,892.6,182.1,892.4z"/>
	</g>
</g>
</svg>
