<svg id="Layer_1" data-name="Layer 1" xmlns="http://www.w3.org/2000/svg" viewBox="0 0 47.82 70.93"><defs><style>.cls-1{fill:#f4c498;}.cls-2{fill:blue;stroke:blue;stroke-miterlimit:10;stroke-width:0.53px;}.cls-3{fill:#efe811;}</style></defs><title>Artboard 1</title><g id="Layer_2" data-name="Layer 2"><g id="Layer_1-2" data-name="Layer 1-2"><path class="cls-1" d="M19.26,25.56a9.46,9.46,0,0,0-7.79-3.83,1.28,1.28,0,0,0-.92.28,1,1,0,0,0,.1,1.3,3.53,3.53,0,0,0,1.23.71,13.38,13.38,0,0,1,7,6.88l.41,1.44c1.59,5.67,3.17,10.41,2.79,16.29a6.61,6.61,0,0,0,.3,3.4c.51,1,2,1.67,2.85.9l1-5.74A2.31,2.31,0,0,1,27,45.46c.93-.53,2.12.42,2.35,1.47s0,2.15.21,3.2,1.28,2.12,2.26,1.67a2.41,2.41,0,0,0,1.06-1.67A30.91,30.91,0,0,0,28.84,25.6S26,19.68,22.3,18.75c-1-.25-1.78-1-2.76-1.18a3.51,3.51,0,0,0-2.87.49.65.65,0,0,0-.3.45c0,.39.53.53.89.58a3.74,3.74,0,0,1,2.48,1.52l1,3.54Z"/><path class="cls-1" d="M19.82,25a10.65,10.65,0,0,0-4.93-3.56c-1.25-.42-3.6-1.09-4.77-.13A1.79,1.79,0,0,0,10,23.77,6,6,0,0,0,12.15,25a12.79,12.79,0,0,1,3.54,2.61c3.07,3.2,3.9,8.37,4.81,12.54a33,33,0,0,1,.72,8.47c-.07,1.75-.23,3.76,1.39,4.89,4.34,3,3.17-4.6,4.3-6.12l.15-.66c1.2-.19,1.73.17,1.59,1.1a11.92,11.92,0,0,1,.09,1.9,3.59,3.59,0,0,0,.75,2,2.28,2.28,0,0,0,2.74.78c1.43-.69,1.63-2.89,1.88-4.23a31.76,31.76,0,0,0,.48-7.41A31.8,31.8,0,0,0,31,27.8c-1.52-2.9-3.29-6.21-5.82-8.32C23,17.68,17.79,15,15.68,18.13a.77.77,0,0,0,0,.8c.6.85,1,.73,2,1.16,1.34.58,1.41,1.06,1.76,2.28a6.25,6.25,0,0,1,.53,1.93c.1-1.13-.72.21-1.25.72-.75.71.38,1.83,1.12,1.12l1.48-1.4a.83.83,0,0,0,.21-.78c-.43-1.49-.58-3.43-1.79-4.51-.44-.4-1.13-.53-1.53-.92l-.36-.09c-.77-.17-.45-.24,1-.17a9.35,9.35,0,0,1,2.06.73,11.16,11.16,0,0,1,4.35,2.65c4.62,5,7.44,12.52,7.81,19.18a29,29,0,0,1-.35,6.58,7.32,7.32,0,0,1-.31,1.68c-.42.87.32,1-1.12.53s-.76-1.26-1-2.52c-.39-1.84-2.62-3.7-4.21-1.75-.89,1.11-.87,3.17-1.09,4.5-.05.25-.27,1.89-.33,1.91-.56.13-1.73-1.47-1.82-1.83-.28-1.06.14-2.56.11-3.7A48.79,48.79,0,0,0,20.53,34c-.87-3.1-1.81-5.74-4.24-8-.59-.53-4.76-2.91-4.76-3.18.07-.77,3,.23,3.6.53a9.37,9.37,0,0,1,3.55,2.84C19.33,26.92,20.45,25.79,19.82,25Z"/><path class="cls-2" d="M21.24,39.63S32.58,41.56,33.81,39c0,0,1.75,6.35.16,10.58a7.87,7.87,0,0,1-5.29,0s.53-3.17-1.06-2.65S26,50.59,26,50.59s-4.23.53-4.76-.53S21.17,39.77,21.24,39.63Z"/><path class="cls-3" d="M13.33,25.74s2.12-1.59,2.12-3.7c0,0,3.7,1.59,4.76,3.17s.35-2.61.35-2.61l-1,.43s0-2.11-.92-2.58,1.59-1.05,2.12-3.17c0,0,7.77,2,11.11,12.7C34.5,38.45,34.5,40,34.5,40a31.56,31.56,0,0,1-13.76,1.05S20.74,31.56,13.33,25.74Z"/><path class="cls-1" d="M26.09,27.44a4.69,4.69,0,0,1-6.23-1.32,4.7,4.7,0,0,1,1.29-6.24,4.69,4.69,0,0,1,6.24,1.27,4.68,4.68,0,0,1-1.24,6.24"/></g></g></svg>