<svg id="Layer_1" data-name="Layer 1" xmlns="http://www.w3.org/2000/svg" viewBox="0 0 47.82 70.93"><defs><style>.cls-1{fill:#5d605c;}.cls-2{fill:#f4c498;}.cls-3{fill:#0b4baa;}.cls-4{fill:#fc3ff3;}</style></defs><title>Artboard 1 copy 2</title><g id="Layer_2" data-name="Layer 2"><g id="Layer_1-2" data-name="Layer 1-2"><path class="cls-1" d="M23.23,45.48,11.86,46.74c-.66.07-1.47.27-1.59.92-.15.84,1,1.27,1.79,1.34a52,52,0,0,0,15-1.09,4.78,4.78,0,0,0,2.77-1.27c.66-.8.56-2.28-.43-2.61a2.41,2.41,0,0,0-1.38.1l-5.5,1.48"/><path class="cls-1" d="M26.94,48.73a1.51,1.51,0,0,0-.29,1.78,1.43,1.43,0,0,0,2,.5,1.45,1.45,0,0,0,.69-1.47,1.52,1.52,0,0,0-1.41-1.19.76.76,0,0,0-.76.75.77.77,0,0,0,.76.76h-.05l-.05,0c.05,0,.06.06,0,0s0,0,0,0,0-.13,0,0v-.09c0-.06.05-.08,0,0s.16-.12.05-.06.07,0,0,0,.19,0,0,0h.06c.06,0,.17.09,0,0l0,.06c0-.07,0-.07,0,0s0-.14,0,.05c0,0,0-.17,0-.08s0,.06,0,0l0,.07c.1-.12-.1.08,0,0a.75.75,0,0,0-1.08-1Z"/><path class="cls-1" d="M13.37,49.74a1.5,1.5,0,0,0-.29,1.78,1.44,1.44,0,0,0,2.65-1,1.52,1.52,0,0,0-1.41-1.2.76.76,0,0,0-.76.76.78.78,0,0,0,.76.75h-.05l0,0h0c-.06-.06,0,0,0,0s0-.12,0,0c0-.05,0-.21,0-.08,0-.06,0-.09,0,0s.15-.13,0-.07.07,0,0,0,.18,0,0,0h.06c.05,0,.16.09,0,0l0,.06c0-.06,0-.07,0,0s0-.14,0,.06c0,0,0-.18,0-.08s0,0,0,0l0,.07c.1-.13-.09.08,0,0a.75.75,0,0,0-.2-1.05A.75.75,0,0,0,13.37,49.74Z"/><path class="cls-2" d="M24.34,25.26A19.35,19.35,0,0,1,27.81,20c.94-1,2.22-2,3.58-1.72a.75.75,0,0,1,.63.45c.08.3-.16.59-.37.82a13.69,13.69,0,0,0-3.6,8.93l.2.92c0,2.21.76,2.13,2.07,3.09S33.17,34,34.44,35c.4.3.8.81.56,1.24s-1,.37-1.5.2c-1.16-.39-2.38-1.21-3.6-1.11s-2,.13-2.63,1.15l-.82,1a67,67,0,0,0-3.37,6.86,3.12,3.12,0,0,1-.73,1.19,1,1,0,0,1-1.28.11c-.45-.39-.28-1.12-.1-1.69a17.41,17.41,0,0,0-2.51-15.28l-.72-.38a12.73,12.73,0,0,0-7,.25c-.3.09-.67.19-.89,0a.57.57,0,0,1-.05-.67,1.41,1.41,0,0,1,.5-.5,12.11,12.11,0,0,1,7.49-2"/><path class="cls-2" d="M25,25.64A17.12,17.12,0,0,1,28.84,20c.56-.49,3.12-2.13,1.62-.25a15.47,15.47,0,0,0-1.37,2,12.38,12.38,0,0,0-1.5,8.51,3.23,3.23,0,0,0,1.5,2.24c1.25.89,3.38,1.51,4.35,2.65,1.14,1.32-1.43-.23-1.85-.34a5.77,5.77,0,0,0-2.34-.21,3.56,3.56,0,0,0-2.55,1.4,15.66,15.66,0,0,0-2.27,3.59,26.24,26.24,0,0,1-1.64,3.46c-.8,1.12-1.18,1.55-.8-.1a18.2,18.2,0,0,0-.73-10.65c-1.11-2.88-2.06-4.76-5.21-5.09-.45-.05-5.56-.15-5.58.56A27.45,27.45,0,0,1,14,26.5a12.5,12.5,0,0,1,3.71-.33c1,0,1-1.47,0-1.51-2.3-.09-7.45.36-8.66,2.83-1.42,2.88,3.52,1.37,4.3,1.29,1.23-.13,3-.35,4.13.29a4.87,4.87,0,0,1,1.54,2.05A16.87,16.87,0,0,1,20.94,38c.13,2.25-.64,4.17-.87,6.34a1.79,1.79,0,0,0,.79,2,2,2,0,0,0,2.43-.85c1.27-1.63,1.9-4.13,2.87-6,.79-1.48,1.77-3.48,3.72-3.45,1.51,0,3.38,1.74,4.92,1.2,3.16-1.11-1.58-4-2.4-4.41C30.77,32,29.21,31.25,29,29.29a11,11,0,0,1,1.22-6.35c.67-1.29,4.67-5.2.86-5.45-3.48-.23-6.12,4.81-7.36,7.39-.41.87.89,1.64,1.3.76Z"/><path class="cls-3" d="M20.47,33.86,29,30.34a14.07,14.07,0,0,0,2,1.51c1.51,1,3.52,2.51,3.52,2.51A3.67,3.67,0,0,1,32,36.88s-2-1-3.51,0a8.54,8.54,0,0,0-3,4.52L25,42.91s-3,1-4.53-1c0,0,.51-4,.51-5A17.17,17.17,0,0,0,20.47,33.86Z"/><path class="cls-4" d="M17.21,25.07a7.38,7.38,0,0,0-3.52,0s.5,2.51,0,3.51c0,0,3,0,4.52,1a9.2,9.2,0,0,1,2,5s8-.5,9.55-4c0,0-1.51-2-.5-5.52s1.51-2.52,1.51-2.52a4.53,4.53,0,0,0-4.53-2l-1.32,1.69-2.69,3.34Z"/><path class="cls-2" d="M22.79,25.17a4.45,4.45,0,0,1-5.9-1.26A4.45,4.45,0,0,1,18.1,18,4.45,4.45,0,0,1,24,19.2a4.45,4.45,0,0,1-1.17,5.93"/></g></g></svg>