<svg id="Layer_1" data-name="Layer 1" xmlns="http://www.w3.org/2000/svg" viewBox="0 0 47.82 70.93"><defs><style>.cls-1{fill:#f4c498;}.cls-2{fill:blue;stroke:blue;}.cls-2,.cls-3{stroke-miterlimit:10;stroke-width:0.51px;}.cls-3{fill:#f15a24;stroke:#f15a24;}</style></defs><title>Artboard 1 copy</title><g id="Layer_2" data-name="Layer 2"><g id="Layer_1-2" data-name="Layer 1-2"><path class="cls-1" d="M26.08,25.12A15.91,15.91,0,0,1,30,17.84a1.82,1.82,0,0,1,.91-.63.72.72,0,0,1,.89.46,1.17,1.17,0,0,1-.24.76c-2.12,3.51-3.55,6.19-3.41,10.28l.51,1.67c2.62,5,1.66,10.93,1.11,16.52A5.54,5.54,0,0,1,29,49.59c-.51.78-.38,1.75-1.43.75-.3-1.67-1.54-3.27-2.57-4.63l-1,.29a36.56,36.56,0,0,0-1.62,4.41c-1,.64-1.39.08-2.06-.89a6.37,6.37,0,0,1-.83-3.39A49,49,0,0,1,20.44,34L19,43.11c-1.76-1.44-2.06-4-1.93-6.27A25.15,25.15,0,0,1,19.33,28l.83-1.55,4.11-2.57Z"/><path class="cls-1" d="M26.84,25.32c.52-2,1.72-5.78,3.68-6.94.53-.57.5-.44-.09.4-.28.47-.55.94-.81,1.42a21.41,21.41,0,0,0-1.1,2.26,11.15,11.15,0,0,0-.65,8,22.5,22.5,0,0,1,1.71,6.62,40.66,40.66,0,0,1-.23,6.24c-.06.65-.92,7-1.42,6.76.51.3-.42-2.15-.47-2.23a21.11,21.11,0,0,0-1.74-2.54.8.8,0,0,0-.87-.35,2.45,2.45,0,0,0-1.51.82c-.84,1-.94,5-2.53,2.8-1.09-1.49-.59-5-.51-6.69a51.44,51.44,0,0,1,.9-7.72l-1.48-.41-1.43,9.13,1.29-.35c-2.41-2.29-1.85-6.22-1.23-9.14.39-1.91,1.23-5.22,2.32-6.44.45-.52,2.26-1.3,3.09-1.92.21-.16.47-.29.69-.43.45-.28-.76-.27-.35,0s1,.75,1.58,1.13c.81.57,1.58-.77.78-1.34l-1.81-1.28a.78.78,0,0,0-.78,0,41.42,41.42,0,0,0-3.69,2.31A6.72,6.72,0,0,0,18.3,28.4c-1.82,4.29-3.72,11.52.19,15.26a.77.77,0,0,0,1.1,0,.8.8,0,0,0,.19-.32l1.41-9.11c.15-1-1.3-1.4-1.49-.41a52.59,52.59,0,0,0-1,9.53c0,2.32-.21,5.22,1.4,7.12C20.81,51.28,22,52,23,51c1.14-1.19.6-4,2.25-4.5l-.86-.36c.45.61.93,1.22,1.33,1.87s.67,1.85,1.13,2.57a1.88,1.88,0,0,0,1.15.93c1.39.22,2-1.91,2.3-3a39.59,39.59,0,0,0,.85-9.22,20.62,20.62,0,0,0-1.45-8.51,9.2,9.2,0,0,1,0-7.24c.64-1.7,1.77-3.08,2.48-4.74a1.83,1.83,0,0,0,.23-1.54c-.61-1.45-2.21-.72-3,0a16,16,0,0,0-4.11,7.61.79.79,0,1,0,1.52.45Z"/><path class="cls-2" d="M18.87,37.47s-.51,8.22.52,10.8c.6,1.51,4.11.51,4.11.51l1-2.06s1-.51,1.54,1.55c.28,1.11,4.12,0,4.12,0s2.05-7.2.51-13.38Z"/><path class="cls-3" d="M20.41,25.12l6.11-3.06,1.1-2.57s1.54,2.06,3.08,2.06a10.19,10.19,0,0,0-2.06,5.65,8.09,8.09,0,0,0,1.16,4.63,16.43,16.43,0,0,1,1.42,5.66c0,2.57-12.35,1.54-12.35,1.54v-3.6s-2.57.52-2.57-.51c0,0,2.25-7.06,2.57-7.72A9.84,9.84,0,0,1,20.41,25.12Z"/><path class="cls-1" d="M24.58,25.74a4.55,4.55,0,0,1-6-1.28,4.56,4.56,0,0,1,1.25-6.06,4.56,4.56,0,0,1,6.07,1.23,4.57,4.57,0,0,1-1.21,6.08"/></g></g></svg>