<svg id="Layer_1" data-name="Layer 1" xmlns="http://www.w3.org/2000/svg" viewBox="0 0 57.86 71.27"><defs><style>.cls-1{fill:#5d605c;}</style></defs><title>Artboard 1 copy</title><g id="Layer_2" data-name="Layer 2"><g id="Layer_1-2" data-name="Layer 1-2"><path class="cls-1" d="M29,60.59c-.29-1.05,1.35-6.11,1.62-7.4.49-2.72.89-5.49,1.2-8.28A127.21,127.21,0,0,0,32.5,28c-.1-4.11.2-10.51-.82-14.25-1-3.45-3.94-4.93-5.48-1.49a15.11,15.11,0,0,0-.8,5.83C25.29,32.48,25.23,47.33,29,60.59Z"/><path class="cls-1" d="M25.72,30.82q-10.51,4-21.17,7.56C4.41,36.25,6.37,34.85,8,34L26,24.4"/><path class="cls-1" d="M31.86,30.82q10.52,4,21.16,7.56c.13-2.16-1.82-3.55-3.49-4.44l-18-9.54"/><path class="cls-1" d="M27.69,50.57l.08,5.24-4.44.77V54.07a18.79,18.79,0,0,0,4.32-3.78"/><path class="cls-1" d="M29.36,50.58,29.27,56l4.44.79V54.17a19.1,19.1,0,0,1-4.32-3.9"/></g></g></svg>