<svg xmlns="http://www.w3.org/2000/svg" viewBox="0 0 89.77 93.13"><defs><style>.cls-1{fill:#5d605c;}</style></defs><title>Asset 16</title><g id="Layer_2" data-name="Layer 2"><g id="Layer_1-2" data-name="Layer 1"><path class="cls-1" d="M45.18,93.13c-.54-1.94,2.51-11.32,3-13.7.91-5.05,1.65-10.18,2.22-15.34a234.91,234.91,0,0,0,1.36-31.3c-.18-7.62.37-19.47-1.53-26.4C48.42,0,42.94-2.74,40.09,3.63c-1.38,3.1-1.46,7.07-1.49,10.81C38.4,41.07,38.3,68.58,45.18,93.13Z"/><path class="cls-1" d="M39.2,38Q19.73,45.41,0,52c-.26-3.95,3.36-6.55,6.46-8.2L39.71,26.1"/><path class="cls-1" d="M50.57,38q19.49,7.41,39.19,14C90,48,86.4,45.42,83.3,43.77L50.06,26.1"/><path class="cls-1" d="M42.85,74.58,43,84.27,34.78,85.7V81.06a35.37,35.37,0,0,0,8-7"/><path class="cls-1" d="M45.94,74.6l-.17,9.94L54,86V81.25a35.53,35.53,0,0,1-8-7.24"/></g></g></svg>