<?xml version="1.0" encoding="utf-8"?>
<!-- Generator: Adobe Illustrator 22.0.1, SVG Export Plug-In . SVG Version: 6.00 Build 0)  -->
<svg version="1.1" id="Layer_1" xmlns="http://www.w3.org/2000/svg" xmlns:xlink="http://www.w3.org/1999/xlink" x="0px" y="0px"
	 viewBox="0 0 57.9 71.3" style="enable-background:new 0 0 57.9 71.3;" xml:space="preserve">
<style type="text/css">
	.st0{fill:#F4C498;}
	.st1{fill:#EFE811;}
	.st2{fill:#0000FF;}
	.st3{fill:#6D392C;}
	.st4{fill:#187C11;}
	.st5{fill:#7478C4;}
	.st6{fill:#7A0C7A;}
	.st7{fill:#F15A24;}
	.st8{fill:#847961;}
	.st9{fill:#F3C498;}
	.st10{fill:#FC3FF3;}
</style>
<g>
	<g>
		<path class="st0" d="M25,31.3c-1.1-2.3-2.6-2.9-4.8-3.9c-0.4,1.8,1.2,3.5,2.6,4.7c1.8,1.5,3.8,4,3,6.4c-0.4,1.3-1.7,2.4-2.6,3.5
			c-1.1,1.4-2,3.2-1.6,4.9c2.2-0.5,4-2.1,4.9-4.1c0.4-0.8,0.6-1.6,1-2.3c0.5-0.7,1.3-1.3,2.1-1.1c0.5,0.1,1,0.5,1.4,0.8
			c2.2,1.9,4.3,3.9,6.5,5.8c0.2-1.7-0.8-3.3-1.8-4.7c-1.1-1.3-2.3-2.6-2.8-4.3s0.2-3.8,1.8-4.3c0.7-0.2,1.4-0.1,2.1-0.3
			c0.7-0.2,1.2-1.2,0.6-1.7c-0.3-0.2-0.7-0.2-1-0.2c-2.2,0.2-4.5,0.3-6.7,0.5"/>
		<g>
			<path class="st9" d="M25.6,31c-1.2-2.2-2.8-3.1-5-4.2c-0.5-0.2-1.1,0-1.1,0.6c-0.1,3.9,3.6,4.3,4.9,7.4c1.4,3.4-0.6,5-2.2,7.4
				c-1,1.6-1.4,2.9-1.3,4.7c0,0.4,0.4,0.8,0.9,0.7c2.4-0.8,3.6-2,5.1-4c1.2-1.5-1.4,0.5,2-1.8c2.1-1.4,1.7-1.1,3.3,0.3
				c1.6,1.4,3.2,2.9,4.9,4.3c0.4,0.4,1.3,0.1,1.2-0.5c-0.1-2.7-1.4-4.1-2.9-6.2c-0.6-1-1.2-2-1.8-3c0.7-1.2,1.5-2.3,2.2-3.5
				c0.3-0.2,1,0,1.2-0.2c0.3-0.3,0.8-0.4,1-0.9c2.3-3.9-7.3-2-8.3-1.9c-0.9,0.1-0.9,1.5,0,1.4c1.6-0.1,3.1-0.2,4.7-0.3
				c1.6-0.1,3.2-0.9,0.2,0.6c-1.1,0.5-1.7,0.9-2.2,2c-2,4.5,4.3,7.8,4.4,11.9c0.4-0.2,0.8-0.3,1.2-0.5c-2.1-1.9-4.2-4.1-6.5-5.8
				c-0.8-0.6-1.3-1.1-2.3-1c-1,0-1.6,0.6-2.2,1.3c-2,2.5-1.9,5-5.7,6.3c0.3,0.2,0.6,0.5,0.9,0.7c-0.2-4.4,5-6.3,4.3-10.5
				c-0.6-3.6-5.8-5.4-5.7-9c-0.4,0.2-0.7,0.4-1.1,0.6c1.9,0.9,3.5,1.8,4.5,3.7C24.8,32.5,26,31.8,25.6,31L25.6,31z"/>
		</g>
	</g>
	<g>
		<path class="st7" d="M25.4,37.3c-0.9,1.2-1.7,2.5-2.6,3.7c-0.2,0.3-0.5,0.7-0.3,1.1c0.1,0.3,0.4,0.4,0.7,0.5
			c1.1,0.4,2.3,0.8,3.4,1.3c0.2,0.1,0.4,0.1,0.5,0.1c0.5-0.1,0.6-0.7,0.8-1.2c0.4-1.5,1.4-2.2,2.6-0.8c0.5,0.6,1.1,1.4,1.9,1.5
			c0.2,0,0.5,0,0.7-0.1c1.1-0.2,5.7-0.5,4.3-2.1c-1.1-1.3-2.3-2.5-3.6-3.6"/>
		<g>
			<path class="st7" d="M24.8,36.9c-1.8,2.6-4.9,5.1-1,6.6c1.1,0.4,2.6,1.4,3.8,0.9c1-0.5,0.2-0.9,0.9-1.5c1.7-1.3,1.5,0.1,2.6,0.8
				c1.4,0.8,5.2,0.3,6.4-0.7c2.3-1.9-2.1-4.7-3.4-5.9c-0.7-0.6-1.7,0.4-1,1c0.8,0.7,3.1,2.2,3,3.4c-0.1,0.8-0.9,0.8-1.8,0.9
				c-1.5,0.2-2.2-0.1-3.4-1c-0.6-0.4-0.9-1-1.8-1c-1.5,0-1.3,1.3-2,2.1c-0.6,0.6-0.4,0.4-1.3,0.2c-0.4-0.1-1.4-0.4-1.7-0.6
				c-1.2-1-0.5-1.2,0.2-2.2c0.5-0.8,1.1-1.5,1.6-2.3C26.6,36.9,25.4,36.1,24.8,36.9L24.8,36.9z"/>
		</g>
	</g>
	<g>
		<path class="st5" d="M26.2,29.8c-1-0.7-1.9-1.4-2.9-2.1c-0.4,1.2-1.3,2.1-2.5,2.5c2.4,1.7,2.6,4,4.2,6.1c1.3,1.8,2.8,0.9,4.9,1.8
			c0.9,0.4,1.7,0.8,2.5,1.1c4.9,1.4-0.2-5,1.1-5c0.9,0,1.8,0,2.8-0.1c-0.4-0.6-0.3-1.5-0.4-2.2c-0.1-0.8-0.5-1.7-1.2-1.8
			c-1.2-0.1-3.1,1-3.9-0.7"/>
	</g>
	<g>
		<path class="st0" d="M30.7,30.5c-1.8,1.2-4.5,0.6-5.6-1.2c-1.2-1.8-0.6-4.5,1.2-5.6c1.8-1.2,4.5-0.6,5.6,1.1
			C33,26.6,32.5,29.3,30.7,30.5"/>
	</g>
</g>
</svg>
