<?xml version="1.0" encoding="utf-8"?>
<!-- Generator: Adobe Illustrator 22.0.1, SVG Export Plug-In . SVG Version: 6.00 Build 0)  -->
<svg version="1.1" id="Layer_1" xmlns="http://www.w3.org/2000/svg" xmlns:xlink="http://www.w3.org/1999/xlink" x="0px" y="0px"
	 viewBox="0 0 57.9 71.3" style="enable-background:new 0 0 57.9 71.3;" xml:space="preserve">
<style type="text/css">
	.st0{fill:#F4C498;}
	.st1{fill:#0000FF;stroke:#0000FF;stroke-width:0.5292;stroke-miterlimit:10;}
	.st2{fill:#EFE811;}
	.st3{fill:#5D605C;}
	.st4{fill:#0B4BAA;}
	.st5{fill:#FC3FF3;}
	.st6{fill:#0000FF;stroke:#0000FF;stroke-width:0.5143;stroke-miterlimit:10;}
	.st7{fill:#F15A24;stroke:#F15A24;stroke-width:0.5143;stroke-miterlimit:10;}
	.st8{fill:#6D392C;}
	.st9{fill:#187C11;}
	.st10{fill:#606060;}
	.st11{fill:#8EEFE6;}
	.st12{fill:#7A0C7A;}
	.st13{fill:#7478C4;}
	.st14{fill:#7678B9;}
	.st15{fill:#0000FF;}
	.st16{fill:#F15A24;}
	.st17{fill:#484C75;}
	.st18{fill:#F3C498;}
</style>
<g>
	<g>
		<path class="st0" d="M26.8,30.9c-2.5-0.2-5,0.2-7.3,1c-0.6,0.2-1.2,0.5-1.3,1.1c-0.1,0.7,0.7,1.3,1.5,1.3s1.5-0.4,2.2-0.5
			c2-0.3,4.3,1.6,4.6,3.6c0.4,2.4-2.1,4.6-3.3,6.3c-1.2,1.6-2.3,3.7-1.8,5.6c2.5-0.6,4.6-2.4,5.6-4.7c0.4-0.9,0.6-1.9,1.2-2.7
			c0.5-0.8,1.5-1.5,2.4-1.3c0.6,0.1,1.1,0.6,1.6,1c2.5,2.2,4.9,4.4,7.4,6.6c0.2-1.9-0.9-3.8-2.1-5.3c-1.2-1.5-2.6-3-3.2-4.9
			s0.2-4.3,2.1-4.9c0.8-0.2,1.6-0.1,2.4-0.4s1.3-1.4,0.7-1.9c-0.3-0.3-0.8-0.3-1.2-0.2c-2.5,0.2-5.1,0.4-7.6,0.6"/>
	</g>
	<g>
		<path class="st2" d="M25.7,38.2c-1,1.4-2,2.8-3,4.2c-0.3,0.4-0.5,0.8-0.3,1.2c0.1,0.3,0.5,0.4,0.8,0.6c1.3,0.5,2.6,1,3.9,1.5
			c0.2,0.1,0.4,0.1,0.6,0.1c0.6-0.1,0.7-0.8,0.9-1.3c0.4-1.8,1.5-2.5,3-0.9c0.6,0.7,1.2,1.6,2.2,1.7c0.3,0,0.5,0,0.8-0.1
			c1.3-0.3,6.5-0.6,4.9-2.4c-1.3-1.4-2.7-2.8-4.1-4.1"/>
	</g>
	<g>
		<path class="st12" d="M26,29.1c-2,0.7-4,1.4-6.1,2c1.5,1.2,1.6,2.5,1.7,4.3c0.8-0.4,1.8-0.3,2.4,0.2c1,0.8,0.4,1.9,1.6,2.6
			c1.2,0.7,3.6,0.3,5,0.9c1,0.4,1.9,0.9,2.9,1.2c5.6,1.6-0.2-5.7,1.2-5.7c1.1,0,2.1,0,3.2-0.1c-0.5-0.7-0.4-1.7-0.5-2.6
			c-0.1-0.9-0.5-1.9-1.4-2c-1.4-0.2-3.5,1.1-4.4-0.8"/>
	</g>
	<g>
		<path class="st0" d="M31.7,30.5c-2,1.3-5.1,0.7-6.4-1.4c-1.3-2-0.7-5.1,1.3-6.4S31.7,22,33,24C34.4,26,33.7,29.1,31.7,30.5"/>
	</g>
</g>
</svg>
