<?xml version="1.0" encoding="utf-8"?>
<!-- Generator: Adobe Illustrator 22.0.1, SVG Export Plug-In . SVG Version: 6.00 Build 0)  -->
<svg version="1.1" id="Layer_1" xmlns="http://www.w3.org/2000/svg" xmlns:xlink="http://www.w3.org/1999/xlink" x="0px" y="0px"
	 viewBox="0 0 57.9 71.3" style="enable-background:new 0 0 57.9 71.3;" xml:space="preserve">
<style type="text/css">
	.st0{fill:#F4C498;}
	.st1{fill:#EFE811;}
	.st2{fill:#0000FF;}
	.st3{fill:#6D392C;}
	.st4{fill:#187C11;}
	.st5{fill:#7478C4;}
	.st6{fill:#7A0C7A;}
	.st7{fill:#F15A24;}
	.st8{fill:#847961;}
	.st9{fill:#F3C498;}
	.st10{fill:#FC3FF3;}
</style>
<g>
	<g>
		<g>
			<path class="st0" d="M23.8,28.9c-1,1.2-2,2.4-2.6,3.8c-0.6,1.4-0.8,3.1-0.1,4.4c0.4,0.9,1.2,1.6,1.7,2.4c1.7,2.8,0.6,6.4,1.1,9.6
				c0.1,0.5,0.2,1.1,0.7,1.4c0.7,0.5,1.7,0.2,2.2-0.4c0.5-0.7,0.6-1.5,0.6-2.4c0-2.2,1.1-4.1,3.7-2.5c1,0.6,1.7,1.5,2.7,2.2
				c1,0.7,2.3,1,3.2,0.3c1-0.7-1.8-3.9-2.3-4.2c-1.4-1-3.3-1.2-1.9-3.5c0.3-0.6,0.9-1,1.4-1.5c1.2-1.5,1-3.8,0-5.4
				c-1-1.6-2.7-2.8-4.2-3.8"/>
		</g>
		<g>
			<path class="st2" d="M23.9,42.3c-0.1,1.8-0.1,3.6-0.2,5.5c1.2,0.1,2.4,0.2,3.6,0.3c0.3,0,0.1-4.2,3.1-3.2
				c1.4,0.5,2.4,2.1,3.9,1.8c1.2-0.2,1.7-1.8,1.3-3c-0.4-1.2-1.5-1.9-2.5-2.6"/>
			<g>
				<path class="st2" d="M23.1,42.3C23.1,44.2,23,46,23,47.8c0,0.4,0.3,0.7,0.7,0.7c1.6,0.1,3.8,1,4.4-0.7c0.3-0.8,0.1-2.1,1.4-2.4
					c1.2-0.2,2.4,1.4,3.5,1.8c1.5,0.5,2.9-0.2,3.4-1.7c0.7-2.2-1.2-3.9-2.9-5c-0.8-0.5-1.5,0.7-0.7,1.2c0.6,0.4,1.6,1,1.9,1.7
					c0.7,1.4-0.2,2.4-1.7,2.2c-0.7-0.1-1.5-1.1-2.3-1.4c-0.9-0.3-1.8-0.3-2.6,0.2c-0.6,0.5-0.9,1.2-1.2,1.9
					c-0.1,0.2-0.1,1.1-0.3,1.2c0.1-0.1-0.6-0.3-0.8-0.4c-0.6-0.2-1.7-0.1-2.2-0.2c0.2,0.2,0.5,0.5,0.7,0.7c0.1-1.8,0.1-3.6,0.2-5.5
					C24.6,41.4,23.2,41.4,23.1,42.3L23.1,42.3z"/>
			</g>
		</g>
		<g>
			<path class="st7" d="M34.9,35c-1-0.9-0.1-3.4-1.8-4.6c-1.3-0.9-3-0.8-4.5-0.8c-1.7,0.1-3.8,0-5.2,0.8c-1.7,0.9-3.6,3.6-2.2,5.4
				c0.6,0.7,1.7,0.2,2.5,0.5c0.9,0.4,0.9,1.6,0.7,2.5c-0.3,0.9-0.8,1.9-0.5,2.8c1.3,4.5,8.8-1.2,9.3,0C32.8,40.4,31.4,31.7,34.9,35z
				"/>
			<g>
				<path class="st7" d="M35.5,34.6c-1.1-1.5-0.3-3.6-2.1-4.9c-1.7-1.2-4.4-0.9-6.3-0.8c-3,0.1-8.6,2.4-6.8,6.5
					c0.3,0.7,0.6,0.8,1.2,1.3c0.2,0.2,0.7,0,0.9,0.1c2.2,1.5,0.9,1.9,0.8,3.6c-0.1,1.3,0.4,2.6,1.6,3.2c1.2,0.6,2.6,0.3,3.9,0
					c0.4-0.1,4-1.7,4.1-1.6c0.5,0.5,1.4,0,1.2-0.7c-0.4-1-0.5-2.1-0.6-3.1c-0.1-0.9-0.5-4,1-2.7c0.7,0.6,1.7-0.4,1-1
					c-4.4-3.7-3.7,5-2.9,7.2c0.4-0.2,0.8-0.5,1.2-0.7c-0.9-1.1-3.2,0.4-4.1,0.7c-1,0.4-2.4,1-3.6,0.8c-2.6-0.5-0.5-3.8-0.9-5.4
					c-0.3-1.3-0.9-1.2-1.9-1.7c-0.9-0.5-2.8,1.6-1.5-2.3c0.4-1.3,2-2.2,3.2-2.5c1.6-0.4,4.9-0.7,6.5-0.1c2.9,1,1.5,3.1,2.8,4.9
					C34.8,36.1,36.1,35.3,35.5,34.6z"/>
			</g>
		</g>
		<g>
			<path class="st0" d="M29,29.9c-1.8,1.2-4.5,0.6-5.6-1.1s-0.6-4.5,1.1-5.7s4.5-0.7,5.7,1.1S30.8,28.7,29,29.9"/>
		</g>
	</g>
	<g>
		<path class="st0" d="M29.1,29.4c-1.8,1.2-4.5,0.6-5.6-1.2c-1.2-1.8-0.6-4.5,1.2-5.6c1.8-1.2,4.5-0.6,5.6,1.1
			C31.5,25.5,30.9,28.2,29.1,29.4"/>
	</g>
	<g>
		<path class="st1" d="M26.1,19.3c-3,0.1-5.3,2-5.4,5c0,0.6,0.1,1.2,0.4,1.7c0.9,1.1,3.2-0.2,4.2-0.6c1.7-0.6,3.5-1.1,5.2-1.7
			c0.9-0.3,2-0.8,2.3-1.7c-0.8-0.4-1.8-0.3-2.4,0.4C30.1,20.6,28.1,19.3,26.1,19.3z"/>
	</g>
</g>
</svg>
