<?xml version="1.0" encoding="utf-8"?>
<!-- Generator: Adobe Illustrator 22.0.1, SVG Export Plug-In . SVG Version: 6.00 Build 0)  -->
<svg version="1.1" id="Layer_1" xmlns="http://www.w3.org/2000/svg" xmlns:xlink="http://www.w3.org/1999/xlink" x="0px" y="0px"
	 viewBox="0 0 53.8 58.2" style="enable-background:new 0 0 53.8 58.2;" xml:space="preserve">
<style type="text/css">
	.st0{fill:#F4C498;}
	.st1{fill:#0000FF;stroke:#0000FF;stroke-width:0.5195;stroke-miterlimit:10;}
	.st2{fill:#F15A24;stroke:#F15A24;stroke-width:0.5195;stroke-miterlimit:10;}
</style>
<title>Asset 22</title>
<g id="Layer_2_1_">
	<g id="Layer_1-2">
		<path class="st0" d="M28.6,23.3c0.9-2,2.1-3.8,3.6-5.4c1-1,2.3-2.1,3.7-1.8c0.3,0,0.5,0.2,0.7,0.5c0.1,0.3-0.2,0.6-0.4,0.8
			c-2.3,2.5-3.6,5.8-3.7,9.2l0.2,1c0,2.3,0.8,2.2,2.1,3.2c1.3,1,3,1.6,4.3,2.6c0.4,0.3,0.8,0.8,0.6,1.3s-1,0.4-1.6,0.2
			c-1.2-0.4-2.5-1.2-3.7-1.1c-1.3,0.1-2,0.1-2.7,1.2l-0.8,1c-1.3,2.3-2.5,4.7-3.5,7.1c-0.2,0.5-0.4,0.9-0.7,1.2
			c-0.4,0.4-0.9,0.4-1.3,0.1c-0.5-0.4-0.3-1.2-0.1-1.8c1.7-5.4,0.7-11.2-2.6-15.8l-0.7-0.4c-2.4-0.6-4.9-0.5-7.3,0.3
			c-0.3,0.1-0.7,0.2-0.9,0c-0.2-0.2-0.2-0.5-0.1-0.7c0.1-0.2,0.3-0.4,0.5-0.5c2.3-1.5,5-2.2,7.7-2"/>
		<path class="st0" d="M29.3,23.7c1-2.1,2.2-4.3,4-5.8c0.6-0.5,3.2-2.2,1.7-0.3c-0.5,0.7-1,1.4-1.4,2.1c-1.5,2.6-2.2,5.8-1.6,8.8
			c0.2,1,0.7,1.8,1.6,2.3c1.3,0.9,3.5,1.6,4.5,2.7c1.2,1.4-1.5-0.2-1.9-0.3c-0.8-0.2-1.6-0.3-2.4-0.2c-1,0.1-2,0.6-2.6,1.4
			c-1,1.1-1.7,2.4-2.4,3.7c-0.6,1.1-1,2.6-1.7,3.6c-0.8,1.2-1.2,1.6-0.8-0.1c0.9-3.7,0.6-7.5-0.8-11c-1.1-3-2.1-4.9-5.4-5.3
			c-0.5,0-5.7-0.2-5.8,0.6c0-0.2,3.4-1.3,3.7-1.4c1.3-0.3,2.5-0.4,3.8-0.3c1,0,1-1.5,0-1.6c-2.4-0.1-7.7,0.4-9,2.9
			c-1.5,3,3.6,1.4,4.4,1.3c1.3-0.1,3.2-0.4,4.3,0.3c0.8,0.4,1.2,1.4,1.6,2.1c1.2,2.2,1.8,4.7,2,7.2c0.1,2.3-0.7,4.3-0.9,6.6
			c-0.1,0.8,0,1.6,0.8,2.1c1,0.5,1.9-0.1,2.5-0.9c1.3-1.7,2-4.3,3-6.2c0.8-1.5,1.8-3.6,3.8-3.6c1.6,0,3.5,1.8,5.1,1.2
			c3.3-1.1-1.6-4.1-2.5-4.6c-1.7-1-3.3-1.7-3.5-3.7c-0.3-2.3,0.2-4.6,1.3-6.6c0.7-1.3,4.8-5.4,0.9-5.6c-3.6-0.2-6.3,5-7.6,7.6
			C27.5,23.8,28.9,24.6,29.3,23.7L29.3,23.7z"/>
		<path class="st1" d="M24.6,32.2l8.8-3.6c0.6,0.6,1.3,1.1,2.1,1.6c1.6,1,3.6,2.6,3.6,2.6c-0.4,1.3-1.3,2.2-2.6,2.6c0,0-2.1-1-3.6,0
			c-2.3,1.6-3.1,4.7-3.1,4.7l-0.5,1.6c0,0-3.1,1-4.7-1c0,0,0.5-4.2,0.5-5.2C25,34.3,24.9,33.2,24.6,32.2z"/>
		<path class="st2" d="M21.2,23.1c0,0-2.1-0.5-3.6,0c0,0,0.5,2.6,0,3.6c0,0,3.1,0,4.7,1c0,0,1.6,1.6,2.1,5.2c0,0,8.3-0.5,9.9-4.2
			c0,0-1.6-2.1-0.5-5.7s1.6-2.6,1.6-2.6c-1-1.6-2.8-2.4-4.7-2.1l-1.4,1.7l-2.8,3.4L21.2,23.1z"/>
		<path class="st0" d="M27,23.2c-2.1,1.2-4.7,0.7-6.1-1.3c-1.2-2.1-0.7-4.7,1.3-6.1c2.1-1.2,4.7-0.7,6.1,1.2
			C29.5,19.1,29,21.7,27,23.2"/>
	</g>
</g>
</svg>
