<?xml version="1.0" encoding="utf-8"?>
<!-- Generator: Adobe Illustrator 22.0.1, SVG Export Plug-In . SVG Version: 6.00 Build 0)  -->
<svg version="1.1" id="Layer_1" xmlns="http://www.w3.org/2000/svg" xmlns:xlink="http://www.w3.org/1999/xlink" x="0px" y="0px"
	 viewBox="0 0 57.9 71.3" style="enable-background:new 0 0 57.9 71.3;" xml:space="preserve">
<style type="text/css">
	.st0{fill:#F4C498;}
	.st1{fill:#EFE811;}
	.st2{fill:#0000FF;}
	.st3{fill:#6D392C;}
	.st4{fill:#187C11;}
	.st5{fill:#7478C4;}
	.st6{fill:#7A0C7A;}
	.st7{fill:#F15A24;}
	.st8{fill:#847961;}
	.st9{fill:#F3C498;}
	.st10{fill:#FC3FF3;}
</style>
<g>
	<g>
		<path class="st0" d="M26.3,26.1C24.3,31.8,23.1,38,24.4,44c0.2,0.7,0.4,1.5,0.9,2c0.5,0.5,1.4,0.8,2,0.3c0.5-0.4,0.6-1,0.7-1.6
			c0.4-2.3,0.5-4.6,0.5-6.9c0.3,0.9,1.1,1.7,2.1,1.9c0.1,2,0.5,3.9,1.2,5.7c0.2,0.5,0.4,1,0.9,1.2c0.6,0.2,1.2-0.2,1.5-0.8
			c0.3-0.5,0.2-1.2,0.2-1.8c-0.5-6-1.7-11.9-3.6-17.6"/>
	</g>
	<g>
		<path class="st2" d="M26.3,26.4c-1.7,4-2.4,8.5-2.2,12.8c0,0.6,0.1,1.2,0.5,1.6c0.5,0.5,1.3,0.6,2,0.6c2.8,0.1,5.6,0.2,8.4,0.3
			c-0.8-5.5-2.2-11-4.3-16.2"/>
		<g>
			<path class="st2" d="M25.6,26.2c-1,2.7-1.8,5.4-2.1,8.3c-0.2,1.7-0.6,4.4,0.1,6c0.5,1.1,1.1,1.4,2.2,1.7c2.8,0.7,6.2,0.3,9.1,0.4
				c0.5,0,0.8-0.5,0.7-0.9c-0.8-5.6-2.3-10.9-4.3-16.2c-0.3-0.8-1.7-0.5-1.4,0.4C32,31,33.4,36.4,34.3,42c0.2-0.3,0.5-0.6,0.7-0.9
				c-1.8-0.1-3.6-0.1-5.4-0.2c-2.4-0.1-4.3,0-4.8-2.8c-0.6-3.7,0.9-8.1,2.2-11.4C27.3,25.7,25.9,25.3,25.6,26.2L25.6,26.2z"/>
		</g>
	</g>
	<g>
		<path class="st0" d="M30.9,26.3c-1.8,1.2-4.5,0.6-5.6-1.2c-1.2-1.8-0.6-4.5,1.2-5.6c1.8-1.2,4.5-0.6,5.6,1.1
			C33.3,22.3,32.7,25,30.9,26.3"/>
	</g>
	<g>
		<path class="st8" d="M28.3,38.3c-0.7-0.6-1.1-1.4-1.4-2.3c0.6,0,1.3,0.3,1.6,0.9c1.1-0.5,2.2-0.7,3.4-0.7c-0.3,1-1.2,1.7-2.1,2.2
			c-0.9,0.5-2,0.8-2.8,1.4c-1.5,1.1-2.3,3-2.8,4.8c-0.5,1.9-0.8,3.9-0.9,5.8c0,1,0.3,2.2,1.2,2.2c0.5,0,0.9-0.4,1.4-0.7
			c1.4-1,3.4-0.8,5.1-0.3c1.7,0.5,3.5,1.2,5.2,0.8c0.4-0.1,0.9-0.3,1.1-0.7c0.1-0.3,0.1-0.6,0.1-0.9c-0.6-4.7-3.2-9-7-11.7"/>
	</g>
	<g>
		<path class="st0" d="M25.7,33.1c0.7-0.1,1.5-0.2,2.2-0.4c0,1.2,0,2.3,0.1,3.5c0,0.4-0.1,1-0.5,1.1c-0.3,0.1-0.5-0.1-0.7-0.3
			c-0.2-0.2-0.2-0.5-0.3-0.7c-0.3-0.9-0.5-1.8-0.8-2.6"/>
	</g>
	<g>
		<path class="st0" d="M30.2,32.8c0.7,0.1,1.5,0.3,2.2,0.4c-0.4,1.1-0.7,2.2-1.1,3.3c-0.1,0.4-0.4,0.9-0.8,0.9
			c-0.3,0-0.5-0.2-0.6-0.5c-0.1-0.3-0.1-0.5-0.1-0.8c0.1-0.9,0.1-1.8,0.2-2.7"/>
	</g>
</g>
</svg>
