<?xml version="1.0" encoding="utf-8"?>
<!-- Generator: Adobe Illustrator 22.0.1, SVG Export Plug-In . SVG Version: 6.00 Build 0)  -->
<svg version="1.1" id="Layer_1" xmlns="http://www.w3.org/2000/svg" xmlns:xlink="http://www.w3.org/1999/xlink" x="0px" y="0px"
	 viewBox="0 0 57.9 71.3" style="enable-background:new 0 0 57.9 71.3;" xml:space="preserve">
<style type="text/css">
	.st0{fill:#F4C498;}
	.st1{fill:#0000FF;stroke:#0000FF;stroke-width:0.5292;stroke-miterlimit:10;}
	.st2{fill:#EFE811;}
	.st3{fill:#5D605C;}
	.st4{fill:#0B4BAA;}
	.st5{fill:#FC3FF3;}
	.st6{fill:#0000FF;stroke:#0000FF;stroke-width:0.5143;stroke-miterlimit:10;}
	.st7{fill:#F15A24;stroke:#F15A24;stroke-width:0.5143;stroke-miterlimit:10;}
	.st8{fill:#6D392C;}
	.st9{fill:#187C11;}
	.st10{fill:#606060;}
	.st11{fill:#8EEFE6;}
	.st12{fill:#7A0C7A;}
	.st13{fill:#7478C4;}
	.st14{fill:#7678B9;}
	.st15{fill:#F3C498;}
	.st16{fill:#0000FF;}
	.st17{fill:#F15A24;}
	.st18{fill:#484C75;}
</style>
<g>
	<g>
		<path class="st0" d="M26.9,34.4c-3.3,0.4-6,2-7.9,4.7c-0.4,0.5-0.7,1.2-0.7,1.8c0,0.7,0.5,1.3,1.1,1.4c1.5,0.2,1.8-2.5,3.3-2.9
			c0.8-0.2,1.5,0.4,1.8,1.1c0.3,0.7,0.3,1.5,0.3,2.3c-0.1,3.4-0.3,6.7-0.4,10.1c-0.1,1.4,0.3,3.3,1.7,3.4c0.7,0.1,1.4-0.5,1.7-1.1
			c0.3-0.6,0.4-1.4,0.5-2.1c0.2-2.4,0.4-4.8,0.7-7.2c0.6,2.4,1.2,4.9,1.9,7.3c0.2,0.7,0.5,1.6,1.2,1.8c0.8,0.3,1.6-0.3,2-1
			c0.3-0.8,0.2-1.6,0.1-2.4c-0.4-3.4-0.8-6.7-1.2-10.1c-0.1-0.5-0.1-1,0.2-1.4c0.5-0.6,1.5-0.5,2.1,0s0.9,1.3,1.5,1.8s1.5,1,2.1,0.5
			c0.6-0.4,0.6-1.3,0.3-1.9c-1.3-2.4-5.1-5.1-7.7-5.8"/>
	</g>
	<g>
		<path class="st2" d="M24.7,43.2c0.4,1.1,0.1,2.3-0.1,3.5c-0.2,1.1-0.3,2.5,0.5,3.3c1,1.2,2.9,1,4.4,0.8c0-0.9,0.2-1.8,0.7-2.5
			c0.4,1.1,0.9,2.3,1.9,3.1c1,0.8,2.5,0.9,3.3-0.1c0.6-0.8,0.5-1.9,0.3-2.8c-0.3-1.6-0.6-3.2-0.9-4.8"/>
	</g>
	<g>
		<path class="st16" d="M25.1,34.8c0,2-0.1,4-0.1,6c-0.1,4.2,6,3.3,9,3c0.4-1.6,0.7-3.3-0.3-4.6c-0.4-0.5-0.9-0.8-1.2-1.3
			c-0.8-1.1-0.5-2.7-0.2-4c-2,0.8-4.1,1-6.2,0.8"/>
		<g>
			<path class="st16" d="M24.2,34.8c-0.1,2.2-0.5,4.7-0.1,6.8c0.2,1.1,0.9,2,1.9,2.5c2.3,1.3,5.4,0.7,7.9,0.4c0.3,0,0.7-0.2,0.8-0.6
				c0.3-1.5,0.6-3.1,0-4.5c-0.2-0.5-0.6-0.9-0.9-1.3c-1.2-1.4-1.2-2.4-0.8-4.1c0.1-0.6-0.4-1.2-1-1c-2,0.7-3.9,0.9-6,0.8
				c-1.1-0.1-1,1.6,0,1.6c2.2,0.2,4.3-0.1,6.4-0.8c-0.3-0.3-0.7-0.7-1-1c-0.3,1.3-0.6,2.8,0,4.2c0.3,0.6,0.8,1,1.2,1.6
				c1.1,1.3,0.8,2.7,0.5,4.3c0.3-0.2,0.5-0.4,0.8-0.6c-2,0.2-4.2,0.6-6.2,0.1c-1.3-0.3-1.8-0.9-2-2.3c-0.2-1.9,0.1-4,0.1-6
				C25.9,33.8,24.3,33.8,24.2,34.8L24.2,34.8z"/>
		</g>
	</g>
	<g>
		<path class="st0" d="M31.2,34.7c-2,1.3-5.1,0.7-6.4-1.4s-0.7-5.1,1.3-6.4s5.1-0.7,6.4,1.3S33.3,33.2,31.2,34.7"/>
	</g>
	<g>
		<path class="st13" d="M16.4,42.6c1-0.3,2-0.6,3.1-0.9"/>
		<g>
			<path class="st14" d="M16.6,43.4c1-0.3,2-0.6,3.1-0.9c1-0.3,0.6-1.9-0.4-1.6c-1,0.3-2,0.6-3.1,0.9C15.2,42.1,15.6,43.7,16.6,43.4
				L16.6,43.4z"/>
		</g>
	</g>
	<g>
		<path class="st13" d="M38.8,42.3c0.7,0,1.5,0,2.2,0"/>
		<g>
			<path class="st14" d="M38.8,43.1c0.7,0,1.5,0,2.2,0c1.1,0,1.1-1.6,0-1.6c-0.7,0-1.5,0-2.2,0C37.7,41.5,37.7,43.1,38.8,43.1
				L38.8,43.1z"/>
		</g>
	</g>
	<g>
		<g>
			<path class="st14" d="M16.3,42.5c-1-8.2,0.5-24.7,10.6-26.4C37.3,14.3,41.5,33.7,42,41.2c0,0.5,0.9,0.5,0.8,0
				c-0.4-6.3-2-12.4-5-17.9c-2.1-3.8-5.3-8.9-10.3-8.6c-11.2,0.6-13,20-12,27.8C15.5,43,16.3,43,16.3,42.5L16.3,42.5z"/>
		</g>
	</g>
</g>
</svg>
