<?xml version="1.0" encoding="utf-8"?>
<!-- Generator: Adobe Illustrator 22.0.1, SVG Export Plug-In . SVG Version: 6.00 Build 0)  -->
<svg version="1.1" id="Layer_1" xmlns="http://www.w3.org/2000/svg" xmlns:xlink="http://www.w3.org/1999/xlink" x="0px" y="0px"
	 viewBox="0 0 57.9 71.3" style="enable-background:new 0 0 57.9 71.3;" xml:space="preserve">
<style type="text/css">
	.st0{fill:#F4C498;}
	.st1{fill:#EFE811;}
	.st2{fill:#0000FF;}
	.st3{fill:#6D392C;}
	.st4{fill:#187C11;}
	.st5{fill:#7478C4;}
	.st6{fill:#7A0C7A;}
	.st7{fill:#F15A24;}
	.st8{fill:#847961;}
	.st9{fill:#F3C498;}
	.st10{fill:#FC3FF3;}
</style>
<g>
	<g>
		<path class="st0" d="M26.6,29.7c-0.2,1.4-0.8,2.7-1.5,4c-0.7,1.3-1.4,2.6-1.7,4c-0.3,1.4-0.1,3,0.8,4.1c0.9,1.1,2.7,1.6,3.8,0.7
			c-0.2,0.7-0.4,1.5-0.1,2.2s1.4,1,1.8,0.3c0.5-0.8-0.4-2.1,0.4-2.5c0.4-0.2,1,0.2,1.1,0.7c0.1,0.5,0,1,0.1,1.5c0.1,0.5,0.4,1,0.9,1
			c0.5,0,0.8-0.5,0.9-1c0.1-0.5,0-1,0.2-1.4c0.2-0.6,0.8-1,1.3-1.5c1.8-1.7,2.2-4.4,1.5-6.8c-0.7-2.3-2.3-4.3-4.2-5.9"/>
	</g>
	<g>
		<path class="st5" d="M27.3,29.7c-0.5,1.2-1.2,2.3-2.2,3.1c0.5,0.3,0.9,0.6,1.4,0.9c-1,0.5-1.8,1.4-2,2.5c2-0.6,4.1,0,6.1,0.5
			c2,0.5,4.3,0.7,6-0.5c-0.7-2.8-2.5-5.4-4.9-7.1"/>
	</g>
	<g>
		<path class="st7" d="M24.8,41.9c3.8-0.3,7.4-1.4,10.8-3.1c0.7,0.6,0.4,1.9-0.4,2.4s-1.8,0.6-2.7,0.6c-2.4,0.1-4.9,0.1-7.3,0.2"/>
		<g>
			<path class="st7" d="M24.8,42.6c3.9-0.4,7.6-1.4,11.1-3.2c-0.3,0-0.6-0.1-0.9-0.1c1.4,1.8-2.8,1.8-3.3,1.8c-0.7,0-1.3,0-2,0.1
				c-1.5,0-3,0.1-4.5,0.1c-0.9,0-0.9,1.5,0,1.4c1.9-0.1,3.8-0.1,5.7-0.2c1.3,0,2.8,0.1,4.1-0.4c1.6-0.7,2.2-2.5,1.1-3.9
				c-0.2-0.3-0.6-0.2-0.9-0.1c-3.3,1.7-6.8,2.7-10.4,3C23.9,41.3,23.8,42.7,24.8,42.6L24.8,42.6z"/>
		</g>
	</g>
	<g>
		<path class="st0" d="M30.9,30.7c-1.8,1.2-4.5,0.6-5.6-1.2s-0.6-4.5,1.2-5.6c1.8-1.2,4.5-0.6,5.6,1.1
			C33.3,26.8,32.8,29.5,30.9,30.7"/>
	</g>
	<g>
		<g>
			<path class="st0" d="M31.2,34.4c0.5,1.4,1,2.8,1.5,4.2c0.2,0.5,1,0.8,1.3,0.2c0.7-1.6,0.7-3.4-0.3-4.9c-0.2-0.3-0.6-0.4-1-0.3
				c-0.4,0.2-0.9,0.4-1.3,0.7c-0.8,0.4-0.1,1.7,0.7,1.2c0.4-0.2,0.9-0.4,1.3-0.7c-0.3-0.1-0.7-0.2-1-0.3c0.7,1.1,0.8,2.3,0.3,3.5
				c0.4,0.1,0.9,0.1,1.3,0.2c-0.5-1.4-1-2.8-1.5-4.2C32.2,33.1,30.8,33.5,31.2,34.4L31.2,34.4z"/>
		</g>
	</g>
	<g>
		<g>
			<path class="st7" d="M28.3,43.6c0.4,0,0.9,0,1.3,0c0.9,0,0.9-1.4,0-1.4c-0.4,0-0.9,0-1.3,0C27.3,42.2,27.3,43.6,28.3,43.6
				L28.3,43.6z"/>
		</g>
	</g>
	<g>
		<g>
			<path class="st7" d="M31.7,43.9c0.5,0,1-0.1,1.5-0.1c0.9-0.1,0.9-1.5,0-1.4c-0.5,0-1,0.1-1.5,0.1C30.8,42.5,30.8,43.9,31.7,43.9
				L31.7,43.9z"/>
		</g>
	</g>
	<g>
		<g>
			<path class="st3" d="M24.8,38.9c-0.3,0.4-0.5,0.8-0.9,1.2c-0.1,0.1,0,0.2,0.1,0.1c0.3-0.4,0.6-0.8,0.9-1.2
				C24.9,38.9,24.8,38.9,24.8,38.9L24.8,38.9z"/>
		</g>
	</g>
	<g>
		<g>
			<path class="st3" d="M23.8,39.1c0.4,0.4,0.7,0.8,1.1,1.2c0.1,0.1,0.2,0,0.1-0.1c-0.4-0.4-0.7-0.8-1.1-1.2
				C23.8,38.9,23.7,39,23.8,39.1L23.8,39.1z"/>
		</g>
	</g>
</g>
</svg>
