<svg xmlns="http://www.w3.org/2000/svg" viewBox="0 0 32.08 68.15"><defs><style>.cls-1{fill:#f4c498;}.cls-2{fill:blue;stroke:blue;}.cls-2,.cls-3{stroke-miterlimit:10;}.cls-3{fill:#f15a24;stroke:#f15a24;}</style></defs><title>Asset 23</title><g id="Layer_2" data-name="Layer 2"><g id="Layer_1-2" data-name="Layer 1"><path class="cls-1" d="M19.51,16.85A31,31,0,0,1,27.09,2.7a3.8,3.8,0,0,1,1.77-1.23,1.41,1.41,0,0,1,1.73.9,2.18,2.18,0,0,1-.46,1.47c-4.12,6.83-6.9,12.05-6.63,20l1,3.25c5.09,9.66,3.21,21.24,2.15,32.11a10.81,10.81,0,0,1-1.42,5.24c-1,1.51-.74,3.4-2.77,1.45-.6-3.25-3-6.36-5-9l-1.89.56c-.92,2.75-2.12,4.39-3.16,8.58-1.94,1.24-2.69.15-4-1.74S6.91,60,6.79,57.71a95.86,95.86,0,0,1,1.76-23.6L5.81,51.84c-3.42-2.8-4-7.78-3.75-12.19A48.88,48.88,0,0,1,6.4,22.35l1.6-3,8-5Z"/><path class="cls-1" d="M21,17.25C22,13.31,24.33,6,28.15,3.76q1.53-1.68-.18.76c-.54.92-1.07,1.84-1.58,2.77a44.4,44.4,0,0,0-2.13,4.39C22.21,16.63,21.15,22.13,23,27.27c1.59,4.45,3,8,3.32,12.87a80.89,80.89,0,0,1-.44,12.15c-.12,1.25-1.8,13.69-2.77,13.14,1,.58-.82-4.18-.91-4.35a40.44,40.44,0,0,0-3.38-4.92,1.55,1.55,0,0,0-1.69-.69c-1.44.42-2.05.54-2.94,1.6C12.55,59,12.36,66.68,9.27,62.5c-2.13-2.89-1.15-9.62-1-13a99.51,99.51,0,0,1,1.76-15l-2.89-.8L4.36,51.44l2.51-.67C2.2,46.31,3.28,38.67,4.48,33,5.24,29.29,6.88,22.84,9,20.47c.87-1,4.39-2.53,6-3.73.42-.31.91-.57,1.35-.84.88-.55-1.48-.52-.68.07,1,.75,2,1.45,3.06,2.18,1.58,1.12,3.08-1.49,1.52-2.59l-3.51-2.49a1.46,1.46,0,0,0-1.52,0,80.33,80.33,0,0,0-7.17,4.48C6.19,19,5.34,21,4.39,23.24c-3.54,8.33-7.23,22.4.36,29.66a1.52,1.52,0,0,0,2.51-.67L10,34.51c.29-1.87-2.53-2.72-2.89-.8A103,103,0,0,0,5.18,52.24c0,4.51-.41,10.16,2.72,13.85,1.37,1.62,3.72,3,5.62,1,2.22-2.3,1.18-7.81,4.39-8.75l-1.69-.69c.89,1.18,1.82,2.37,2.6,3.63.94,1.52,1.29,3.6,2.2,5a3.64,3.64,0,0,0,2.22,1.81c2.71.42,3.92-3.72,4.48-5.76,1.51-5.51,1.54-12.24,1.65-17.92a40.16,40.16,0,0,0-2.82-16.55c-2-4.77-1.78-9.12.07-14.07,1.23-3.31,3.43-6,4.81-9.22.43-1,.92-1.88.46-3-1.2-2.81-4.3-1.4-5.86,0-4.1,3.77-6.59,9.54-8,14.81A1.51,1.51,0,0,0,21,17.25Z"/><path class="cls-2" d="M5.5,40.86s-1,16,1,21c1.17,2.94,8,1,8,1l2-4s2-1,3,3c.54,2.17,8,0,8,0s4-14,1-26Z"/><path class="cls-3" d="M8.5,16.86l11.87-5.95,2.13-5s3,4,6,4c0,0-4,5-4,11s2.24,9,2.24,9,2.76,6,2.76,11-24,3-24,3v-7s-5,1-5-1c0,0,4.37-13.73,5-15A18.66,18.66,0,0,1,8.5,16.86Z"/><path class="cls-1" d="M16.59,18.06A8.85,8.85,0,0,1,4.83,15.57,8.87,8.87,0,0,1,7.27,3.79,8.86,8.86,0,0,1,19.06,6.18,8.87,8.87,0,0,1,16.72,18"/></g></g></svg>