<?xml version="1.0" encoding="utf-8"?>
<!-- Generator: Adobe Illustrator 22.0.1, SVG Export Plug-In . SVG Version: 6.00 Build 0)  -->
<svg version="1.1" id="Layer_1" xmlns="http://www.w3.org/2000/svg" xmlns:xlink="http://www.w3.org/1999/xlink" x="0px" y="0px"
	 viewBox="0 0 57.9 71.3" style="enable-background:new 0 0 57.9 71.3;" xml:space="preserve">
<style type="text/css">
	.st0{fill:#F4C498;}
	.st1{fill:#EFE811;}
	.st2{fill:#0000FF;}
	.st3{fill:#6D392C;}
	.st4{fill:#187C11;}
	.st5{fill:#7478C4;}
	.st6{fill:#7A0C7A;}
	.st7{fill:#F15A24;}
	.st8{fill:#847961;}
	.st9{fill:#F3C498;}
	.st10{fill:#FC3FF3;}
</style>
<g>
	<g>
		<g>
			<path class="st8" d="M4.6,41.2c5.6,0,12.6,1.1,18.1-0.3c4.1-1,5.9-5.3,8.9-7.8c0.7-0.6-0.3-1.6-1-1c-3.8,3.2-5.1,7.2-10.6,7.7
				c-5.1,0.4-10.3,0-15.4,0C3.7,39.7,3.7,41.2,4.6,41.2L4.6,41.2z"/>
		</g>
	</g>
	<g>
		<g>
			<path class="st8" d="M5.1,41.5c-0.7,0.6-0.9,1.7-0.4,2.6C5.1,44.9,6.1,45.3,7,45c0.9-0.3,1.6-1.2,1.4-2.2
				c-0.2-1.1-1.2-1.9-2.2-1.8c-0.9,0.1-0.9,1.5,0,1.4c0.8-0.1,1.2,1,0.3,1.2c-0.7,0.2-0.9-0.7-0.4-1.1C6.8,41.9,5.8,40.9,5.1,41.5
				L5.1,41.5z"/>
		</g>
	</g>
	<g>
		<g>
			<path class="st8" d="M20.2,41.3c-0.7,0.6-0.8,1.6-0.4,2.4c0.5,0.9,1.5,1.1,2.4,0.7c0.8-0.4,1.3-1.4,1-2.3
				c-0.4-0.9-1.4-1.5-2.4-1.2c-0.9,0.3-0.5,1.7,0.4,1.4c0.5-0.2,1,0.5,0.4,0.8c-0.6,0.2-0.7-0.6-0.3-0.9c0.3-0.2,0.2-0.8,0-1
				C20.9,41,20.5,41,20.2,41.3L20.2,41.3z"/>
		</g>
	</g>
	<g>
		<path class="st0" d="M34.8,29.6c-1.8,1.2-4.5,0.6-5.6-1.2c-1.2-1.8-0.6-4.5,1.2-5.6c1.8-1.2,4.5-0.6,5.6,1.1
			C37.2,25.7,36.7,28.4,34.8,29.6"/>
	</g>
	<g>
		<path class="st0" d="M32.9,30.3c-2.1-0.1-4.3,1.1-5.4,2.9c-0.4,0.6-0.6,1.6,0.1,2c0.3,0.2,0.7,0.1,1.1,0
			c3.9-0.8,10.3-2.8,13.9,0.3c1.6,1.3,0.4,2.5-0.7,4c-1.2,1.9-1.5,4.2-1.7,6.4c0.6,0.1,1.1-0.1,1.5-0.5s0.7-0.9,0.9-1.4
			c0.8-1.6,2.3-4.7,4.1-5.3c0.1,2.1-0.6,3.9,0.2,6.2c0.2,0.5,0.4,1,0.9,1.2c0.5,0.2,1.2-0.1,1.5-0.6c0.3-0.5,0.4-1.1,0.5-1.7
			c0.7-6.3,0.9-13.3-6.7-14.6c-2.4-0.4-5-0.4-7.3-1.3"/>
	</g>
	<g>
		<path class="st10" d="M44.2,34.8c-1-0.2-1.7,1-1.7,2c0,1,0.2,2.1-0.4,3c0.8,0.6,1.7,1.1,2.5,1.7c0.2,0.1,0.4,0.2,0.6,0.2
			c0.8-0.1,0.6-1.6,1.4-1.6c0.2,0.6,0.4,1.2,0.6,1.8c1.1,0.4,2.3-0.2,2.9-1.2s0.6-2.2,0.5-3.3c-0.3-2.5-1.5-5-3.5-6.6"/>
	</g>
</g>
</svg>
