<svg xmlns="http://www.w3.org/2000/svg" viewBox="0 0 53.82 69.44"><defs><style>.cls-1{fill:#5d605c;}.cls-2{fill:#f4c498;}.cls-3{fill:#0b4baa;}.cls-4{fill:#fc3ff3;}</style></defs><title>Asset 21</title><g id="Layer_2" data-name="Layer 2"><g id="Layer_1-2" data-name="Layer 1"><path class="cls-1" d="M28.63,56,6,58.49c-1.31.14-2.93.55-3.17,1.84C2.53,62,4.72,62.85,6.4,63c10,.91,20.06-.19,29.88-2.18,2-.41,4.19-.95,5.51-2.53s1.11-4.53-.85-5.18a4.73,4.73,0,0,0-2.75.19L27.25,56.24"/><path class="cls-1" d="M36,62.46A3,3,0,0,0,35.43,66a2.85,2.85,0,0,0,5.26-1.93,3,3,0,0,0-2.8-2.37,1.5,1.5,0,0,0-1.5,1.5,1.53,1.53,0,0,0,1.5,1.5c-.46,0,.15,0-.09,0s-.09,0,0,0l-.11-.08c.1.11.12.13.05,0s-.06-.07,0,.06,0-.25,0,0c0-.1,0-.43,0-.17,0-.12.09-.17,0,0,.07-.09.31-.25.1-.13s.14,0,0,0,.37-.07,0,0l.17,0c-.14,0-.16,0-.05,0s.33.18.09,0l.08.12c-.06-.13-.07-.14,0,0s0-.28,0,.11c0-.06.07-.35,0-.16s0,.11,0,0l-.06.14c.2-.25-.19.16.08-.06A1.5,1.5,0,0,0,36,62.46Z"/><path class="cls-1" d="M9,64.46A3,3,0,0,0,8.43,68a2.85,2.85,0,0,0,5.26-1.93,3,3,0,0,0-2.8-2.37,1.5,1.5,0,0,0-1.5,1.5,1.53,1.53,0,0,0,1.5,1.5c-.46,0,.15,0-.09,0s-.09,0,0,0l-.11-.08c.1.11.12.13,0,0s-.06-.07,0,.06,0-.25,0,0c0-.1.05-.43,0-.17,0-.12.09-.17,0,0,.07-.09.31-.25.1-.13s.14,0,0,0,.37-.07,0,0l.17,0c-.14,0-.16,0-.05,0s.33.18.09,0l.08.12c-.06-.13-.07-.14,0,0s0-.28,0,.11c0-.06.07-.35,0-.16s0,.11,0,0l-.06.14c.2-.25-.19.16.08-.06A1.5,1.5,0,0,0,9,64.46Z"/><path class="cls-2" d="M30.84,15.75a38.33,38.33,0,0,1,6.9-10.48c1.87-2,4.41-4,7.11-3.43a1.51,1.51,0,0,1,1.26.91c.16.6-.31,1.16-.73,1.62a27.24,27.24,0,0,0-7.16,17.77l.4,1.83c0,4.4,1.51,4.25,4.1,6.16s5.68,3.08,8.21,5.06c.79.6,1.58,1.61,1.12,2.48s-2,.74-3,.39c-2.31-.78-4.73-2.4-7.16-2.21s-3.89.26-5.23,2.3l-1.63,2a131.88,131.88,0,0,0-6.71,13.66,6.14,6.14,0,0,1-1.44,2.36,2,2,0,0,1-2.55.22c-.91-.78-.56-2.23-.2-3.37a34.59,34.59,0,0,0-5-30.39l-1.43-.76a25.44,25.44,0,0,0-14,.49c-.59.19-1.32.38-1.77-.06a1.14,1.14,0,0,1-.1-1.33,3.09,3.09,0,0,1,1-1,24.06,24.06,0,0,1,14.91-3.91"/><path class="cls-2" d="M32.13,16.51c1.89-4,4.28-8.21,7.66-11.18C40.9,4.36,46,1.09,43,4.84A29.11,29.11,0,0,0,40.29,8.9c-2.8,5.09-4.29,11.18-3,16.92a6.45,6.45,0,0,0,3,4.46c2.47,1.77,6.71,3,8.64,5.27,2.27,2.64-2.84-.45-3.67-.67a11.41,11.41,0,0,0-4.65-.42,7.13,7.13,0,0,0-5.08,2.78A31,31,0,0,0,31,44.4c-1.09,2.13-1.88,5-3.26,6.88-1.59,2.22-2.35,3.07-1.58-.2a36.18,36.18,0,0,0-1.46-21.19c-2.21-5.74-4.09-9.47-10.36-10.14-.91-.09-11.06-.3-11.11,1.13,0-.33,6.57-2.51,7.09-2.65a25.13,25.13,0,0,1,7.38-.67c1.93.08,1.93-2.92,0-3-4.58-.18-14.83.72-17.23,5.63-2.82,5.74,7,2.73,8.56,2.57,2.43-.25,6.07-.7,8.21.58,1.46.86,2.29,2.6,3.07,4.07a33.79,33.79,0,0,1,3.76,13.77c.26,4.48-1.28,8.31-1.74,12.62-.17,1.63,0,3.16,1.57,4,1.9,1,3.71-.21,4.85-1.68,2.51-3.26,3.77-8.23,5.71-11.9,1.57-2.95,3.51-6.93,7.39-6.87,3,0,6.73,3.45,9.79,2.38,6.3-2.2-3.14-7.85-4.78-8.78-3.23-1.84-6.34-3.27-6.81-7.17a21.7,21.7,0,0,1,2.42-12.64C43.81,8.57,51.76.8,44.18.3,37.25-.16,32,9.86,29.54,15c-.81,1.74,1.77,3.26,2.59,1.52Z"/><path class="cls-3" d="M23.14,32.87l17-7a29.58,29.58,0,0,0,4,3c3,2,7,5,7,5a7.27,7.27,0,0,1-5,5s-4-2-7,0c-4.48,3-6,9-6,9l-1,3s-6,2-9-2c0,0,1-8,1-10A35.36,35.36,0,0,0,23.14,32.87Z"/><path class="cls-4" d="M16.64,15.37s-4-1-7,0c0,0,1,5,0,7,0,0,6,0,9,2,0,0,3,3,4,10,0,0,16-1,19-8,0,0-3-4-1-11s3-5,3-5a9,9,0,0,0-9-4L32,9.73l-5.34,6.64Z"/><path class="cls-2" d="M27.74,15.57A8.86,8.86,0,0,1,16,13.08,8.87,8.87,0,0,1,18.41,1.3,8.86,8.86,0,0,1,30.2,3.69a8.85,8.85,0,0,1-2.34,11.8"/></g></g></svg>