<?xml version="1.0" encoding="utf-8"?>
<!-- Generator: Adobe Illustrator 22.0.1, SVG Export Plug-In . SVG Version: 6.00 Build 0)  -->
<svg version="1.1" id="Layer_1" xmlns="http://www.w3.org/2000/svg" xmlns:xlink="http://www.w3.org/1999/xlink" x="0px" y="0px"
	 viewBox="0 0 57.9 71.3" style="enable-background:new 0 0 57.9 71.3;" xml:space="preserve">
<style type="text/css">
	.st0{fill:#F4C498;}
	.st1{fill:#0000FF;stroke:#0000FF;stroke-width:0.5292;stroke-miterlimit:10;}
	.st2{fill:#EFE811;}
	.st3{fill:#5D605C;}
	.st4{fill:#0B4BAA;}
	.st5{fill:#FC3FF3;}
	.st6{fill:#0000FF;stroke:#0000FF;stroke-width:0.5143;stroke-miterlimit:10;}
	.st7{fill:#F15A24;stroke:#F15A24;stroke-width:0.5143;stroke-miterlimit:10;}
	.st8{fill:#6D392C;}
	.st9{fill:#187C11;}
	.st10{fill:#606060;}
	.st11{fill:#8EEFE6;}
	.st12{fill:#7A0C7A;}
	.st13{fill:#7478C4;}
	.st14{fill:#7678B9;}
	.st15{fill:#0000FF;}
	.st16{fill:#F15A24;}
	.st17{fill:#484C75;}
	.st18{fill:#F3C498;}
</style>
<g>
	<g>
		<path class="st0" d="M32.7,30.1c1.4-1.7,3-3.3,4.8-4.7c0.5-0.3,1-0.7,1.5-0.7c0.6-0.1,1.2,0.2,1.3,0.8c0.1,0.7-0.4,1.2-0.9,1.7
			c-1.6,1.6-2.5,3.7-3.3,5.8c-2.3,6.1-3.6,12.5-4,19c0,0.8-0.4,1.9-1.2,1.8c-0.4-0.1-0.7-0.4-0.9-0.7c-0.9-1.5-0.9-3.3-1.4-5
			c-0.4-1.7-1.5-3.5-3.3-3.7c-1.1-0.1-2.1,0.4-3.1,0.9c-1,0.5-2,1-3.1,0.9c-1.1-0.2-2.1-1.3-1.6-2.3c0.4-0.9,1.7-1.1,2.6-1.4
			c1.8-0.6,3.2-2.2,4.1-3.9c2.3-4.1,2.6-9.2,1-13.6c-0.2-0.6-0.5-1.1-0.4-1.7c0-0.6,0.4-1.3,1-1.4c0.6-0.1,1.2,0.6,0.9,1.1"/>
	</g>
	<g>
		<path class="st2" d="M24.8,37.4c-0.8,1.6-2,3-3.3,4.2c0.7,1.3,1.4,2.6,2.1,3.9c0.8-1.1,2.6-1.2,3.5-0.2c0.6,0.7,0.7,1.6,1,2.5
			s0.7,1.8,1.6,2.1c0.7,0.2,1.6-0.2,2.1-0.8c0.5-0.6,0.8-1.3,1-2.1c0.8-2.2,1.5-4.4,1.2-6.7"/>
	</g>
	<g>
		<path class="st13" d="M28.4,27.7c-0.3,1.2-0.7,2.4-1,3.7c-0.4,1.5-0.8,3.1-1.3,4.6c-0.1,0.4-0.2,0.9,0,1.2
			c0.2,0.2,0.4,0.4,0.7,0.5c2.2,1,4.6,1.6,7.1,1.6c0.4-1.4,0.7-2.8,1.1-4.2c0.1-0.3,0.1-0.6,0.1-0.9c-0.1-0.6-0.5-1-0.8-1.4
			c-0.9-1.3-1-3.1-0.3-4.5c-1.7-0.2-3.3-0.5-4.9-1.1"/>
		<g>
			<path class="st14" d="M27.6,27.5c-0.6,2.1-1.2,4.3-1.8,6.4c-0.3,1.1-1.1,2.7-0.4,3.8c1.4,2.1,6.3,2.4,8.4,2.5
				c0.4,0,0.7-0.3,0.8-0.6c0.4-1.6,1.4-3.8,1.2-5.5c-0.1-0.7-0.6-1.1-0.9-1.6c-0.8-1.3-0.8-2.5-0.2-3.9c0.2-0.5-0.3-1-0.8-1
				c-1.6-0.2-3.1-0.6-4.6-1.1c-1-0.3-1.4,1.2-0.4,1.6c1.7,0.6,3.3,0.9,5.1,1.1c-0.3-0.3-0.5-0.7-0.8-1c-0.6,1.4-0.7,2.9,0,4.4
				c0.6,1.5,1.1,1.1,0.8,3.3c-0.1,1.1-0.6,2.3-0.8,3.4c0.3-0.2,0.5-0.4,0.8-0.6c-1.3,0-2.6-0.2-3.8-0.5c-1.4-0.4-3.2-0.6-3.1-2.3
				c0.1-2.5,1.5-5.4,2.1-7.8C29.5,26.9,27.9,26.5,27.6,27.5L27.6,27.5z"/>
		</g>
	</g>
	<g>
		<path class="st0" d="M33.9,29.9c-2,1.3-5.1,0.7-6.4-1.4c-1.3-2-0.7-5.1,1.3-6.4s5.1-0.7,6.4,1.3S36,28.5,33.9,29.9"/>
	</g>
</g>
</svg>
