<?xml version="1.0" encoding="utf-8"?>
<!-- Generator: Adobe Illustrator 22.0.1, SVG Export Plug-In . SVG Version: 6.00 Build 0)  -->
<svg version="1.1" id="Layer_1" xmlns="http://www.w3.org/2000/svg" xmlns:xlink="http://www.w3.org/1999/xlink" x="0px" y="0px"
	 viewBox="0 0 57.9 71.3" style="enable-background:new 0 0 57.9 71.3;" xml:space="preserve">
<style type="text/css">
	.st0{fill:#F4C498;}
	.st1{fill:#0000FF;stroke:#0000FF;stroke-width:0.5292;stroke-miterlimit:10;}
	.st2{fill:#EFE811;}
	.st3{fill:#5D605C;}
	.st4{fill:#0B4BAA;}
	.st5{fill:#FC3FF3;}
	.st6{fill:#0000FF;stroke:#0000FF;stroke-width:0.5143;stroke-miterlimit:10;}
	.st7{fill:#F15A24;stroke:#F15A24;stroke-width:0.5143;stroke-miterlimit:10;}
	.st8{fill:#6D392C;}
	.st9{fill:#187C11;}
	.st10{fill:#606060;}
	.st11{fill:#8EEFE6;}
	.st12{fill:#7478C4;}
	.st13{fill:#7678B9;}
	.st14{fill:#F15A24;}
	.st15{fill:#7A0C7A;}
	.st16{fill:#484C75;}
</style>
<title>Asset 20</title>
<g id="Layer_2_3_">
	<g id="Layer_1-2_2_">
		<path class="st0" d="M2.1-137.8c-1.8-2.5-4.7-3.9-7.8-3.8c-0.3,0-0.7,0.1-0.9,0.3c-0.3,0.4-0.3,1,0.1,1.3s0.8,0.6,1.2,0.7
			c3.1,1.3,5.6,3.8,7,6.9l0.4,1.4c1.6,5.7,3.2,10.4,2.8,16.3c-0.1,1.1-0.2,2.4,0.3,3.4s2,1.7,2.9,0.9l1-5.7c0.1-0.7,0.3-1.4,0.8-1.7
			c0.9-0.5,2.1,0.4,2.3,1.5c0.2,1,0,2.2,0.2,3.2c0.2,1.1,1.3,2.1,2.3,1.7c0.6-0.3,0.9-1,1.1-1.7c2.1-8.4,0.7-17.3-4.1-24.5
			c0,0-2.9-5.9-6.5-6.9c-1-0.2-1.8-1-2.8-1.2c-1-0.3-2-0.1-2.9,0.5c-0.2,0.1-0.3,0.3-0.3,0.4c0,0.4,0.5,0.5,0.9,0.6
			c1,0.2,1.9,0.7,2.5,1.5l1,3.5L2.1-137.8z"/>
		<path class="st0" d="M2.7-138.3c-1.3-1.6-3-2.9-4.9-3.6c-1.2-0.4-3.6-1.1-4.8-0.1c-0.7,0.7-0.8,1.7-0.1,2.5
			c0.5,0.7,1.5,0.9,2.2,1.2c1.3,0.7,2.5,1.5,3.5,2.6c3.1,3.2,3.9,8.4,4.8,12.5c0.6,2.8,0.9,5.6,0.7,8.5c-0.1,1.7-0.2,3.8,1.4,4.9
			c4.3,3,3.2-4.6,4.3-6.1l0.1-0.7c1.2-0.2,1.7,0.2,1.6,1.1c0.2,0.6,0,1.3,0.1,1.9c0,0.7,0.3,1.4,0.8,2c0.6,0.9,1.8,1.2,2.7,0.8
			c1.4-0.7,1.6-2.9,1.9-4.2c0.5-2.4,0.6-4.9,0.5-7.4c-0.2-4.6-1.5-9-3.6-13.1c-1.5-2.9-3.3-6.2-5.8-8.3c-2.2-1.8-7.4-4.4-9.5-1.3
			c-0.1,0.2-0.1,0.6,0,0.8c0.6,0.9,1,0.7,2,1.2c1.3,0.6,1.4,1.1,1.8,2.3c0.1,0.5,0.6,1.4,0.5,1.9c0.1-1.1-0.7,0.2-1.3,0.7
			c-0.7,0.7,0.4,1.8,1.1,1.1l1.5-1.4c0.2-0.2,0.3-0.5,0.2-0.8c-0.4-1.5-0.6-3.4-1.8-4.5c-0.4-0.4-1.1-0.5-1.5-0.9l-0.4-0.1
			c-0.8-0.2-0.4-0.2,1-0.2c0.7,0.2,1.4,0.4,2.1,0.7c1.7,0.7,3.1,1.3,4.3,2.6c4.6,5,7.4,12.5,7.8,19.2c0.1,2.2,0,4.4-0.3,6.6
			c0,0.6-0.1,1.1-0.3,1.7c-0.4,0.9,0.3,1-1.1,0.5c-1.4-0.4-0.8-1.3-1-2.5c-0.4-1.8-2.6-3.7-4.2-1.8c-0.9,1.1-0.9,3.2-1.1,4.5
			c0,0.2-0.3,1.9-0.3,1.9c-0.6,0.1-1.7-1.5-1.8-1.8c-0.3-1.1,0.1-2.6,0.1-3.7c-0.1-4.2-1.2-8.2-2.3-12.3c-0.9-3.1-1.8-5.7-4.2-8
			c-0.6-0.5-4.8-2.9-4.8-3.2c0.1-0.8,3,0.2,3.6,0.5c1.4,0.6,2.6,1.6,3.6,2.8C2.2-136.4,3.3-137.6,2.7-138.3z"/>
		<path class="st1" d="M4.1-123.7c0,0,11.3,1.9,12.6-0.7c0,0,1.8,6.4,0.2,10.6c-1.7,0.6-3.6,0.6-5.3,0c0,0,0.5-3.2-1.1-2.6
			c-1.6,0.5-1.6,3.7-1.6,3.7s-4.2,0.5-4.8-0.5S4.1-123.6,4.1-123.7z"/>
		<path class="st2" d="M-3.8-137.6c0,0,2.1-1.6,2.1-3.7c0,0,3.7,1.6,4.8,3.2c1.1,1.6,0.3-2.6,0.3-2.6l-1,0.4c0,0,0-2.1-0.9-2.6
			c-1.1-0.5,1.6-1.1,2.1-3.2c0,0,7.8,2,11.1,12.7c2.6,8.5,2.6,10.1,2.6,10.1c-4.5,1.4-9.2,1.7-13.8,1.1
			C3.6-122.3,3.6-131.8-3.8-137.6z"/>
		<path class="st0" d="M9-135.9c-2.1,1.3-4.8,0.7-6.2-1.3c-1.3-2.1-0.7-4.8,1.3-6.2c2.1-1.3,4.8-0.7,6.2,1.3
			C11.6-140.1,11-137.4,9-135.9"/>
	</g>
</g>
<g id="Layer_2_1_">
	<g id="Layer_1-2">
		<path class="st3" d="M58.2-117.9l-11.4,1.3c-0.7,0.1-1.5,0.3-1.6,0.9c-0.2,0.8,0.9,1.3,1.8,1.3c5,0.5,10.1-0.1,15-1.1
			c1-0.2,2.1-0.5,2.8-1.3s0.6-2.3-0.4-2.6c-0.5-0.1-0.9-0.1-1.4,0.1l-5.5,1.5"/>
		<path class="st3" d="M61.9-114.6c-0.5,0.5-0.6,1.2-0.3,1.8c0.4,0.7,1.3,0.9,2,0.5c0.5-0.3,0.8-0.9,0.7-1.5
			c-0.1-0.7-0.7-1.2-1.4-1.2c-0.4,0-0.8,0.3-0.8,0.8c0,0.4,0.3,0.7,0.8,0.8c-0.2,0,0.1,0,0,0s0,0,0,0h-0.1c0.1,0.1,0.1,0.1,0,0
			s0,0,0,0s0-0.1,0,0c0-0.1,0-0.2,0-0.1c0-0.1,0-0.1,0,0c0,0,0.2-0.1,0.1-0.1c-0.1,0.1,0.1,0,0,0s0.2,0,0,0H63c-0.1,0-0.1,0,0,0
			s0.2,0.1,0,0v0.1c0-0.1,0-0.1,0,0s0-0.1,0,0.1c0,0,0-0.2,0-0.1s0,0.1,0,0v0.1c0.1-0.1-0.1,0.1,0,0c0.3-0.3,0.2-0.8-0.1-1.1
			C62.6-114.9,62.2-114.8,61.9-114.6z"/>
		<path class="st3" d="M48.3-113.6c-0.5,0.5-0.6,1.2-0.3,1.8c0.4,0.7,1.3,0.9,2,0.5c0.5-0.3,0.8-0.9,0.7-1.5
			c-0.1-0.7-0.7-1.2-1.4-1.2c-0.4,0-0.8,0.3-0.8,0.8c0,0.4,0.3,0.7,0.8,0.8c-0.2,0,0.1,0,0,0s0,0,0,0h-0.1c0.1,0.1,0.1,0.1,0,0
			s0,0,0,0c0,0.1,0-0.1,0,0c0-0.1,0-0.2,0-0.1c0-0.1,0-0.1,0,0c0,0,0.2-0.1,0.1-0.1c-0.1,0.1,0.1,0,0,0s0.2,0,0,0h0.1
			c-0.1,0-0.1,0,0,0s0.2,0.1,0,0v0.1c0-0.1,0-0.1,0,0s0-0.1,0,0.1c0,0,0-0.2,0-0.1s0,0.1,0,0v0.1c0.1-0.1-0.1,0.1,0,0
			c0.2-0.3,0.1-0.8-0.2-1C48.9-113.8,48.6-113.8,48.3-113.6z"/>
		<path class="st0" d="M59.3-138.1c0.9-1.9,2-3.7,3.5-5.3c0.9-1,2.2-2,3.6-1.7c0.3,0,0.5,0.2,0.6,0.5s-0.2,0.6-0.4,0.8
			c-2.2,2.4-3.5,5.6-3.6,8.9l0.2,0.9c0,2.2,0.8,2.1,2.1,3.1s2.9,1.5,4.1,2.5c0.4,0.3,0.8,0.8,0.6,1.2c-0.2,0.4-1,0.4-1.5,0.2
			c-1.2-0.4-2.4-1.2-3.6-1.1c-1.2,0.1-2,0.1-2.6,1.2l-0.8,1c-1.3,2.2-2.4,4.5-3.4,6.9c-0.1,0.4-0.4,0.9-0.7,1.2
			c-0.3,0.3-0.9,0.4-1.3,0.1c-0.5-0.4-0.3-1.1-0.1-1.7c1.6-5.2,0.7-10.9-2.5-15.3l-0.7-0.4c-2.3-0.6-4.8-0.5-7,0.2
			c-0.3,0.1-0.7,0.2-0.9,0s-0.2-0.5-0.1-0.7c0.1-0.2,0.3-0.4,0.5-0.5c2.2-1.5,4.8-2.1,7.5-2"/>
		<path class="st0" d="M59.9-137.7c0.9-2,2.2-4.1,3.8-5.6c0.6-0.5,3.1-2.1,1.6-0.2c-0.5,0.6-1,1.3-1.4,2c-1.4,2.6-2.2,5.6-1.5,8.5
			c0.2,0.9,0.7,1.7,1.5,2.2c1.2,0.9,3.4,1.5,4.3,2.6c1.1,1.3-1.4-0.2-1.8-0.3c-0.8-0.2-1.6-0.3-2.3-0.2c-1,0.1-1.9,0.6-2.6,1.4
			c-0.9,1.1-1.7,2.3-2.3,3.6c-0.5,1.1-0.9,2.5-1.6,3.5c-0.8,1.1-1.2,1.5-0.8-0.1c0.8-3.5,0.6-7.3-0.7-10.6c-1.1-2.9-2.1-4.8-5.2-5.1
			c-0.5,0-5.6-0.2-5.6,0.6c0-0.2,3.3-1.3,3.6-1.3c1.2-0.3,2.5-0.4,3.7-0.3c1,0,1-1.5,0-1.5c-2.3-0.1-7.5,0.4-8.7,2.8
			c-1.4,2.9,3.5,1.4,4.3,1.3c1.2-0.1,3.1-0.4,4.1,0.3c0.7,0.4,1.2,1.3,1.5,2c1.1,2.1,1.8,4.5,1.9,6.9c0.1,2.3-0.6,4.2-0.9,6.3
			c-0.1,0.8,0,1.6,0.8,2c1,0.5,1.9-0.1,2.4-0.8c1.3-1.6,1.9-4.1,2.9-6c0.8-1.5,1.8-3.5,3.7-3.5c1.5,0,3.4,1.7,4.9,1.2
			c3.2-1.1-1.6-3.9-2.4-4.4c-1.6-0.9-3.2-1.6-3.4-3.6c-0.2-2.2,0.2-4.4,1.2-6.4c0.7-1.3,4.7-5.2,0.9-5.4c-3.5-0.2-6.1,4.8-7.4,7.4
			C58.2-137.6,59.5-136.8,59.9-137.7L59.9-137.7z"/>
		<path class="st4" d="M55.4-129.5L64-133c0.6,0.6,1.3,1.1,2,1.5c1.5,1,3.5,2.5,3.5,2.5c-0.3,1.2-1.3,2.2-2.5,2.5c0,0-2-1-3.5,0
			c-2.3,1.5-3,4.5-3,4.5l-0.5,1.5c0,0-3,1-4.5-1c0,0,0.5-4,0.5-5C55.8-127.5,55.7-128.5,55.4-129.5z"/>
		<path class="st5" d="M52.2-138.3c0,0-2-0.5-3.5,0c0,0,0.5,2.5,0,3.5c0,0,3,0,4.5,1c0,0,1.5,1.5,2,5c0,0,8-0.5,9.5-4
			c0,0-1.5-2-0.5-5.5s1.5-2.5,1.5-2.5c-1-1.5-2.7-2.3-4.5-2l-1.3,1.7l-2.7,3.3L52.2-138.3z"/>
		<path class="st0" d="M57.7-138.2c-2,1.2-4.6,0.6-5.9-1.3c-1.2-2-0.7-4.6,1.2-5.9c2-1.2,4.6-0.7,5.9,1.2
			C60.2-142.2,59.7-139.6,57.7-138.2"/>
	</g>
</g>
<g id="Layer_2_2_">
	<g id="Layer_1-2_1_">
		<path class="st0" d="M9-65.9c0.6-2.7,2-5.2,3.9-7.3c0.2-0.3,0.6-0.5,0.9-0.6c0.4-0.1,0.8,0.1,0.9,0.5c0,0.3-0.1,0.5-0.2,0.8
			c-2.1,3.5-3.5,6.2-3.4,10.3l0.5,1.7c2.6,5,1.7,10.9,1.1,16.5c0,0.9-0.3,1.9-0.7,2.7c-0.5,0.8-0.4,1.7-1.4,0.7
			c-0.3-1.7-1.5-3.3-2.6-4.6l-1,0.3c-0.5,1.4-1.1,2.3-1.6,4.4c-1,0.6-1.4,0.1-2.1-0.9s-0.8-2.2-0.8-3.4c-0.2-4.1,0.1-8.1,0.9-12.1
			L2-47.8c-1.8-1.4-2.1-4-1.9-6.3C0.3-57.2,1-60.2,2.3-63l0.8-1.5l4.1-2.6L9-65.9z"/>
		<path class="st0" d="M9.7-65.7c0.5-2,1.7-5.8,3.7-6.9c0.5-0.6,0.5-0.4-0.1,0.4c-0.3,0.5-0.6,0.9-0.8,1.4c-0.4,0.7-0.8,1.5-1.1,2.3
			c-1.1,2.5-1.6,5.4-0.6,8c0.8,2.3,1.5,4.1,1.7,6.6c0.1,2.1,0,4.2-0.2,6.2c-0.1,0.6-0.9,7-1.4,6.8c0.5,0.3-0.4-2.1-0.5-2.2
			c-0.5-0.9-1.1-1.7-1.7-2.5C8.5-45.9,8.2-46,7.8-46c-0.7,0.2-1.1,0.3-1.5,0.8c-0.8,1-0.9,4.9-2.5,2.8c-1.1-1.5-0.6-4.9-0.5-6.7
			c0.1-2.6,0.4-5.2,0.9-7.7l-1.5-0.4l-1.4,9.1l1.3-0.3c-2.4-2.3-1.8-6.2-1.2-9.1c0.4-1.9,1.2-5.2,2.3-6.4c0.4-0.5,2.3-1.3,3.1-1.9
			C7-66,7.3-66.1,7.5-66.2c0.5-0.3-0.8-0.3-0.3,0c0.5,0.4,1,0.7,1.6,1.1c0.8,0.6,1.6-0.8,0.8-1.3l-1.8-1.3c-0.2-0.1-0.5-0.1-0.8,0
			c-1.3,0.7-2.5,1.5-3.7,2.3c-1,0.7-1.4,1.8-1.9,2.9C-0.4-58.2-2.3-51,1.6-47.2c0.3,0.3,0.8,0.3,1.1,0c0.1-0.1,0.2-0.2,0.2-0.3
			l1.4-9.1C4.4-57.6,3-58,2.8-57c-0.6,3.1-1,6.3-1,9.5c0,2.3-0.2,5.2,1.4,7.1c0.7,0.8,1.9,1.5,2.9,0.5c1.1-1.2,0.6-4,2.3-4.5
			l-0.9-0.4c0.5,0.6,0.9,1.2,1.3,1.9c0.5,0.8,0.7,1.9,1.1,2.6c0.2,0.5,0.6,0.8,1.1,0.9c1.4,0.2,2-1.9,2.3-3c0.8-2.8,0.8-6.3,0.8-9.2
			c0.1-2.9-0.4-5.8-1.5-8.5c-1-2.5-0.9-4.7,0-7.2c0.6-1.7,1.8-3.1,2.5-4.7c0.2-0.5,0.5-1,0.2-1.5c-0.6-1.4-2.2-0.7-3,0
			c-2.1,1.9-3.4,4.9-4.1,7.6c-0.1,0.4,0.1,0.9,0.5,1C9.2-65,9.6-65.3,9.7-65.7z"/>
		<path class="st6" d="M1.8-53.5c0,0-0.5,8.2,0.5,10.8c0.6,1.5,4.1,0.5,4.1,0.5l1-2.1c0,0,1-0.5,1.5,1.5c0.3,1.1,4.1,0,4.1,0
			s2.1-7.2,0.5-13.4L1.8-53.5z"/>
		<path class="st7" d="M3.3-65.9L9.4-69l1.1-2.6c0,0,1.5,2.1,3.1,2.1c0,0-2.1,2.6-2.1,5.7s1.2,4.6,1.2,4.6s1.4,3.1,1.4,5.7
			S1.8-52,1.8-52v-3.6c0,0-2.6,0.5-2.6-0.5c0,0,2.2-7.1,2.6-7.7C2.2-64.6,2.7-65.3,3.3-65.9z"/>
		<path class="st0" d="M7.5-65.3c-2,1.2-4.7,0.7-6-1.3c-1.2-2-0.7-4.7,1.3-6.1c2-1.2,4.7-0.7,6.1,1.2C10-69.3,9.5-66.7,7.5-65.3"/>
	</g>
</g>
<g id="Layer_2_4_">
	<g id="Layer_1-2_3_">
		<path class="st8" d="M52.3-64.3c2.2,6.2,6.9,11.3,12.9,14c-1.7-3.2-5.5-4.7-8.1-7.3c-2.4-2.5-3.5-5.9-4.6-9.2L51.2-65"/>
		<path class="st8" d="M56.9-66.2l1.5,8.1c0,0.5,0.2,0.9,0.5,1.3c0.3,0.4,0.8,0.5,1.2,0.2c0.2-0.3,0.4-0.7,0.3-1c0-3.5-0.8-7-2.5-10
			"/>
		<path class="st8" d="M63.2-73.5c2.7,12.9,3.5,26.2,2.3,39.3c-0.1,1.3-0.3,2.7-1.1,3.8c-1.4,1.7-3.8,1.9-5.5,0.6l0,0
			C64-40.7,65.1-53,62-64.7c-0.5-2-1.2-3.9-1.2-5.9s0.8-4.2,2.5-5.2"/>
		<path class="st9" d="M49.1-70.8c-2.1-0.2-4.2,0-6.2,0.6c-0.8,0.3-1.7,0.7-2.1,1.5c-0.5,1.2,0.4,2.6,1.5,3.4c1.8,1.4,4.1,2.1,6.4,2
			c0.8,0,1.6-0.2,2.3-0.7c0.7-0.5,1.1-1.3,0.9-2.2c2,0.2,4,0,5.9-0.7c1-0.3,2.1-1.1,1.8-2.1c-0.2-0.8-1.2-1.1-2-1.2
			s-1.8-0.1-2.3-0.7S55-72.5,55-73.4s-0.2-1.9-1.1-2.1c-1-0.2-1.6,1-2.3,1.7c-0.7,0.6-1.6,0.6-2.5,0.8c-0.9,0.2-1.8,0.5-2.2,1.3
			s0.4,2,1.2,1.7"/>
		<path class="st9" d="M61.6-83.3l-4.1,0.2c0.6,0.5,0,1.6-0.7,1.8c-0.7,0.2-1.6,0-2.3,0.1c-0.8,0.1-1.6,0.7-1.4,1.5
			c0.2,0.5,0.7,0.7,1.2,0.9l5,1.9l-3.8,1.2c-0.2,0-0.4,0.2-0.6,0.4c-0.2,0.3,0,0.7,0.3,0.9c0.3,0.2,0.7,0.2,1,0.2h6
			c1,0,2.2-0.1,2.6-1c0.6-1.1-0.6-2.3-1.6-3.1l4-2.8c0.3-0.2,0.6-0.4,0.5-0.8c0-0.3-0.4-0.6-0.8-0.7c-2.2-0.7-4.5-1-6.7-0.8"/>
		<path class="st9" d="M68.6-66.5L62-65.3c-1.8,0.3-3.8,0.8-4.9,2.3c-1.2,1.6-0.9,4,0.8,5.2c0.7,0.5,1.5,0.7,2.3,0.7l-0.9,1.7
			l8.9,0.3c1.1,0,2.5-0.2,2.7-1.2c0.3-1.2-1.3-2.4-0.8-3.5s2.1-0.8,3.1-1.4c1-0.6,1-2.3,0.2-3.3c-0.8-0.9-2.1-1.3-3.3-1.5
			c-1.2-0.1-2.5-0.1-3.7-0.5"/>
		<path class="st9" d="M69.7-72.2c-2.1-1.6-4.8-2-7.3-1c-1,0.4-1.9,1-2.3,2s0,2.3,0.9,2.7c1,0.4,2.3-0.2,3.1,0.5
			c0.6,0.6,0.4,1.5,0.5,2.3c0.2,2,2.1,3.4,4.1,3.5s3.8-1.2,4.8-2.9c0.4-0.7,0.7-1.4,1.3-2c0.5-0.4,1-0.7,1.4-1.2
			c0.6-0.9,0.3-2.3-0.6-3.1c-0.8-0.8-2-1.1-3-1.4c-1.1-0.3-2.2-0.6-3.1-1.3"/>
	</g>
</g>
<g id="Layer_2_7_">
	<g id="Layer_1-2_6_">
		<rect x="94.1" y="-68" class="st10" width="0.9" height="25.6"/>
		<polygon class="st11" points="95,-66.6 127.4,-66.6 122.6,-61.2 127.7,-57 95,-57 		"/>
	</g>
</g>
<g id="Layer_2_6_">
	<g id="Layer_1-2_5_">
		<rect x="101.2" y="-135" class="st10" width="0.5" height="14.2"/>
		<polygon class="st11" points="101.7,-134.2 119.6,-134.2 117,-131.2 119.8,-128.9 101.7,-128.9 		"/>
	</g>
</g>
<g id="Layer_2_5_">
	<g id="Layer_1-2_4_">
		<path class="st3" d="M28.9,60.6c-0.3-1,1.4-6.1,1.6-7.4c0.5-2.7,0.9-5.5,1.2-8.3c0.6-5.6,0.9-11.3,0.7-16.9
			c-0.1-4.1,0.2-10.5-0.8-14.3c-1-3.5-3.9-4.9-5.5-1.5c-0.7,1.7-0.8,3.8-0.8,5.8C25.3,32.5,25.2,47.3,28.9,60.6z"/>
		<path class="st3" d="M25.7,30.8c-7,2.7-14.1,5.2-21.2,7.6C4.4,36.2,6.4,34.8,8,34l18-9.6"/>
		<path class="st3" d="M31.9,30.8c7,2.7,14.1,5.2,21.2,7.6c0.1-2.2-1.8-3.6-3.5-4.4l-17.9-9.5"/>
		<path class="st3" d="M27.7,50.6l0.1,5.2l-4.4,0.8v-2.5c1.6-1,3.1-2.3,4.3-3.8"/>
		<path class="st3" d="M29.4,50.6L29.3,56l4.4,0.8v-2.6c-1.6-1.1-3.1-2.4-4.3-3.9"/>
	</g>
</g>
<g>
	<g>
		<path class="st0" d="M-45.6-107.4c-0.1,0.7-0.1,1.5,0.4,2c0.7,0.8,2.1,0.4,2.8-0.4c0.7-0.8,0.8-1.9,1-3c0.2-1,0.7-2.1,1.6-2.6
			c4.7-2.4,4.9,8.5,8.8,6.1c1.3-0.8,0.9-2.7,0.5-4.2c-1.6-5-2.1-10.1-2.2-15.3c-0.2-5.1,1.2-10.3,1.8-15.4c0.1-1,0-2.4-1-2.7
			c-0.7-0.2-1.4,0.3-1.9,0.8c-2.1,2.2-3.2,6.7-4.3,9.6c-0.9,0-1.6-0.5-2-1.3c-0.4-0.7-0.6-1.6-0.7-2.4c-0.3-1.7-0.6-3.3-0.9-5
			c-0.2-1.1-0.7-2.5-1.8-2.7c-0.9-0.1-1.7,0.7-1.9,1.6c-0.6,2.7,0.4,6.4,0.7,9.2c0.4,3.3,0.7,6.6,0.7,9.9
			C-44.2-117.9-45.2-112.6-45.6-107.4z"/>
	</g>
	<g>
		<path class="st12" d="M-44.8-116c0.7-0.2,1.4,0.5,1.5,1.2c0.1,0.7,0,1.4,0,2.2c0,0.7,0.2,1.5,0.9,1.9c0.6,0.3,1.2,0,1.8-0.1
			c2.2-0.6,4.6-0.6,6.8,0.2c-0.2-1.8-0.1-3.6,0.4-5.3c0.3-1,0.7-2,0.9-3s0-2.2-0.8-2.9c-0.8-0.8-2.1-0.8-3.2-0.8c-2,0-4.1,0-6.1,0
			c-0.7,0-1.5,0-2,0.5c-0.7,0.6-0.6,1.7-0.4,2.6s0.5,1.9,0.1,2.7"/>
		<g>
			<path class="st13" d="M-44.8-115.1c1,0.1,0.4,4.4,2.1,5.2c0.8,0.4,1.6,0.1,2.4-0.1c2.3-0.4,4.2-0.5,6.4,0.2
				c0.5,0.1,1.1-0.3,1-0.8c-0.2-2,0-3.8,0.6-5.8c0.4-1.2,0.9-2.4,0.7-3.7c-0.3-2.1-1.8-3.1-3.8-3.3c-1.6-0.1-3.3,0-5-0.1
				c-1.2,0-2.7-0.2-3.9,0.2c-2.9,1.1-0.8,4.2-1.4,6.2c-0.3,1,1.3,1.4,1.6,0.4c0.5-1.8-1-4.3,1.6-5.3c0.8-0.3,2.2,0,3,0c1,0,2,0,3,0
				c1.5,0.1,2.9,0.5,3.2,2.3c0.2,1-0.7,2.5-0.9,3.4c-0.5,1.8-0.6,3.6-0.4,5.5c0.3-0.3,0.7-0.5,1-0.8c-1.5-0.4-2.9-0.7-4.5-0.6
				c-0.7,0-1.2,0.2-1.9,0.2c-0.6,0.3-1.2,0.3-1.7-0.3c-0.8-0.1-1.1-0.5-0.8-1.2c-0.4-1.7,0-3.4-2.4-3.5
				C-45.9-116.8-45.9-115.2-44.8-115.1L-44.8-115.1z"/>
		</g>
	</g>
	<g>
		<path class="st0" d="M-36.1-109.6c-2,1.3-5.1,0.7-6.4-1.4c-1.3-2.1-0.7-5.1,1.3-6.4s5.1-0.7,6.4,1.3C-33.4-114-34-111-36.1-109.6"
			/>
	</g>
	<g>
		<path class="st14" d="M-43.8-127.8c3.7-0.2,7.3,0,10.9,0.6c0.1-2.5,0.5-5,1.1-7.4c-0.6-0.5-1.1-1-1.8-1.3c-2.5-1-2.6,2-4.6,2.2
			c-1.8,0.2-2.9-1.9-2-3.4c-1.6,0.1-3.2,0.3-4.8,0.4c0.3,3.1,0.7,6.2,1.2,9.3"/>
		<g>
			<path class="st14" d="M-43.8-127c3.6-0.2,7.2,0,10.7,0.6c0.5,0.1,1-0.2,1-0.8c0.2-2.4,0.5-4.8,1.1-7.2c0.1-0.3,0-0.6-0.2-0.8
				c-1.1-0.9-2.4-2.1-4-1.6c-0.5,0.1-0.9,0.5-1.3,0.8c-0.2,0.2-0.4,0.6-0.6,0.7c-1.1,0.6-3,0.2-2.3-1.6c0.2-0.5-0.3-1.1-0.8-1
				c-1.6,0.1-3.2,0.3-4.8,0.4c-0.4,0-0.9,0.4-0.8,0.8c0.3,3.1,0.7,6.2,1.2,9.3c0.1,1,1.8,1,1.6,0c-0.4-3.1-0.8-6.2-1.2-9.3
				c-0.3,0.3-0.5,0.5-0.8,0.8c1.6-0.1,3.2-0.3,4.8-0.4c-0.3-0.3-0.5-0.7-0.8-1c-0.9,2.3,0.8,5.3,3.5,4.3c0.4-0.2,0.8-0.5,1.2-0.8
				c0.2-0.2,0.4-0.6,0.7-0.7c0.5-0.3,1.7-0.7,2.3-0.3c1.2,0.8-0.3,6.1-0.4,7.6c0.3-0.3,0.7-0.5,1-0.8c-3.7-0.6-7.4-0.8-11.1-0.6
				C-44.8-128.6-44.9-127-43.8-127L-43.8-127z"/>
		</g>
	</g>
</g>
<g>
	<g>
		<path class="st0" d="M-47.1-76.3c-1.1,1.3-2.3,2.7-3,4.3s-0.9,3.5-0.1,5.1c0.5,1,1.3,1.8,1.9,2.7c1.9,3.2,0.6,7.3,1.2,10.9
			c0.1,0.6,0.3,1.2,0.7,1.6c0.7,0.6,1.9,0.3,2.5-0.5c0.6-0.7,0.7-1.8,0.8-2.7c0.1-2.6,1.3-4.6,4.2-2.8c1.1,0.7,2,1.8,3.1,2.6
			s2.6,1.2,3.7,0.4c1.1-0.8-2-4.4-2.5-4.9c-1.5-1.2-3.7-1.4-2.2-4c0.4-0.7,1.1-1.1,1.6-1.7c1.4-1.7,1.2-4.3,0-6.2
			c-1.1-1.9-3-3.2-4.8-4.4"/>
	</g>
	<g>
		<path class="st14" d="M-34.4-69.2c-1.1-1-0.1-3.9-2-5.3c-1.4-1-3.4-1-5.1-0.9c-1.9,0-4.3,0-5.9,0.8c-1.9,1-4.2,4-2.5,6.1
			c0.6,0.8,1.9,0.2,2.8,0.6c1,0.5,1,1.9,0.7,2.9s-0.9,2.1-0.6,3.2c1.5,5.1,10.1-1.3,10.6,0.1C-36.9-63.1-38.5-73-34.4-69.2z"/>
		<g>
			<path class="st14" d="M-33.7-69.6c-1.3-1.8-0.3-4.1-2.3-5.6c-2-1.4-5-1.1-7.2-1c-3.4,0.1-9.9,2.7-7.9,7.4
				c0.4,0.9,0.7,0.9,1.4,1.4c0.3,0.2,0.8,0,1,0.1c2.5,1.8,1,2.2,0.8,4.1c-0.2,1.5,0.4,3,1.8,3.7c1.4,0.7,3,0.4,4.4,0
				c0.5-0.1,4.6-1.9,4.7-1.8c0.5,0.6,1.6,0,1.4-0.8c-0.4-1.1-0.5-2.4-0.6-3.6c-0.1-1-0.5-4.5,1.2-3.1c0.8,0.7,2-0.5,1.2-1.2
				c-5-4.2-4.2,5.7-3.3,8.2c0.5-0.3,0.9-0.5,1.4-0.8c-1-1.2-3.7,0.4-4.7,0.8c-1.2,0.4-3.1,1.3-4.3,0.9c-2.6-0.8-0.3-4.3-0.7-6.2
				c-0.3-1.5-1.1-1.3-2.1-2c-1-0.7-3.3,2.1-1.7-2.7c0.5-1.5,2.3-2.5,3.7-2.8c1.8-0.4,5.6-0.7,7.4-0.1c3.3,1.1,1.7,3.6,3.1,5.6
				C-34.5-68-33.1-68.8-33.7-69.6z"/>
		</g>
	</g>
	<g>
		<path class="st0" d="M-41.1-75c-2,1.3-5.1,0.7-6.4-1.4c-1.3-2.1-0.7-5.1,1.3-6.4c2-1.3,5.1-0.7,6.4,1.3S-39-76.4-41.1-75"/>
	</g>
	<g>
		<path class="st15" d="M-47.1-60.9c-0.1,2.1-0.2,4.2-0.2,6.2c1.4,0.1,2.7,0.2,4.1,0.4c0.3,0,0.2-4.8,3.6-3.6
			c1.6,0.6,2.8,2.4,4.4,2.1c1.4-0.3,2-2,1.5-3.4c-0.5-1.3-1.7-2.2-2.8-3"/>
	</g>
	<g>
		<path class="st16" d="M-30.5-56.3c-1.6,0.5-2.8,2.3-2.4,3.9c0.3,1.7,2,2.9,3.7,2.8c1.7-0.2,3.1-1.7,3.1-3.4s-1.4-3.3-3.1-3.4"/>
	</g>
</g>
<g>
	<path class="st0" d="M-55.4-8.2c-2,1.3-5.1,0.7-6.4-1.4s-0.7-5.1,1.3-6.4s5.1-0.7,6.4,1.3S-53.3-9.6-55.4-8.2"/>
</g>
</svg>
