<?xml version="1.0" encoding="utf-8"?>
<!-- Generator: Adobe Illustrator 22.0.1, SVG Export Plug-In . SVG Version: 6.00 Build 0)  -->
<svg version="1.1" id="Layer_1" xmlns="http://www.w3.org/2000/svg" xmlns:xlink="http://www.w3.org/1999/xlink" x="0px" y="0px"
	 viewBox="0 0 57.9 71.3" style="enable-background:new 0 0 57.9 71.3;" xml:space="preserve">
<style type="text/css">
	.st0{fill:#F4C498;}
	.st1{fill:#0000FF;stroke:#0000FF;stroke-width:0.5292;stroke-miterlimit:10;}
	.st2{fill:#EFE811;}
	.st3{fill:#5D605C;}
	.st4{fill:#0B4BAA;}
	.st5{fill:#FC3FF3;}
	.st6{fill:#0000FF;stroke:#0000FF;stroke-width:0.5143;stroke-miterlimit:10;}
	.st7{fill:#F15A24;stroke:#F15A24;stroke-width:0.5143;stroke-miterlimit:10;}
	.st8{fill:#6D392C;}
	.st9{fill:#187C11;}
	.st10{fill:#606060;}
	.st11{fill:#8EEFE6;}
	.st12{fill:#7A0C7A;}
	.st13{fill:#7478C4;}
	.st14{fill:#7678B9;}
	.st15{fill:#0000FF;}
	.st16{fill:#F15A24;}
	.st17{fill:#484C75;}
	.st18{fill:#F3C498;}
</style>
<g>
	<g>
		<path class="st0" d="M27,27.8c-1.4-2.3-3.5-4.3-5.9-5.5c-0.8-0.4-1.6-0.7-2.5-0.7S17,22.4,17,23.2c0,1.3,1.4,1.9,2.6,2.4
			c3.8,1.8,6.4,6,6.2,10.3c-0.1,2.8-1.3,6,0.5,8.2c1.3,1.6,3.7,1.8,5.8,1.9c1.4,0.1,2.9,0.1,4-0.8c1-0.9,1.3-2.4,1.3-3.7
			c0.1-4.4-1.1-8.8-3.5-12.5"/>
	</g>
	<g>
		<path class="st0" d="M26.8,45.4c-0.8,3.4-1.3,6.9-1.5,10.3c-0.1,1,0.1,2.3,1.1,2.5c0.8,0.2,1.5-0.5,2-1.2c1.7-2.5,2.8-5.3,3.2-8.2
			c0-0.2,0.1-0.5,0.2-0.7c0.3-0.3,0.8-0.1,1.1,0.3c0.2,0.4,0.2,0.8,0.2,1.2c0,1.3,0.1,12.2,2.7,8c0.9-1.5,1-4.8,1.3-6.5
			c0.4-2.7,0.4-5.7,0.2-8.5"/>
	</g>
	<g>
		<path class="st12" d="M26.6,43.3c-1.5,3.8-2.5,7.9-2.9,11.9c1.4-1.3,3.6-1.2,5.5-0.7s3.8,1.2,5.7,0.9c1-0.2,1.9-0.6,3-0.7
			s2.2,0.2,2.6,1.1c0.7-2.7,0.5-5.6-0.6-8.2c-0.4-1-1-2-1.3-3.1c-0.3-1.1-0.4-2.3,0.2-3.3"/>
	</g>
	<g>
		<path class="st2" d="M38.8,36.5c-0.6-1.7-3.1-7.7-5.1-7.8c-0.6,0-1.1,0.2-1.6,0.4c-1.6,0.5-3.4,0.2-4.8-0.6s-2.4-2.4-2.6-4
			c-1.6-0.3-4.8-0.7-3.7,2.2c0.4,1,1.2,1.7,1.9,2.5c2.8,3.3,2.9,7.6,2.8,11.7c0,1,0,2.2,0.8,3c1,1.1,2.9,1.1,4.5,1.1
			c2-0.1,4.1-0.2,5.7-1.1C39.3,42.2,39.7,39,38.8,36.5z"/>
	</g>
	<g>
		<path class="st0" d="M32.4,29.3c-2,1.3-5.1,0.7-6.4-1.4s-0.7-5.1,1.3-6.4s5.1-0.7,6.4,1.3S34.5,27.9,32.4,29.3"/>
	</g>
	<g>
		<g>
			<path class="st13" d="M32.2,45.9c-0.1-1.1,0.5-2.4,1.8-2.6c1.2-0.1,2.2,1,2.2,2.2c0,1.1,1.6,1.1,1.6,0c0-2.1-1.7-3.9-3.9-3.8
				c-2.1,0.1-3.7,2.2-3.5,4.2C30.7,46.9,32.3,46.9,32.2,45.9L32.2,45.9z"/>
		</g>
	</g>
	<g>
		<path class="st13" d="M29.5,45.7c3,0.7,6.2,0.7,9.2,0c-0.9,1.8-0.1,4.1-0.8,5.9c-0.6,1.5-2.2,2.5-3.8,2.5c-1.6,0-3.2-0.9-4-2.3
			s-0.9-3.2-0.3-4.7"/>
	</g>
	<g>
		<path class="st0" d="M33.6,36.2c0.3-0.7,1.5-0.5,1.9,0.1c0.4,0.6,0.3,1.5,0.2,2.2c-0.1,1.1-0.3,2.2-0.4,3.3
			c-0.1,0.5-0.1,1-0.4,1.4c-0.2,0.4-0.7,0.7-1.2,0.6c-0.8-0.1-1-1.2-1-2.1c0-1.8,0-3.6,0-5.4"/>
	</g>
</g>
</svg>
