<?xml version="1.0" encoding="utf-8"?>
<!-- Generator: Adobe Illustrator 22.0.1, SVG Export Plug-In . SVG Version: 6.00 Build 0)  -->
<svg version="1.1" id="Layer_1" xmlns="http://www.w3.org/2000/svg" xmlns:xlink="http://www.w3.org/1999/xlink" x="0px" y="0px"
	 viewBox="0 0 57.9 71.3" style="enable-background:new 0 0 57.9 71.3;" xml:space="preserve">
<style type="text/css">
	.st0{fill:#F4C498;}
	.st1{fill:#0000FF;stroke:#0000FF;stroke-width:0.5292;stroke-miterlimit:10;}
	.st2{fill:#EFE811;}
	.st3{fill:#5D605C;}
	.st4{fill:#0B4BAA;}
	.st5{fill:#FC3FF3;}
	.st6{fill:#0000FF;stroke:#0000FF;stroke-width:0.5143;stroke-miterlimit:10;}
	.st7{fill:#F15A24;stroke:#F15A24;stroke-width:0.5143;stroke-miterlimit:10;}
	.st8{fill:#6D392C;}
	.st9{fill:#187C11;}
	.st10{fill:#606060;}
	.st11{fill:#8EEFE6;}
	.st12{fill:#7A0C7A;}
	.st13{fill:#7478C4;}
	.st14{fill:#7678B9;}
	.st15{fill:#F3C498;}
	.st16{fill:#0000FF;}
	.st17{fill:#F15A24;}
	.st18{fill:#484C75;}
</style>
<g>
	<g>
		<path class="st0" d="M28.1,29.3c1.8-3.1,5.9-4.5,9.4-3.5c3.5,1,6.1,4.2,6.9,7.7c0.9,3.5,0.1,7.3-1.5,10.5
			c-0.3,0.6-0.9,1.2-1.4,0.9c-0.3-0.2-0.4-0.5-0.5-0.8c-0.6-2.3-1.2-4.6-1.9-6.8c-0.4,2.3-0.8,4.6-1.2,6.9c-0.1,0.3-0.1,0.7-0.4,0.9
			c-1.9,1.6-2.2-6.5-2.9-7.3c-2-2.7-6.1-0.8-8.1,1c-0.6,0.5-1.1,1.1-1.8,1.4c-0.7,0.3-1.6,0.3-2-0.4c-0.5-0.8,0-1.8,0.6-2.6
			c1.2-1.4,2.5-2.7,3.9-3.8"/>
		<g>
			<path class="st15" d="M28.8,29.8c4.5-6.5,13.2-2.6,14.8,4c0.5,1.9,0.8,5.9-0.5,7.5c-1.5,2-1.9,0.7-2.4-0.9
				c-0.3-1.1-0.6-2.3-0.9-3.4c-0.2-0.7-1.4-0.8-1.6,0c-0.3,1.5-0.2,4.9-1.1,6.2c-0.7,1.1-0.7-0.4-0.9-1.5c-0.3-1.7-0.2-3.7-1.5-4.9
				c-1.5-1.5-3.7-1.4-5.5-0.7c-0.9,0.3-1.8,1.2-2.7,1.5c-0.6,0.2-1.9,0.7-1.9-0.8c0-0.6,2.7-2.4,3.1-2.8c0.8-0.7-0.3-1.8-1.2-1.2
				c-1.5,1.2-6.8,5.1-4.4,7.7c3.6,3.8,8.9-8.8,12-0.9c0.6,1.4,0.2,6,2.3,6.5c3.1,0.7,3-7,3.3-8.6c-0.5,0-1.1,0-1.6,0
				c0.7,2.5,1.1,5.6,2.4,7.9c0.2,0.3,0.6,0.4,0.9,0.4c2.6-0.4,3.4-4.6,3.8-6.8c0.5-3.6-0.2-7.3-2.5-10.1c-4.1-5.2-11.7-5.3-15.5,0.2
				C26.8,29.8,28.2,30.6,28.8,29.8L28.8,29.8z"/>
		</g>
	</g>
	<g>
		<path class="st17" d="M25.3,34.5c1,1.2,1.9,2.5,2.6,3.9c0.7-1.3,1.7-2.4,2.9-3.2c0.7-0.5,1.6-0.8,2.4-0.4c2.2,1,0.8,4.3,4.3,4
			c2.7-0.2,4.2-0.7,6.5-2.2c0.6-0.4,1.2-0.8,1.5-1.5c0.4-0.8,0.2-1.8-0.1-2.7c-1-2.9-3.4-5.3-6.3-6.3c-2.9-1-6.3-0.5-8.8,1.1"/>
		<g>
			<path class="st17" d="M24.8,35.1c1,1.2,1.7,2.4,2.4,3.7c0.3,0.6,1.1,0.5,1.4,0c1.5-2.6,2.8-3.9,5.5-1.3c0.3,0.3,0.4,0.9,0.7,1.2
				c0.8,0.8,1.7,0.9,2.8,0.9c2.9,0.1,8-1.7,8.9-4.8c0.9-3-2-6.6-4.3-8.2c-3.7-2.6-8.3-2.4-12.2-0.2c-0.9,0.5-0.1,1.9,0.8,1.4
				c2.5-1.4,5.4-2,8.2-1.1c2,0.7,5.6,3.3,5.7,5.7c0.1,3.1-2.5,4.4-5,5.1c-2.6,0.7-3.2-0.4-4.6-2c-2.8-3.3-6-0.8-7.9,2.4
				c0.5,0,0.9,0,1.4,0c-0.8-1.5-1.7-2.8-2.7-4.1C25.3,33.1,24.1,34.3,24.8,35.1L24.8,35.1z"/>
		</g>
	</g>
	<g>
		<path class="st0" d="M28.7,33.2c-2,1.3-5.1,0.7-6.4-1.4c-1.3-2-0.7-5.1,1.3-6.4s5.1-0.7,6.4,1.3C31.4,28.7,30.8,31.7,28.7,33.2"/>
	</g>
	<g>
		<path class="st13" d="M19.3,43.2c-0.7-0.5-1.7-0.4-2.2,0.2c-0.5,0.6-0.4,1.7,0.4,2.1c0.7,0.4,1.8-0.2,1.8-1
			c-0.4,0.8,0.5,2,1.4,1.8c0.9-0.2,1.3-1.5,0.6-2.2c0.4,0.7,1.4,0.9,2,0.5c0.6-0.5,0.7-1.5,0.2-2.1c-0.6-0.6-1.6-0.5-2.1,0.2
			c0.6-0.5,0.4-1.7-0.3-1.9s-1.6,0.7-1.3,1.4c-0.2-0.7-1.3-0.9-1.7-0.3s0.3,1.6,1,1.4"/>
	</g>
	<g>
		<g>
			<path class="st13" d="M46.1,33.7c-2.8,3.4-7.3,4.6-11.4,3c-0.5-0.2-0.7,0.6-0.2,0.8c4.4,1.6,9.2,0.3,12.2-3.3
				C47,33.9,46.4,33.3,46.1,33.7L46.1,33.7z"/>
		</g>
	</g>
	<g>
		<path class="st2" d="M13.3,43.5c-0.4-0.4-1.2-0.3-1.6,0.2c-0.3,0.5-0.1,1.3,0.5,1.5s1.3-0.1,1.4-0.7c-0.5,0.3-0.8,0.9-0.6,1.4
			c0.1,0.5,0.8,0.9,1.3,0.7c0.5-0.2,0.6-1,0.2-1.4c0.6,0.3,1.3,0.5,1.9,0.4c0.7-0.1,1.3-0.6,1.2-1.3c-0.7,0-1.4,0-2.1-0.1
			c0.5-0.5,0.2-1.6-0.5-1.8c-0.7-0.2-1.5,0.6-1.3,1.3"/>
	</g>
</g>
</svg>
