<svg xmlns="http://www.w3.org/2000/svg" viewBox="0 0 47.82 70.93"><defs><style>.cls-1{fill:#f4c498;}.cls-2{fill:blue;stroke:blue;stroke-miterlimit:10;}.cls-3{fill:#efe811;}</style></defs><title>Asset 20</title><g id="Layer_2" data-name="Layer 2"><g id="Layer_1-2" data-name="Layer 1"><path class="cls-1" d="M18.26,16.78A17.86,17.86,0,0,0,3.55,9.53a2.47,2.47,0,0,0-1.74.54A1.86,1.86,0,0,0,2,12.52a6.56,6.56,0,0,0,2.32,1.35,25.24,25.24,0,0,1,13.16,13l.78,2.72c3,10.71,6,19.67,5.28,30.77-.15,2.17-.41,4.48.56,6.43s3.77,3.16,5.39,1.7l1.86-10.85c.21-1.24.52-2.63,1.6-3.27,1.75-1,4,.8,4.43,2.78s0,4.07.4,6.06,2.42,4,4.27,3.14c1.17-.52,1.65-1.9,2-3.14a58.35,58.35,0,0,0-7.69-46.35S30.91,5.67,24,3.9c-1.84-.47-3.36-1.83-5.21-2.23a6.69,6.69,0,0,0-5.42.94,1.19,1.19,0,0,0-.57.84c0,.74,1,1,1.69,1.1a7.12,7.12,0,0,1,4.68,2.87l1.9,6.7Z"/><path class="cls-1" d="M19.32,15.72A20,20,0,0,0,10,9c-2.35-.8-6.8-2.06-9-.26a3.36,3.36,0,0,0-.25,4.65c1,1.23,2.74,1.68,4.07,2.35a24.46,24.46,0,0,1,6.7,4.93c5.79,6.05,7.36,15.81,9.08,23.7a62,62,0,0,1,1.37,16c-.14,3.3-.44,7.11,2.62,9.24,8.21,5.73,6-8.7,8.13-11.56l.28-1.25q3.4-.55,3,2.07c.37,1.08,0,2.47.17,3.6a6.79,6.79,0,0,0,1.43,3.72,4.32,4.32,0,0,0,5.17,1.47c2.7-1.31,3.08-5.46,3.55-8a59.45,59.45,0,0,0,.91-14A60.31,60.31,0,0,0,40.49,21c-2.87-5.48-6.22-11.73-11-15.72-4.09-3.39-14-8.39-18-2.55a1.46,1.46,0,0,0,0,1.51c1.14,1.62,1.84,1.38,3.72,2.2,2.53,1.1,2.66,2,3.32,4.31.28,1,1.13,2.63,1,3.65.19-2.14-1.36.4-2.37,1.36-1.41,1.33.72,3.45,2.12,2.12l2.8-2.66a1.49,1.49,0,0,0,.39-1.46c-.8-2.82-1.09-6.48-3.37-8.53-.83-.75-2.15-1-2.9-1.74l-.68-.17C14.07,3,14.67,2.87,17.37,3a16.82,16.82,0,0,1,3.9,1.39c3.16,1.25,5.84,2.47,8.21,5,8.74,9.39,14.07,23.66,14.77,36.24a55.75,55.75,0,0,1-.66,12.44A14.27,14.27,0,0,1,43,61.24c-.8,1.65.61,1.85-2.12,1s-1.44-2.39-1.92-4.76C38.21,54,34,50.49,31,54.17c-1.68,2.1-1.64,6-2.07,8.5-.08.47-.51,3.58-.62,3.61-1.06.25-3.26-2.78-3.44-3.45-.53-2,.27-4.84.22-7-.18-7.93-2.28-15.57-4.43-23.15-1.65-5.85-3.42-10.84-8-15.15-1.12-1-9-5.49-9-6,.13-1.47,5.62.43,6.79,1a17.66,17.66,0,0,1,6.72,5.37C18.4,19.35,20.51,17.21,19.32,15.72Z"/><path class="cls-2" d="M22,43.37S43.43,47,45.75,42.07c0,0,3.31,12,.31,20a14.82,14.82,0,0,1-10,0s1-6-2-5-3,7-3,7-8,1-9-1S21.87,43.62,22,43.37Z"/><path class="cls-3" d="M7.06,17.12s4-3,4-7c0,0,7,3,9,6s.65-4.94.65-4.94L18.79,12s.06-4-1.73-4.87c-2-1,3-2,4-6,0,0,14.68,3.78,21,24,5,16,5,19,5,19a59.86,59.86,0,0,1-26,2S21.06,28.12,7.06,17.12Z"/><path class="cls-1" d="M31.16,20.32a8.86,8.86,0,0,1-11.77-2.49A8.87,8.87,0,0,1,21.83,6.05,8.86,8.86,0,0,1,33.62,8.44a8.85,8.85,0,0,1-2.34,11.8"/></g></g></svg>