<?xml version="1.0" encoding="utf-8"?>
<!-- Generator: Adobe Illustrator 22.0.1, SVG Export Plug-In . SVG Version: 6.00 Build 0)  -->
<svg version="1.1" id="Layer_1" xmlns="http://www.w3.org/2000/svg" xmlns:xlink="http://www.w3.org/1999/xlink" x="0px" y="0px"
	 viewBox="0 0 57.9 71.3" style="enable-background:new 0 0 57.9 71.3;" xml:space="preserve">
<style type="text/css">
	.st0{fill:#F4C498;}
	.st1{fill:#0000FF;stroke:#0000FF;stroke-width:0.5292;stroke-miterlimit:10;}
	.st2{fill:#EFE811;}
	.st3{fill:#5D605C;}
	.st4{fill:#0B4BAA;}
	.st5{fill:#FC3FF3;}
	.st6{fill:#0000FF;stroke:#0000FF;stroke-width:0.5143;stroke-miterlimit:10;}
	.st7{fill:#F15A24;stroke:#F15A24;stroke-width:0.5143;stroke-miterlimit:10;}
	.st8{fill:#6D392C;}
	.st9{fill:#187C11;}
	.st10{fill:#606060;}
	.st11{fill:#8EEFE6;}
	.st12{fill:#7A0C7A;}
	.st13{fill:#7478C4;}
	.st14{fill:#7678B9;}
	.st15{fill:#F3C498;}
	.st16{fill:#0000FF;}
	.st17{fill:#F15A24;}
	.st18{fill:#484C75;}
</style>
<g>
	<g>
		<path class="st0" d="M22.7,25.9c-1.1,1.3-2.3,2.7-3,4.3c-0.7,1.6-0.9,3.5-0.1,5.1c0.5,1,1.3,1.8,1.9,2.7c1.9,3.2,0.6,7.3,1.2,10.9
			c0.1,0.6,0.3,1.2,0.7,1.6c0.7,0.6,1.9,0.3,2.5-0.5c0.6-0.7,0.7-1.8,0.8-2.7c0.1-2.6,1.3-4.6,4.2-2.8c1.1,0.7,2,1.8,3.1,2.6
			c1.1,0.8,2.6,1.2,3.7,0.4c1.1-0.8-2-4.4-2.5-4.9c-1.5-1.2-3.7-1.4-2.2-4c0.4-0.7,1.1-1.1,1.6-1.7c1.4-1.7,1.2-4.3,0-6.2
			c-1.1-1.9-3-3.2-4.8-4.4"/>
	</g>
	<g>
		<path class="st17" d="M35.4,33c-1.1-1-0.1-3.9-2-5.3c-1.4-1-3.4-1-5.1-0.9c-1.9,0-4.3,0-5.9,0.8c-1.9,1-4.2,4-2.5,6.1
			c0.6,0.8,1.9,0.2,2.8,0.6c1,0.5,1,1.9,0.7,2.9c-0.3,1-0.9,2.1-0.6,3.2c1.5,5.1,10.1-1.3,10.6,0.1C32.9,39.1,31.3,29.2,35.4,33z"/>
		<g>
			<path class="st17" d="M36.1,32.6c-1.3-1.8-0.3-4.1-2.3-5.6c-2-1.4-5-1.1-7.2-1c-3.4,0.1-9.9,2.7-7.9,7.4c0.4,0.9,0.7,0.9,1.4,1.4
				c0.3,0.2,0.8,0,1,0.1c2.5,1.8,1,2.2,0.8,4.1c-0.2,1.5,0.4,3,1.8,3.7c1.4,0.7,3,0.4,4.4,0c0.5-0.1,4.6-1.9,4.7-1.8
				c0.5,0.6,1.6,0,1.4-0.8c-0.4-1.1-0.5-2.4-0.6-3.6c-0.1-1-0.5-4.5,1.2-3.1c0.8,0.7,2-0.5,1.2-1.2c-5-4.2-4.2,5.7-3.3,8.2
				c0.5-0.3,0.9-0.5,1.4-0.8c-1-1.2-3.7,0.4-4.7,0.8c-1.2,0.4-3.1,1.3-4.3,0.9c-2.6-0.8-0.3-4.3-0.7-6.2c-0.3-1.5-1.1-1.3-2.1-2
				c-1-0.7-3.3,2.1-1.7-2.7c0.5-1.5,2.3-2.5,3.7-2.8c1.8-0.4,5.6-0.7,7.4-0.1c3.3,1.1,1.7,3.6,3.1,5.6
				C35.3,34.2,36.7,33.4,36.1,32.6z"/>
		</g>
	</g>
	<g>
		<path class="st0" d="M28.7,27.2c-2,1.3-5.1,0.7-6.4-1.4s-0.7-5.1,1.3-6.4s5.1-0.7,6.4,1.3S30.8,25.8,28.7,27.2"/>
	</g>
	<g>
		<path class="st12" d="M22.7,41.3c-0.1,2.1-0.2,4.2-0.2,6.2c1.4,0.1,2.7,0.2,4.1,0.4c0.3,0,0.2-4.8,3.6-3.6
			c1.6,0.6,2.8,2.4,4.4,2.1c1.4-0.3,2-2,1.5-3.4c-0.5-1.3-1.7-2.2-2.8-3"/>
	</g>
	<g>
		<path class="st18" d="M39.3,45.9c-1.6,0.5-2.8,2.3-2.4,3.9c0.3,1.7,2,2.9,3.7,2.8c1.7-0.2,3.1-1.7,3.1-3.4c0-1.7-1.4-3.3-3.1-3.4"
			/>
	</g>
</g>
</svg>
