<?xml version="1.0" encoding="utf-8"?>
<!-- Generator: Adobe Illustrator 22.0.1, SVG Export Plug-In . SVG Version: 6.00 Build 0)  -->
<svg version="1.1" id="Layer_1" xmlns="http://www.w3.org/2000/svg" xmlns:xlink="http://www.w3.org/1999/xlink" x="0px" y="0px"
	 viewBox="0 0 57.9 71.3" style="enable-background:new 0 0 57.9 71.3;" xml:space="preserve">
<style type="text/css">
	.st0{fill:#F4C498;}
	.st1{fill:#0000FF;stroke:#0000FF;stroke-width:0.5292;stroke-miterlimit:10;}
	.st2{fill:#EFE811;}
	.st3{fill:#5D605C;}
	.st4{fill:#0B4BAA;}
	.st5{fill:#FC3FF3;}
	.st6{fill:#0000FF;stroke:#0000FF;stroke-width:0.5143;stroke-miterlimit:10;}
	.st7{fill:#F15A24;stroke:#F15A24;stroke-width:0.5143;stroke-miterlimit:10;}
	.st8{fill:#6D392C;}
	.st9{fill:#187C11;}
	.st10{fill:#606060;}
	.st11{fill:#8EEFE6;}
	.st12{fill:#7A0C7A;}
	.st13{fill:#7478C4;}
	.st14{fill:#7678B9;}
	.st15{fill:#F3C498;}
	.st16{fill:#0000FF;}
	.st17{fill:#F15A24;}
	.st18{fill:#484C75;}
</style>
<g>
	<g>
		<path class="st0" d="M21.3,52.6c-0.1,0.7-0.1,1.5,0.4,2c0.7,0.8,2.1,0.4,2.8-0.4s0.8-1.9,1-3c0.2-1,0.7-2.1,1.6-2.6
			c4.7-2.4,4.9,8.5,8.8,6.1c1.3-0.8,0.9-2.7,0.5-4.2c-1.6-5-2.1-10.1-2.2-15.3C34,30.1,35.4,24.9,36,19.8c0.1-1,0-2.4-1-2.7
			c-0.7-0.2-1.4,0.3-1.9,0.8c-2.1,2.2-3.2,6.7-4.3,9.6c-0.9,0-1.6-0.5-2-1.3c-0.4-0.7-0.6-1.6-0.7-2.4c-0.3-1.7-0.6-3.3-0.9-5
			c-0.2-1.1-0.7-2.5-1.8-2.7c-0.9-0.1-1.7,0.7-1.9,1.6c-0.6,2.7,0.4,6.4,0.7,9.2c0.4,3.3,0.7,6.6,0.7,9.9
			C22.7,42.1,21.7,47.4,21.3,52.6z"/>
	</g>
	<g>
		<path class="st13" d="M22.1,44c0.7-0.2,1.4,0.5,1.5,1.2s0,1.4,0,2.2c0,0.7,0.2,1.5,0.9,1.9c0.6,0.3,1.2,0,1.8-0.1
			c2.2-0.6,4.6-0.6,6.8,0.2c-0.2-1.8-0.1-3.6,0.4-5.3c0.3-1,0.7-2,0.9-3c0.2-1,0-2.2-0.8-2.9c-0.8-0.8-2.1-0.8-3.2-0.8
			c-2,0-4.1,0-6.1,0c-0.7,0-1.5,0-2,0.5c-0.7,0.6-0.6,1.7-0.4,2.6c0.2,0.9,0.5,1.9,0.1,2.7"/>
		<g>
			<path class="st14" d="M22.1,44.9c1,0.1,0.4,4.4,2.1,5.2c0.8,0.4,1.6,0.1,2.4-0.1c2.3-0.4,4.2-0.5,6.4,0.2c0.5,0.1,1.1-0.3,1-0.8
				c-0.2-2,0-3.8,0.6-5.8c0.4-1.2,0.9-2.4,0.7-3.7c-0.3-2.1-1.8-3.1-3.8-3.3c-1.6-0.1-3.3,0-5-0.1c-1.2,0-2.7-0.2-3.9,0.2
				c-2.9,1.1-0.8,4.2-1.4,6.2c-0.3,1,1.3,1.4,1.6,0.4c0.5-1.8-1-4.3,1.6-5.3c0.8-0.3,2.2,0,3,0c1,0,2,0,3,0c1.5,0.1,2.9,0.5,3.2,2.3
				c0.2,1-0.7,2.5-0.9,3.4c-0.5,1.8-0.6,3.6-0.4,5.5c0.3-0.3,0.7-0.5,1-0.8c-1.5-0.4-2.9-0.7-4.5-0.6c-0.7,0-1.2,0.2-1.9,0.2
				c-0.6,0.3-1.2,0.3-1.7-0.3c-0.8-0.1-1.1-0.5-0.8-1.2c-0.4-1.7,0-3.4-2.4-3.5C21,43.2,21,44.8,22.1,44.9L22.1,44.9z"/>
		</g>
	</g>
	<g>
		<path class="st0" d="M30.8,50.4c-2,1.3-5.1,0.7-6.4-1.4s-0.7-5.1,1.3-6.4s5.1-0.7,6.4,1.3C33.5,46,32.9,49,30.8,50.4"/>
	</g>
	<g>
		<path class="st17" d="M23.1,32.2c3.7-0.2,7.3,0,10.9,0.6c0.1-2.5,0.5-5,1.1-7.4c-0.6-0.5-1.1-1-1.8-1.3c-2.5-1-2.6,2-4.6,2.2
			c-1.8,0.2-2.9-1.9-2-3.4c-1.6,0.1-3.2,0.3-4.8,0.4c0.3,3.1,0.7,6.2,1.2,9.3"/>
		<g>
			<path class="st17" d="M23.1,33c3.6-0.2,7.2,0,10.7,0.6c0.5,0.1,1-0.2,1-0.8c0.2-2.4,0.5-4.8,1.1-7.2c0.1-0.3,0-0.6-0.2-0.8
				c-1.1-0.9-2.4-2.1-4-1.6c-0.5,0.1-0.9,0.5-1.3,0.8c-0.2,0.2-0.4,0.6-0.6,0.7c-1.1,0.6-3,0.2-2.3-1.6c0.2-0.5-0.3-1.1-0.8-1
				c-1.6,0.1-3.2,0.3-4.8,0.4c-0.4,0-0.9,0.4-0.8,0.8c0.3,3.1,0.7,6.2,1.2,9.3c0.1,1,1.8,1,1.6,0c-0.4-3.1-0.8-6.2-1.2-9.3
				c-0.3,0.3-0.5,0.5-0.8,0.8c1.6-0.1,3.2-0.3,4.8-0.4c-0.3-0.3-0.5-0.7-0.8-1c-0.9,2.3,0.8,5.3,3.5,4.3c0.4-0.2,0.8-0.5,1.2-0.8
				c0.2-0.2,0.4-0.6,0.7-0.7c0.5-0.3,1.7-0.7,2.3-0.3c1.2,0.8-0.3,6.1-0.4,7.6c0.3-0.3,0.7-0.5,1-0.8c-3.7-0.6-7.4-0.8-11.1-0.6
				C22.1,31.4,22,33,23.1,33L23.1,33z"/>
		</g>
	</g>
</g>
</svg>
