<?xml version="1.0" encoding="utf-8"?>
<!-- Generator: Adobe Illustrator 22.0.1, SVG Export Plug-In . SVG Version: 6.00 Build 0)  -->
<svg version="1.1" id="Layer_1" xmlns="http://www.w3.org/2000/svg" xmlns:xlink="http://www.w3.org/1999/xlink" x="0px" y="0px"
	 viewBox="0 0 57.9 71.3" style="enable-background:new 0 0 57.9 71.3;" xml:space="preserve">
<style type="text/css">
	.st0{fill:#F4C498;}
	.st1{fill:#EFE811;}
	.st2{fill:#0000FF;}
	.st3{fill:#6D392C;}
	.st4{fill:#187C11;}
	.st5{fill:#7478C4;}
	.st6{fill:#7A0C7A;}
	.st7{fill:#F15A24;}
	.st8{fill:#847961;}
	.st9{fill:#F3C498;}
	.st10{fill:#FC3FF3;}
</style>
<g>
	<g>
		<g>
			<path class="st8" d="M24.4,30.6c4.6-3.3,9.3-6.7,13.9-10c0.7-0.5,0-1.8-0.7-1.2c-4.6,3.3-9.3,6.7-13.9,10
				C23,29.9,23.7,31.1,24.4,30.6L24.4,30.6z"/>
		</g>
	</g>
	<g>
		<path class="st0" d="M11,28.7c-1.2,5-1.7,10.2-1.6,15.4c0,1.6,0.3,3.5,1.8,4c0.3-2,0.7-4.1,1-6.1c0.1-0.7,0.5-1.6,1.2-1.5
			c0.6,0.1,0.7,0.9,0.7,1.5c0,1.4,0,2.7,0,4.1c0,0.7,0.2,1.7,0.9,1.8c2.6,0.6,2-8.4,1.8-9.9c-0.6-4.2,3.4-5.9,6.9-6.9
			c0.2-0.7,0.2-1.7-0.5-2C22.9,29,22.6,29,22.4,29c-2.6,0.2-5.3,0.3-7.9,0.5"/>
	</g>
	<g>
		<path class="st5" d="M9.5,37.4c-0.9,1.8-0.4,4.5-0.5,6.5c1.2,0,2.4,0,3.6,0.1c0.1-0.4,0.2-0.8,0.4-1c0.2-0.3,0.7-0.5,1-0.3
			c0.3,0.2,0.4,1.8,0.6,2.2c1.4-0.2,3.3-0.2,3.9-1.8c0.5-1.4,0.4-4.4-0.7-5.4c-1.4-1.3-3.8,0-5.5-0.8"/>
	</g>
	<g>
		<path class="st1" d="M10.1,28.5c-0.2,3.8-0.2,7.6-0.6,11.4c2.8-1.3,6-1.8,9.1-1.5c-1.3-1.9-1.1-3.7,0.9-5.2
			c0.7-0.5,1.5-0.9,2.1-1.5c0.6-0.6,0.8-1.8,0.1-2.3c-2.2,0.3-4.5,0-6.6-0.9"/>
	</g>
	<g>
		<path class="st0" d="M14.6,28.6c-1.8,1.2-4.5,0.6-5.6-1.2s-0.6-4.5,1.2-5.6c1.8-1.2,4.5-0.6,5.6,1.1
			C16.9,24.7,16.4,27.4,14.6,28.6"/>
	</g>
	<g>
		<path class="st8" d="M18.4,21.6c-1.4-0.6-2.9-1.3-4.3-1.9c-1.1-0.5-2.4-1-3.6-0.7c-1.5,0.4-2.3,1.8-3,3.2c-0.8,1.5-1.7,3.2-1.3,5"
			/>
	</g>
	<g>
		<path class="st8" d="M6,27.3c4.2-0.7,8.2-2.5,11.6-5.2c0.1-0.1,0.3-0.3,0.3-0.5c0-0.3-0.2-0.4-0.5-0.5"/>
	</g>
	<g>
		<g>
			<path class="st8" d="M38.1,20.9c0.9,3.7,2.9,6.3,6.3,8.1c3.9,2,6.5,4,7.1,8.6c0.5,3.4,0,6.9,0.2,10.3c0,0.2,0.3,0.2,0.3,0
				c-0.2-4.8,1-10.3-1.5-14.7c-0.9-1.5-2-2.4-3.6-3.3c-4.2-2.5-7.3-3.8-8.5-9C38.3,20.6,38.1,20.7,38.1,20.9L38.1,20.9z"/>
		</g>
	</g>
</g>
</svg>
