<?xml version="1.0" encoding="utf-8"?>
<!-- Generator: Adobe Illustrator 22.0.1, SVG Export Plug-In . SVG Version: 6.00 Build 0)  -->
<svg version="1.1" id="Layer_1" xmlns="http://www.w3.org/2000/svg" xmlns:xlink="http://www.w3.org/1999/xlink" x="0px" y="0px"
	 viewBox="0 0 57.9 71.3" style="enable-background:new 0 0 57.9 71.3;" xml:space="preserve">
<style type="text/css">
	.st0{fill:#F4C498;}
	.st1{fill:#EFE811;}
	.st2{fill:#0000FF;}
	.st3{fill:#6D392C;}
	.st4{fill:#187C11;}
	.st5{fill:#7478C4;}
	.st6{fill:#7A0C7A;}
	.st7{fill:#F15A24;}
	.st8{fill:#847961;}
	.st9{fill:#F3C498;}
	.st10{fill:#FC3FF3;}
</style>
<g>
	<g>
		<path class="st0" d="M21.9,32.3c-1.6,2.3-1.5,5.6,0.1,7.8c1.7,2.2,4.9,3.1,7.5,2.2c1.2-0.4,9.1-5,7.3-0.6
			c-0.3,0.8-0.6,1.9,0.2,2.4c0.7,0.4,1.5-0.4,2-1.1c0.8-1.1,1.5-2.3,2-3.6c0.4-1.3,0.4-2.8-0.3-4c-2.5-4-6.7,1.8-10,0.7
			c-2.5-0.8-3.1-4.6-5.7-5.2"/>
	</g>
	<g>
		<path class="st0" d="M21.1,33.5c-2.3,2-3.9,4.8-4.5,7.8c1.9-0.1,3.8-1.3,4.7-3"/>
	</g>
	<g>
		<path class="st6" d="M31.9,36c1.6-0.6,3.3-1.2,4.9-1.8c0.2,2.3,0.2,5-1.7,6.3c-1.7,1.2-4.3,0.6-6.1,1.7"/>
	</g>
	<g>
		<path class="st1" d="M23,33c-0.8-0.8-2.3-0.7-3.1,0.2c-0.8,0.8-1,2.1-0.7,3.3s0.9,2.1,1.5,3.1c0.3-0.2,0.5-0.5,0.8-0.7
			c0.9,2,2.1,4.3,4.3,4.7c1.9,0.4,3.8-1,4.7-2.7c0.9-1.7,1-3.7,1.1-5.6c-1.3,0.3-2.5-0.9-3.2-2.1s-1.6-2.5-3-2.5"/>
	</g>
	<g>
		<path class="st0" d="M23.5,33.7c-2,0.8-4.5-0.3-5.3-2.3s0.3-4.5,2.3-5.3s4.5,0.3,5.3,2.3C26.6,30.3,25.5,32.8,23.5,33.7"/>
	</g>
	<g>
		<path class="st0" d="M36.3,34.5c0.9-0.5,1.3-1.5,1.9-2.4c0.6-0.8,1.9-1.5,2.6-0.7c0.4,0.4,0.4,0.9,0.4,1.4c0.1,1.4,0,2.9-0.2,4.3
			c-0.5-1.2-0.9-2.4-1.4-3.6"/>
	</g>
</g>
</svg>
