<?xml version="1.0" encoding="utf-8"?>
<!-- Generator: Adobe Illustrator 22.0.1, SVG Export Plug-In . SVG Version: 6.00 Build 0)  -->
<svg version="1.1" id="Layer_1" xmlns="http://www.w3.org/2000/svg" xmlns:xlink="http://www.w3.org/1999/xlink" x="0px" y="0px"
	 viewBox="0 0 57.9 71.3" style="enable-background:new 0 0 57.9 71.3;" xml:space="preserve">
<style type="text/css">
	.st0{fill:#F4C498;}
	.st1{fill:#0000FF;stroke:#0000FF;stroke-width:0.5292;stroke-miterlimit:10;}
	.st2{fill:#EFE811;}
	.st3{fill:#5D605C;}
	.st4{fill:#0B4BAA;}
	.st5{fill:#FC3FF3;}
	.st6{fill:#0000FF;stroke:#0000FF;stroke-width:0.5143;stroke-miterlimit:10;}
	.st7{fill:#F15A24;stroke:#F15A24;stroke-width:0.5143;stroke-miterlimit:10;}
	.st8{fill:#6D392C;}
	.st9{fill:#187C11;}
	.st10{fill:#606060;}
	.st11{fill:#8EEFE6;}
	.st12{fill:#7A0C7A;}
	.st13{fill:#7478C4;}
	.st14{fill:#7678B9;}
	.st15{fill:#0000FF;}
	.st16{fill:#F15A24;}
	.st17{fill:#484C75;}
	.st18{fill:#F3C498;}
</style>
<g>
	<g>
		<path class="st0" d="M25.5,30.5c-2.4,6.5-3.7,13.6-2.2,20.4c0.2,0.8,0.4,1.7,1,2.3c0.6,0.6,1.6,0.9,2.3,0.4
			c0.6-0.4,0.7-1.2,0.8-1.8c0.4-2.6,0.6-5.2,0.5-7.8c0.4,1.1,1.3,1.9,2.4,2.2c0.1,2.2,0.6,4.5,1.4,6.6c0.2,0.5,0.5,1.1,1,1.3
			c0.7,0.2,1.4-0.2,1.7-0.9s0.3-1.3,0.2-2c-0.5-6.8-1.9-13.6-4.1-20.1"/>
	</g>
	<g>
		<path class="st13" d="M25.4,30.8c-1.9,4.6-2.8,9.7-2.5,14.7c0,0.6,0.1,1.3,0.5,1.8c0.5,0.6,1.4,0.7,2.3,0.7
			c3.2,0.1,6.4,0.3,9.6,0.4c-0.9-6.3-2.5-12.5-5-18.5"/>
	</g>
	<g>
		<path class="st0" d="M30.7,30.6c-2,1.3-5.1,0.7-6.4-1.4c-1.3-2-0.7-5.1,1.3-6.4s5.1-0.7,6.4,1.3C33.4,26.2,32.8,29.2,30.7,30.6"/>
	</g>
	<g>
		<path class="st0" d="M24.7,38.5c0.8-0.1,1.7-0.3,2.5-0.4c0,1.3,0,2.6,0.1,4c0,0.5-0.1,1.2-0.6,1.3c-0.3,0.1-0.6-0.1-0.8-0.3
			c-0.2-0.2-0.3-0.5-0.4-0.8c-0.3-1-0.6-2-0.9-3"/>
	</g>
	<g>
		<path class="st0" d="M29.9,38.2c0.8,0.2,1.7,0.3,2.5,0.5c-0.4,1.3-0.8,2.5-1.3,3.8c-0.2,0.5-0.5,1.1-1,1c-0.3,0-0.5-0.3-0.6-0.6
			c-0.1-0.3-0.1-0.6-0.1-0.9c0.1-1,0.1-2.1,0.2-3.1"/>
	</g>
</g>
</svg>
