<?xml version="1.0" encoding="utf-8"?>
<!-- Generator: Adobe Illustrator 22.0.1, SVG Export Plug-In . SVG Version: 6.00 Build 0)  -->
<svg version="1.1" id="Layer_1" xmlns="http://www.w3.org/2000/svg" xmlns:xlink="http://www.w3.org/1999/xlink" x="0px" y="0px"
	 viewBox="0 0 57.9 71.3" style="enable-background:new 0 0 57.9 71.3;" xml:space="preserve">
<style type="text/css">
	.st0{fill:#F4C498;}
	.st1{fill:#0000FF;stroke:#0000FF;stroke-width:0.5292;stroke-miterlimit:10;}
	.st2{fill:#EFE811;}
	.st3{fill:#5D605C;}
	.st4{fill:#0B4BAA;}
	.st5{fill:#FC3FF3;}
	.st6{fill:#0000FF;stroke:#0000FF;stroke-width:0.5143;stroke-miterlimit:10;}
	.st7{fill:#F15A24;stroke:#F15A24;stroke-width:0.5143;stroke-miterlimit:10;}
	.st8{fill:#6D392C;}
	.st9{fill:#187C11;}
	.st10{fill:#606060;}
	.st11{fill:#8EEFE6;}
	.st12{fill:#7A0C7A;}
	.st13{fill:#7478C4;}
	.st14{fill:#7678B9;}
	.st15{fill:#F3C498;}
	.st16{fill:#0000FF;}
	.st17{fill:#F15A24;}
	.st18{fill:#484C75;}
</style>
<title>Asset 20</title>
<g id="Layer_2_3_">
	<g id="Layer_1-2_2_">
		<path class="st0" d="M2.1-137.8c-1.8-2.5-4.7-3.9-7.8-3.8c-0.3,0-0.7,0.1-0.9,0.3c-0.3,0.4-0.3,1,0.1,1.3s0.8,0.6,1.2,0.7
			c3.1,1.3,5.6,3.8,7,6.9l0.4,1.4c1.6,5.7,3.2,10.4,2.8,16.3c-0.1,1.1-0.2,2.4,0.3,3.4s2,1.7,2.9,0.9l1-5.7c0.1-0.7,0.3-1.4,0.8-1.7
			c0.9-0.5,2.1,0.4,2.3,1.5c0.2,1,0,2.2,0.2,3.2c0.2,1.1,1.3,2.1,2.3,1.7c0.6-0.3,0.9-1,1.1-1.7c2.1-8.4,0.7-17.3-4.1-24.5
			c0,0-2.9-5.9-6.5-6.9c-1-0.2-1.8-1-2.8-1.2c-1-0.3-2-0.1-2.9,0.5c-0.2,0.1-0.3,0.3-0.3,0.4c0,0.4,0.5,0.5,0.9,0.6
			c1,0.2,1.9,0.7,2.5,1.5l1,3.5L2.1-137.8z"/>
		<path class="st0" d="M2.7-138.3c-1.3-1.6-3-2.9-4.9-3.6c-1.2-0.4-3.6-1.1-4.8-0.1c-0.7,0.7-0.8,1.7-0.1,2.5
			c0.5,0.7,1.5,0.9,2.2,1.2c1.3,0.7,2.5,1.5,3.5,2.6c3.1,3.2,3.9,8.4,4.8,12.5c0.6,2.8,0.9,5.6,0.7,8.5c-0.1,1.7-0.2,3.8,1.4,4.9
			c4.3,3,3.2-4.6,4.3-6.1l0.1-0.7c1.2-0.2,1.7,0.2,1.6,1.1c0.2,0.6,0,1.3,0.1,1.9c0,0.7,0.3,1.4,0.8,2c0.6,0.9,1.8,1.2,2.7,0.8
			c1.4-0.7,1.6-2.9,1.9-4.2c0.5-2.4,0.6-4.9,0.5-7.4c-0.2-4.6-1.5-9-3.6-13.1c-1.5-2.9-3.3-6.2-5.8-8.3c-2.2-1.8-7.4-4.4-9.5-1.3
			c-0.1,0.2-0.1,0.6,0,0.8c0.6,0.9,1,0.7,2,1.2c1.3,0.6,1.4,1.1,1.8,2.3c0.1,0.5,0.6,1.4,0.5,1.9c0.1-1.1-0.7,0.2-1.3,0.7
			c-0.7,0.7,0.4,1.8,1.1,1.1l1.5-1.4c0.2-0.2,0.3-0.5,0.2-0.8c-0.4-1.5-0.6-3.4-1.8-4.5c-0.4-0.4-1.1-0.5-1.5-0.9l-0.4-0.1
			c-0.8-0.2-0.4-0.2,1-0.2c0.7,0.2,1.4,0.4,2.1,0.7c1.7,0.7,3.1,1.3,4.3,2.6c4.6,5,7.4,12.5,7.8,19.2c0.1,2.2,0,4.4-0.3,6.6
			c0,0.6-0.1,1.1-0.3,1.7c-0.4,0.9,0.3,1-1.1,0.5c-1.4-0.4-0.8-1.3-1-2.5c-0.4-1.8-2.6-3.7-4.2-1.8c-0.9,1.1-0.9,3.2-1.1,4.5
			c0,0.2-0.3,1.9-0.3,1.9c-0.6,0.1-1.7-1.5-1.8-1.8c-0.3-1.1,0.1-2.6,0.1-3.7c-0.1-4.2-1.2-8.2-2.3-12.3c-0.9-3.1-1.8-5.7-4.2-8
			c-0.6-0.5-4.8-2.9-4.8-3.2c0.1-0.8,3,0.2,3.6,0.5c1.4,0.6,2.6,1.6,3.6,2.8C2.2-136.4,3.3-137.6,2.7-138.3z"/>
		<path class="st1" d="M4.1-123.7c0,0,11.3,1.9,12.6-0.7c0,0,1.8,6.4,0.2,10.6c-1.7,0.6-3.6,0.6-5.3,0c0,0,0.5-3.2-1.1-2.6
			c-1.6,0.5-1.6,3.7-1.6,3.7s-4.2,0.5-4.8-0.5S4.1-123.6,4.1-123.7z"/>
		<path class="st2" d="M-3.8-137.6c0,0,2.1-1.6,2.1-3.7c0,0,3.7,1.6,4.8,3.2c1.1,1.6,0.3-2.6,0.3-2.6l-1,0.4c0,0,0-2.1-0.9-2.6
			c-1.1-0.5,1.6-1.1,2.1-3.2c0,0,7.8,2,11.1,12.7c2.6,8.5,2.6,10.1,2.6,10.1c-4.5,1.4-9.2,1.7-13.8,1.1
			C3.6-122.3,3.6-131.8-3.8-137.6z"/>
		<path class="st0" d="M9-135.9c-2.1,1.3-4.8,0.7-6.2-1.3c-1.3-2.1-0.7-4.8,1.3-6.2c2.1-1.3,4.8-0.7,6.2,1.3
			C11.6-140.1,11-137.4,9-135.9"/>
	</g>
</g>
<g id="Layer_2_1_">
	<g id="Layer_1-2">
		<path class="st3" d="M58.2-117.9l-11.4,1.3c-0.7,0.1-1.5,0.3-1.6,0.9c-0.2,0.8,0.9,1.3,1.8,1.3c5,0.5,10.1-0.1,15-1.1
			c1-0.2,2.1-0.5,2.8-1.3s0.6-2.3-0.4-2.6c-0.5-0.1-0.9-0.1-1.4,0.1l-5.5,1.5"/>
		<path class="st3" d="M61.9-114.6c-0.5,0.5-0.6,1.2-0.3,1.8c0.4,0.7,1.3,0.9,2,0.5c0.5-0.3,0.8-0.9,0.7-1.5
			c-0.1-0.7-0.7-1.2-1.4-1.2c-0.4,0-0.8,0.3-0.8,0.8c0,0.4,0.3,0.7,0.8,0.8c-0.2,0,0.1,0,0,0s0,0,0,0h-0.1c0.1,0.1,0.1,0.1,0,0
			s0,0,0,0s0-0.1,0,0c0-0.1,0-0.2,0-0.1c0-0.1,0-0.1,0,0c0,0,0.2-0.1,0.1-0.1c-0.1,0.1,0.1,0,0,0s0.2,0,0,0H63c-0.1,0-0.1,0,0,0
			s0.2,0.1,0,0v0.1c0-0.1,0-0.1,0,0s0-0.1,0,0.1c0,0,0-0.2,0-0.1s0,0.1,0,0v0.1c0.1-0.1-0.1,0.1,0,0c0.3-0.3,0.2-0.8-0.1-1.1
			C62.6-114.9,62.2-114.8,61.9-114.6z"/>
		<path class="st3" d="M48.3-113.6c-0.5,0.5-0.6,1.2-0.3,1.8c0.4,0.7,1.3,0.9,2,0.5c0.5-0.3,0.8-0.9,0.7-1.5
			c-0.1-0.7-0.7-1.2-1.4-1.2c-0.4,0-0.8,0.3-0.8,0.8c0,0.4,0.3,0.7,0.8,0.8c-0.2,0,0.1,0,0,0s0,0,0,0h-0.1c0.1,0.1,0.1,0.1,0,0
			s0,0,0,0c0,0.1,0-0.1,0,0c0-0.1,0-0.2,0-0.1c0-0.1,0-0.1,0,0c0,0,0.2-0.1,0.1-0.1c-0.1,0.1,0.1,0,0,0s0.2,0,0,0h0.1
			c-0.1,0-0.1,0,0,0s0.2,0.1,0,0v0.1c0-0.1,0-0.1,0,0s0-0.1,0,0.1c0,0,0-0.2,0-0.1s0,0.1,0,0v0.1c0.1-0.1-0.1,0.1,0,0
			c0.2-0.3,0.1-0.8-0.2-1C48.9-113.8,48.6-113.8,48.3-113.6z"/>
		<path class="st0" d="M59.3-138.1c0.9-1.9,2-3.7,3.5-5.3c0.9-1,2.2-2,3.6-1.7c0.3,0,0.5,0.2,0.6,0.5s-0.2,0.6-0.4,0.8
			c-2.2,2.4-3.5,5.6-3.6,8.9l0.2,0.9c0,2.2,0.8,2.1,2.1,3.1s2.9,1.5,4.1,2.5c0.4,0.3,0.8,0.8,0.6,1.2c-0.2,0.4-1,0.4-1.5,0.2
			c-1.2-0.4-2.4-1.2-3.6-1.1c-1.2,0.1-2,0.1-2.6,1.2l-0.8,1c-1.3,2.2-2.4,4.5-3.4,6.9c-0.1,0.4-0.4,0.9-0.7,1.2
			c-0.3,0.3-0.9,0.4-1.3,0.1c-0.5-0.4-0.3-1.1-0.1-1.7c1.6-5.2,0.7-10.9-2.5-15.3l-0.7-0.4c-2.3-0.6-4.8-0.5-7,0.2
			c-0.3,0.1-0.7,0.2-0.9,0s-0.2-0.5-0.1-0.7c0.1-0.2,0.3-0.4,0.5-0.5c2.2-1.5,4.8-2.1,7.5-2"/>
		<path class="st0" d="M59.9-137.7c0.9-2,2.2-4.1,3.8-5.6c0.6-0.5,3.1-2.1,1.6-0.2c-0.5,0.6-1,1.3-1.4,2c-1.4,2.6-2.2,5.6-1.5,8.5
			c0.2,0.9,0.7,1.7,1.5,2.2c1.2,0.9,3.4,1.5,4.3,2.6c1.1,1.3-1.4-0.2-1.8-0.3c-0.8-0.2-1.6-0.3-2.3-0.2c-1,0.1-1.9,0.6-2.6,1.4
			c-0.9,1.1-1.7,2.3-2.3,3.6c-0.5,1.1-0.9,2.5-1.6,3.5c-0.8,1.1-1.2,1.5-0.8-0.1c0.8-3.5,0.6-7.3-0.7-10.6c-1.1-2.9-2.1-4.8-5.2-5.1
			c-0.5,0-5.6-0.2-5.6,0.6c0-0.2,3.3-1.3,3.6-1.3c1.2-0.3,2.5-0.4,3.7-0.3c1,0,1-1.5,0-1.5c-2.3-0.1-7.5,0.4-8.7,2.8
			c-1.4,2.9,3.5,1.4,4.3,1.3c1.2-0.1,3.1-0.4,4.1,0.3c0.7,0.4,1.2,1.3,1.5,2c1.1,2.1,1.8,4.5,1.9,6.9c0.1,2.3-0.6,4.2-0.9,6.3
			c-0.1,0.8,0,1.6,0.8,2c1,0.5,1.9-0.1,2.4-0.8c1.3-1.6,1.9-4.1,2.9-6c0.8-1.5,1.8-3.5,3.7-3.5c1.5,0,3.4,1.7,4.9,1.2
			c3.2-1.1-1.6-3.9-2.4-4.4c-1.6-0.9-3.2-1.6-3.4-3.6c-0.2-2.2,0.2-4.4,1.2-6.4c0.7-1.3,4.7-5.2,0.9-5.4c-3.5-0.2-6.1,4.8-7.4,7.4
			C58.2-137.6,59.5-136.8,59.9-137.7L59.9-137.7z"/>
		<path class="st4" d="M55.4-129.5L64-133c0.6,0.6,1.3,1.1,2,1.5c1.5,1,3.5,2.5,3.5,2.5c-0.3,1.2-1.3,2.2-2.5,2.5c0,0-2-1-3.5,0
			c-2.3,1.5-3,4.5-3,4.5l-0.5,1.5c0,0-3,1-4.5-1c0,0,0.5-4,0.5-5C55.8-127.5,55.7-128.5,55.4-129.5z"/>
		<path class="st5" d="M52.2-138.3c0,0-2-0.5-3.5,0c0,0,0.5,2.5,0,3.5c0,0,3,0,4.5,1c0,0,1.5,1.5,2,5c0,0,8-0.5,9.5-4
			c0,0-1.5-2-0.5-5.5s1.5-2.5,1.5-2.5c-1-1.5-2.7-2.3-4.5-2l-1.3,1.7l-2.7,3.3L52.2-138.3z"/>
		<path class="st0" d="M57.7-138.2c-2,1.2-4.6,0.6-5.9-1.3c-1.2-2-0.7-4.6,1.2-5.9c2-1.2,4.6-0.7,5.9,1.2
			C60.2-142.2,59.7-139.6,57.7-138.2"/>
	</g>
</g>
<g id="Layer_2_2_">
	<g id="Layer_1-2_1_">
		<path class="st0" d="M9-65.9c0.6-2.7,2-5.2,3.9-7.3c0.2-0.3,0.6-0.5,0.9-0.6c0.4-0.1,0.8,0.1,0.9,0.5c0,0.3-0.1,0.5-0.2,0.8
			c-2.1,3.5-3.5,6.2-3.4,10.3l0.5,1.7c2.6,5,1.7,10.9,1.1,16.5c0,0.9-0.3,1.9-0.7,2.7c-0.5,0.8-0.4,1.7-1.4,0.7
			c-0.3-1.7-1.5-3.3-2.6-4.6l-1,0.3c-0.5,1.4-1.1,2.3-1.6,4.4c-1,0.6-1.4,0.1-2.1-0.9s-0.8-2.2-0.8-3.4c-0.2-4.1,0.1-8.1,0.9-12.1
			L2-47.8c-1.8-1.4-2.1-4-1.9-6.3C0.3-57.2,1-60.2,2.3-63l0.8-1.5l4.1-2.6L9-65.9z"/>
		<path class="st0" d="M9.7-65.7c0.5-2,1.7-5.8,3.7-6.9c0.5-0.6,0.5-0.4-0.1,0.4c-0.3,0.5-0.6,0.9-0.8,1.4c-0.4,0.7-0.8,1.5-1.1,2.3
			c-1.1,2.5-1.6,5.4-0.6,8c0.8,2.3,1.5,4.1,1.7,6.6c0.1,2.1,0,4.2-0.2,6.2c-0.1,0.6-0.9,7-1.4,6.8c0.5,0.3-0.4-2.1-0.5-2.2
			c-0.5-0.9-1.1-1.7-1.7-2.5C8.5-45.9,8.2-46,7.8-46c-0.7,0.2-1.1,0.3-1.5,0.8c-0.8,1-0.9,4.9-2.5,2.8c-1.1-1.5-0.6-4.9-0.5-6.7
			c0.1-2.6,0.4-5.2,0.9-7.7l-1.5-0.4l-1.4,9.1l1.3-0.3c-2.4-2.3-1.8-6.2-1.2-9.1c0.4-1.9,1.2-5.2,2.3-6.4c0.4-0.5,2.3-1.3,3.1-1.9
			C7-66,7.3-66.1,7.5-66.2c0.5-0.3-0.8-0.3-0.3,0c0.5,0.4,1,0.7,1.6,1.1c0.8,0.6,1.6-0.8,0.8-1.3l-1.8-1.3c-0.2-0.1-0.5-0.1-0.8,0
			c-1.3,0.7-2.5,1.5-3.7,2.3c-1,0.7-1.4,1.8-1.9,2.9C-0.4-58.2-2.3-51,1.6-47.2c0.3,0.3,0.8,0.3,1.1,0c0.1-0.1,0.2-0.2,0.2-0.3
			l1.4-9.1C4.4-57.6,3-58,2.8-57c-0.6,3.1-1,6.3-1,9.5c0,2.3-0.2,5.2,1.4,7.1c0.7,0.8,1.9,1.5,2.9,0.5c1.1-1.2,0.6-4,2.3-4.5
			l-0.9-0.4c0.5,0.6,0.9,1.2,1.3,1.9c0.5,0.8,0.7,1.9,1.1,2.6c0.2,0.5,0.6,0.8,1.1,0.9c1.4,0.2,2-1.9,2.3-3c0.8-2.8,0.8-6.3,0.8-9.2
			c0.1-2.9-0.4-5.8-1.5-8.5c-1-2.5-0.9-4.7,0-7.2c0.6-1.7,1.8-3.1,2.5-4.7c0.2-0.5,0.5-1,0.2-1.5c-0.6-1.4-2.2-0.7-3,0
			c-2.1,1.9-3.4,4.9-4.1,7.6c-0.1,0.4,0.1,0.9,0.5,1C9.2-65,9.6-65.3,9.7-65.7z"/>
		<path class="st6" d="M1.8-53.5c0,0-0.5,8.2,0.5,10.8c0.6,1.5,4.1,0.5,4.1,0.5l1-2.1c0,0,1-0.5,1.5,1.5c0.3,1.1,4.1,0,4.1,0
			s2.1-7.2,0.5-13.4L1.8-53.5z"/>
		<path class="st7" d="M3.3-65.9L9.4-69l1.1-2.6c0,0,1.5,2.1,3.1,2.1c0,0-2.1,2.6-2.1,5.7s1.2,4.6,1.2,4.6s1.4,3.1,1.4,5.7
			S1.8-52,1.8-52v-3.6c0,0-2.6,0.5-2.6-0.5c0,0,2.2-7.1,2.6-7.7C2.2-64.6,2.7-65.3,3.3-65.9z"/>
		<path class="st0" d="M7.5-65.3c-2,1.2-4.7,0.7-6-1.3c-1.2-2-0.7-4.7,1.3-6.1c2-1.2,4.7-0.7,6.1,1.2C10-69.3,9.5-66.7,7.5-65.3"/>
	</g>
</g>
<g id="Layer_2_4_">
	<g id="Layer_1-2_3_">
		<path class="st8" d="M52.3-64.3c2.2,6.2,6.9,11.3,12.9,14c-1.7-3.2-5.5-4.7-8.1-7.3c-2.4-2.5-3.5-5.9-4.6-9.2L51.2-65"/>
		<path class="st8" d="M56.9-66.2l1.5,8.1c0,0.5,0.2,0.9,0.5,1.3c0.3,0.4,0.8,0.5,1.2,0.2c0.2-0.3,0.4-0.7,0.3-1c0-3.5-0.8-7-2.5-10
			"/>
		<path class="st8" d="M63.2-73.5c2.7,12.9,3.5,26.2,2.3,39.3c-0.1,1.3-0.3,2.7-1.1,3.8c-1.4,1.7-3.8,1.9-5.5,0.6l0,0
			C64-40.7,65.1-53,62-64.7c-0.5-2-1.2-3.9-1.2-5.9s0.8-4.2,2.5-5.2"/>
		<path class="st9" d="M49.1-70.8c-2.1-0.2-4.2,0-6.2,0.6c-0.8,0.3-1.7,0.7-2.1,1.5c-0.5,1.2,0.4,2.6,1.5,3.4c1.8,1.4,4.1,2.1,6.4,2
			c0.8,0,1.6-0.2,2.3-0.7c0.7-0.5,1.1-1.3,0.9-2.2c2,0.2,4,0,5.9-0.7c1-0.3,2.1-1.1,1.8-2.1c-0.2-0.8-1.2-1.1-2-1.2
			s-1.8-0.1-2.3-0.7S55-72.5,55-73.4s-0.2-1.9-1.1-2.1c-1-0.2-1.6,1-2.3,1.7c-0.7,0.6-1.6,0.6-2.5,0.8c-0.9,0.2-1.8,0.5-2.2,1.3
			s0.4,2,1.2,1.7"/>
		<path class="st9" d="M61.6-83.3l-4.1,0.2c0.6,0.5,0,1.6-0.7,1.8c-0.7,0.2-1.6,0-2.3,0.1c-0.8,0.1-1.6,0.7-1.4,1.5
			c0.2,0.5,0.7,0.7,1.2,0.9l5,1.9l-3.8,1.2c-0.2,0-0.4,0.2-0.6,0.4c-0.2,0.3,0,0.7,0.3,0.9c0.3,0.2,0.7,0.2,1,0.2h6
			c1,0,2.2-0.1,2.6-1c0.6-1.1-0.6-2.3-1.6-3.1l4-2.8c0.3-0.2,0.6-0.4,0.5-0.8c0-0.3-0.4-0.6-0.8-0.7c-2.2-0.7-4.5-1-6.7-0.8"/>
		<path class="st9" d="M68.6-66.5L62-65.3c-1.8,0.3-3.8,0.8-4.9,2.3c-1.2,1.6-0.9,4,0.8,5.2c0.7,0.5,1.5,0.7,2.3,0.7l-0.9,1.7
			l8.9,0.3c1.1,0,2.5-0.2,2.7-1.2c0.3-1.2-1.3-2.4-0.8-3.5s2.1-0.8,3.1-1.4c1-0.6,1-2.3,0.2-3.3c-0.8-0.9-2.1-1.3-3.3-1.5
			c-1.2-0.1-2.5-0.1-3.7-0.5"/>
		<path class="st9" d="M69.7-72.2c-2.1-1.6-4.8-2-7.3-1c-1,0.4-1.9,1-2.3,2s0,2.3,0.9,2.7c1,0.4,2.3-0.2,3.1,0.5
			c0.6,0.6,0.4,1.5,0.5,2.3c0.2,2,2.1,3.4,4.1,3.5s3.8-1.2,4.8-2.9c0.4-0.7,0.7-1.4,1.3-2c0.5-0.4,1-0.7,1.4-1.2
			c0.6-0.9,0.3-2.3-0.6-3.1c-0.8-0.8-2-1.1-3-1.4c-1.1-0.3-2.2-0.6-3.1-1.3"/>
	</g>
</g>
<g id="Layer_2_7_">
	<g id="Layer_1-2_6_">
		<rect x="94.1" y="-68" class="st10" width="0.9" height="25.6"/>
		<polygon class="st11" points="95,-66.6 127.4,-66.6 122.6,-61.2 127.7,-57 95,-57 		"/>
	</g>
</g>
<g id="Layer_2_6_">
	<g id="Layer_1-2_5_">
		<rect x="101.2" y="-135" class="st10" width="0.5" height="14.2"/>
		<polygon class="st11" points="101.7,-134.2 119.6,-134.2 117,-131.2 119.8,-128.9 101.7,-128.9 		"/>
	</g>
</g>
<g id="Layer_2_5_">
	<g id="Layer_1-2_4_">
		<path class="st3" d="M0.1-167.2c-0.3-1,1.4-6.1,1.6-7.4c0.5-2.7,0.9-5.5,1.2-8.3c0.6-5.6,0.9-11.3,0.7-16.9
			c-0.1-4.1,0.2-10.5-0.8-14.3c-1-3.5-3.9-4.9-5.5-1.5c-0.7,1.7-0.8,3.8-0.8,5.8C-3.5-195.3-3.6-180.5,0.1-167.2z"/>
		<path class="st3" d="M-3.1-197c-7,2.7-14.1,5.2-21.2,7.6c-0.1-2.2,1.9-3.6,3.5-4.4l18-9.6"/>
		<path class="st3" d="M3.1-197c7,2.7,14.1,5.2,21.2,7.6c0.1-2.2-1.8-3.6-3.5-4.4l-17.9-9.5"/>
		<path class="st3" d="M-1.1-177.2L-1-172l-4.4,0.8v-2.5c1.6-1,3.1-2.3,4.3-3.8"/>
		<path class="st3" d="M0.6-177.2l-0.1,5.4l4.4,0.8v-2.6c-1.6-1.1-3.1-2.4-4.3-3.9"/>
	</g>
</g>
<g>
	<g>
		<path class="st0" d="M-179.1-138.9c-1.4-2.3-3.5-4.3-5.9-5.5c-0.8-0.4-1.6-0.7-2.5-0.7c-0.9,0.1-1.7,0.8-1.7,1.6
			c0,1.3,1.4,1.9,2.6,2.4c3.8,1.8,6.4,6,6.2,10.3c-0.1,2.8-1.3,6,0.5,8.2c1.3,1.6,3.7,1.8,5.8,1.9c1.4,0.1,2.9,0.1,4-0.8
			c1-0.9,1.3-2.4,1.3-3.7c0.1-4.4-1.1-8.8-3.5-12.5"/>
	</g>
	<g>
		<path class="st0" d="M-179.3-121.3c-0.8,3.4-1.3,6.9-1.5,10.3c-0.1,1,0.1,2.3,1.1,2.5c0.8,0.2,1.5-0.5,2-1.2
			c1.7-2.5,2.8-5.3,3.2-8.2c0-0.2,0.1-0.5,0.2-0.7c0.3-0.3,0.8-0.1,1.1,0.3c0.2,0.4,0.2,0.8,0.2,1.2c0,1.3,0.1,12.2,2.7,8
			c0.9-1.5,1-4.8,1.3-6.5c0.4-2.7,0.4-5.7,0.2-8.5"/>
	</g>
	<g>
		<path class="st12" d="M-179.5-123.4c-1.5,3.8-2.5,7.9-2.9,11.9c1.4-1.3,3.6-1.2,5.5-0.7s3.8,1.2,5.7,0.9c1-0.2,1.9-0.6,3-0.7
			s2.2,0.2,2.6,1.1c0.7-2.7,0.5-5.6-0.6-8.2c-0.4-1-1-2-1.3-3.1c-0.3-1.1-0.4-2.3,0.2-3.3"/>
	</g>
	<g>
		<path class="st2" d="M-167.3-130.2c-0.6-1.7-3.1-7.7-5.1-7.8c-0.6,0-1.1,0.2-1.6,0.4c-1.6,0.5-3.4,0.2-4.8-0.6
			c-1.4-0.9-2.4-2.4-2.6-4c-1.6-0.3-4.8-0.7-3.7,2.2c0.4,1,1.2,1.7,1.9,2.5c2.8,3.3,2.9,7.6,2.8,11.7c0,1,0,2.2,0.8,3
			c1,1.1,2.9,1.1,4.5,1.1c2-0.1,4.1-0.2,5.7-1.1C-166.8-124.5-166.4-127.7-167.3-130.2z"/>
	</g>
	<g>
		<path class="st0" d="M-173.7-137.4c-2,1.3-5.1,0.7-6.4-1.4s-0.7-5.1,1.3-6.4c2-1.3,5.1-0.7,6.4,1.3
			C-171-141.9-171.6-138.8-173.7-137.4"/>
	</g>
	<g>
		<g>
			<path class="st13" d="M-173.9-120.9c-0.1-1.1,0.5-2.4,1.8-2.6c1.2-0.1,2.2,1,2.2,2.2c0,1.1,1.6,1.1,1.6,0c0-2.1-1.7-3.9-3.9-3.8
				c-2.1,0.1-3.7,2.2-3.5,4.2C-175.5-119.8-173.8-119.8-173.9-120.9L-173.9-120.9z"/>
		</g>
	</g>
	<g>
		<path class="st13" d="M-176.7-121c3,0.7,6.2,0.7,9.2,0c-0.9,1.8-0.1,4.1-0.8,5.9c-0.6,1.5-2.2,2.5-3.8,2.5c-1.6,0-3.2-0.9-4-2.3
			s-0.9-3.2-0.3-4.7"/>
	</g>
	<g>
		<path class="st0" d="M-172.5-130.5c0.3-0.7,1.5-0.5,1.9,0.1s0.3,1.5,0.2,2.2c-0.1,1.1-0.3,2.2-0.4,3.3c-0.1,0.5-0.1,1-0.4,1.4
			c-0.2,0.4-0.7,0.7-1.2,0.6c-0.8-0.1-1-1.2-1-2.1c0-1.8,0-3.6,0-5.4"/>
	</g>
</g>
<g>
	<g>
		<path class="st0" d="M-142.8-132.6c-2.4,6.5-3.7,13.6-2.2,20.4c0.2,0.8,0.4,1.7,1,2.3c0.6,0.6,1.6,0.9,2.3,0.4
			c0.6-0.4,0.7-1.2,0.8-1.8c0.4-2.6,0.6-5.2,0.5-7.8c0.4,1.1,1.3,1.9,2.4,2.2c0.1,2.2,0.6,4.5,1.4,6.6c0.2,0.5,0.5,1.1,1,1.3
			c0.7,0.2,1.4-0.2,1.7-0.9s0.3-1.3,0.2-2c-0.5-6.8-1.9-13.6-4.1-20.1"/>
	</g>
	<g>
		<path class="st13" d="M-142.8-132.3c-1.9,4.6-2.8,9.7-2.5,14.7c0,0.6,0.1,1.3,0.5,1.8c0.5,0.6,1.4,0.7,2.3,0.7
			c3.2,0.1,6.4,0.3,9.6,0.4c-0.9-6.3-2.5-12.5-5-18.5"/>
	</g>
	<g>
		<path class="st0" d="M-137.6-132.5c-2,1.3-5.1,0.7-6.4-1.4c-1.3-2-0.7-5.1,1.3-6.4c2-1.3,5.1-0.7,6.4,1.3
			C-134.9-136.9-135.5-133.9-137.6-132.5"/>
	</g>
	<g>
		<path class="st0" d="M-143.5-124.6c0.8-0.1,1.7-0.3,2.5-0.4c0,1.3,0,2.6,0.1,4c0,0.5-0.1,1.2-0.6,1.3c-0.3,0.1-0.6-0.1-0.8-0.3
			s-0.3-0.5-0.4-0.8c-0.3-1-0.6-2-0.9-3"/>
	</g>
	<g>
		<path class="st0" d="M-138.3-124.9c0.8,0.2,1.7,0.3,2.5,0.5c-0.4,1.3-0.8,2.5-1.3,3.8c-0.2,0.5-0.5,1.1-1,1
			c-0.3,0-0.5-0.3-0.6-0.6c-0.1-0.3-0.1-0.6-0.1-0.9c0.1-1,0.1-2.1,0.2-3.1"/>
	</g>
</g>
<g>
	<g>
		<path class="st0" d="M-107-132.8c1.4-1.7,3-3.3,4.8-4.7c0.5-0.3,1-0.7,1.5-0.7c0.6-0.1,1.2,0.2,1.3,0.8c0.1,0.7-0.4,1.2-0.9,1.7
			c-1.6,1.6-2.5,3.7-3.3,5.8c-2.3,6.1-3.6,12.5-4,19c0,0.8-0.4,1.9-1.2,1.8c-0.4-0.1-0.7-0.4-0.9-0.7c-0.9-1.5-0.9-3.3-1.4-5
			c-0.4-1.7-1.5-3.5-3.3-3.7c-1.1-0.1-2.1,0.4-3.1,0.9s-2,1-3.1,0.9c-1.1-0.2-2.1-1.3-1.6-2.3c0.4-0.9,1.7-1.1,2.6-1.4
			c1.8-0.6,3.2-2.2,4.1-3.9c2.3-4.1,2.6-9.2,1-13.6c-0.2-0.6-0.5-1.1-0.4-1.7c0-0.6,0.4-1.3,1-1.4c0.6-0.1,1.2,0.6,0.9,1.1"/>
	</g>
	<g>
		<path class="st2" d="M-114.9-125.5c-0.8,1.6-2,3-3.3,4.2c0.7,1.3,1.4,2.6,2.1,3.9c0.8-1.1,2.6-1.2,3.5-0.2c0.6,0.7,0.7,1.6,1,2.5
			c0.2,0.9,0.7,1.8,1.6,2.1c0.7,0.2,1.6-0.2,2.1-0.8s0.8-1.3,1-2.1c0.8-2.2,1.5-4.4,1.2-6.7"/>
	</g>
	<g>
		<path class="st13" d="M-111.3-135.2c-0.3,1.2-0.7,2.4-1,3.7c-0.4,1.5-0.8,3.1-1.3,4.6c-0.1,0.4-0.2,0.9,0,1.2
			c0.2,0.2,0.4,0.4,0.7,0.5c2.2,1,4.6,1.6,7.1,1.6c0.4-1.4,0.7-2.8,1.1-4.2c0.1-0.3,0.1-0.6,0.1-0.9c-0.1-0.6-0.5-1-0.8-1.4
			c-0.9-1.3-1-3.1-0.3-4.5c-1.7-0.2-3.3-0.5-4.9-1.1"/>
		<g>
			<path class="st14" d="M-112.1-135.4c-0.6,2.1-1.2,4.3-1.8,6.4c-0.3,1.1-1.1,2.7-0.4,3.8c1.4,2.1,6.3,2.4,8.4,2.5
				c0.4,0,0.7-0.3,0.8-0.6c0.4-1.6,1.4-3.8,1.2-5.5c-0.1-0.7-0.6-1.1-0.9-1.6c-0.8-1.3-0.8-2.5-0.2-3.9c0.2-0.5-0.3-1-0.8-1
				c-1.6-0.2-3.1-0.6-4.6-1.1c-1-0.3-1.4,1.2-0.4,1.6c1.7,0.6,3.3,0.9,5.1,1.1c-0.3-0.3-0.5-0.7-0.8-1c-0.6,1.4-0.7,2.9,0,4.4
				c0.6,1.5,1.1,1.1,0.8,3.3c-0.1,1.1-0.6,2.3-0.8,3.4c0.3-0.2,0.5-0.4,0.8-0.6c-1.3,0-2.6-0.2-3.8-0.5c-1.4-0.4-3.2-0.6-3.1-2.3
				c0.1-2.5,1.5-5.4,2.1-7.8C-110.2-136-111.8-136.5-112.1-135.4L-112.1-135.4z"/>
		</g>
	</g>
	<g>
		<path class="st0" d="M-105.8-133c-2,1.3-5.1,0.7-6.4-1.4c-1.3-2-0.7-5.1,1.3-6.4c2-1.3,5.1-0.7,6.4,1.3
			C-103.1-137.5-103.7-134.4-105.8-133"/>
	</g>
</g>
<g>
	<g>
		<path class="st0" d="M-82.3-132.6c-2.5-0.2-5,0.2-7.3,1c-0.6,0.2-1.2,0.5-1.3,1.1c-0.1,0.7,0.7,1.3,1.5,1.3c0.8,0,1.5-0.4,2.2-0.5
			c2-0.3,4.3,1.6,4.6,3.6c0.4,2.4-2.1,4.6-3.3,6.3c-1.2,1.6-2.3,3.7-1.8,5.6c2.5-0.6,4.6-2.4,5.6-4.7c0.4-0.9,0.6-1.9,1.2-2.7
			c0.5-0.8,1.5-1.5,2.4-1.3c0.6,0.1,1.1,0.6,1.6,1c2.5,2.2,4.9,4.4,7.4,6.6c0.2-1.9-0.9-3.8-2.1-5.3s-2.6-3-3.2-4.9s0.2-4.3,2.1-4.9
			c0.8-0.2,1.6-0.1,2.4-0.4s1.3-1.4,0.7-1.9c-0.3-0.3-0.8-0.3-1.2-0.2c-2.5,0.2-5.1,0.4-7.6,0.6"/>
		<g>
			<path class="st15" d="M-82.3-133.4c-1.2,0-12.6,0.7-8.7,4.4c0.5,0.5,0.9,0.3,1.5,0.6c0.3,0.2,1.4-0.2,1.4-0.2
				c1.3,1.8,2.5,3.7,3.8,5.5c-0.5,0.6-1,1.2-1.5,1.8c-1.7,2.2-3,4.2-2.8,7.1c0,0.5,0.5,1,1,0.8c2.8-0.9,4.1-2.3,5.8-4.5
				c1.3-1.7-1.6,0.6,2.3-2.1c2.4-1.7,2-1.3,3.8,0.3c1.9,1.6,3.7,3.3,5.6,4.9c0.5,0.5,1.4,0.2,1.4-0.6c0-2.6-1.2-4.4-2.7-6.4
				c-0.7-0.9-2.6-2.8-2.6-4.1c0-0.5,2.5-3.8,2.7-4c0.8-0.5,1.6-0.1,2.3-1c3.3-4.5-8.4-2.4-9.4-2.4c-1,0.1-1.1,1.7,0,1.6
				c2-0.1,4.1-0.6,6.1-0.4c3,0.2,0.6,0.1-0.6,0.7c-1.2,0.6-2,1.1-2.5,2.5c-2,5.3,5.1,8.5,5.1,13.4c0.5-0.2,0.9-0.4,1.4-0.6
				c-2.4-2.2-4.8-4.7-7.4-6.6c-0.9-0.6-1.5-1.2-2.6-1.2c-1.1,0.1-1.9,0.6-2.5,1.5c-2.3,2.9-2.2,5.7-6.5,7.2c0.3,0.3,0.7,0.5,1,0.8
				c-0.4-4.9,7.6-8.8,4.5-13.8c-0.8-1.3-2.1-2.3-3.6-2.6c0.3,0-2.9,0-2.4,0.3c0.4-1.4,1.5-1.9,3.2-1.5c1-0.1,2-0.1,3-0.1
				C-81.2-131.7-81.2-133.4-82.3-133.4L-82.3-133.4z"/>
		</g>
	</g>
	<g>
		<path class="st2" d="M-83.4-125.3c-1,1.4-2,2.8-3,4.2c-0.3,0.4-0.5,0.8-0.3,1.2c0.1,0.3,0.5,0.4,0.8,0.6c1.3,0.5,2.6,1,3.9,1.5
			c0.2,0.1,0.4,0.1,0.6,0.1c0.6-0.1,0.7-0.8,0.9-1.3c0.4-1.8,1.5-2.5,3-0.9c0.6,0.7,1.2,1.6,2.2,1.7c0.3,0,0.5,0,0.8-0.1
			c1.3-0.3,6.5-0.6,4.9-2.4c-1.3-1.4-2.7-2.8-4.1-4.1"/>
	</g>
	<g>
		<path class="st12" d="M-83.1-134.4c-2,0.7-4,1.4-6.1,2c1.5,1.2,1.6,2.5,1.7,4.3c0.8-0.4,1.8-0.3,2.4,0.2c1,0.8,0.4,1.9,1.6,2.6
			c1.2,0.7,3.6,0.3,5,0.9c1,0.4,1.9,0.9,2.9,1.2c5.6,1.6-0.2-5.7,1.2-5.7c1.1,0,2.1,0,3.2-0.1c-0.5-0.7-0.4-1.7-0.5-2.6
			c-0.1-0.9-0.5-1.9-1.4-2c-1.4-0.2-3.5,1.1-4.4-0.8"/>
	</g>
	<g>
		<path class="st0" d="M-77.4-133c-2,1.3-5.1,0.7-6.4-1.4c-1.3-2-0.7-5.1,1.3-6.4c2-1.3,5.1-0.7,6.4,1.3
			C-74.7-137.5-75.3-134.4-77.4-133"/>
	</g>
</g>
<g>
	<g>
		<path class="st0" d="M-51-133.8c-3.3,0.4-6,2-7.9,4.7c-0.4,0.5-0.7,1.2-0.7,1.8c0,0.7,0.5,1.3,1.1,1.4c1.5,0.2,1.8-2.5,3.3-2.9
			c0.8-0.2,1.5,0.4,1.8,1.1c0.3,0.7,0.3,1.5,0.3,2.3c-0.1,3.4-0.3,6.7-0.4,10.1c-0.1,1.4,0.3,3.3,1.7,3.4c0.7,0.1,1.4-0.5,1.7-1.1
			c0.3-0.6,0.4-1.4,0.5-2.1c0.2-2.4,0.4-4.8,0.7-7.2c0.6,2.4,1.2,4.9,1.9,7.3c0.2,0.7,0.5,1.6,1.2,1.8c0.8,0.3,1.6-0.3,2-1
			c0.3-0.8,0.2-1.6,0.1-2.4c-0.4-3.4-0.8-6.7-1.2-10.1c-0.1-0.5-0.1-1,0.2-1.4c0.5-0.6,1.5-0.5,2.1,0c0.6,0.5,0.9,1.3,1.5,1.8
			c0.5,0.6,1.5,1,2.1,0.5c0.6-0.4,0.6-1.3,0.3-1.9c-1.3-2.4-5.1-5.1-7.7-5.8"/>
	</g>
	<g>
		<path class="st2" d="M-53.3-125c0.4,1.1,0.1,2.3-0.1,3.5s-0.3,2.5,0.5,3.3c1,1.2,2.9,1,4.4,0.8c0-0.9,0.2-1.8,0.7-2.5
			c0.4,1.1,0.9,2.3,1.9,3.1c1,0.8,2.5,0.9,3.3-0.1c0.6-0.8,0.5-1.9,0.3-2.8c-0.3-1.6-0.6-3.2-0.9-4.8"/>
	</g>
	<g>
		<path class="st16" d="M-52.9-133.4c0,2-0.1,4-0.1,6c-0.1,4.2,6,3.3,9,3c0.4-1.6,0.7-3.3-0.3-4.6c-0.4-0.5-0.9-0.8-1.2-1.3
			c-0.8-1.1-0.5-2.7-0.2-4c-2,0.8-4.1,1-6.2,0.8"/>
		<g>
			<path class="st16" d="M-53.7-133.4c-0.1,2.2-0.5,4.7-0.1,6.8c0.2,1.1,0.9,2,1.9,2.5c2.3,1.3,5.4,0.7,7.9,0.4
				c0.3,0,0.7-0.2,0.8-0.6c0.3-1.5,0.6-3.1,0-4.5c-0.2-0.5-0.6-0.9-0.9-1.3c-1.2-1.4-1.2-2.4-0.8-4.1c0.1-0.6-0.4-1.2-1-1
				c-2,0.7-3.9,0.9-6,0.8c-1.1-0.1-1,1.6,0,1.6c2.2,0.2,4.3-0.1,6.4-0.8c-0.3-0.3-0.7-0.7-1-1c-0.3,1.3-0.6,2.8,0,4.2
				c0.3,0.6,0.8,1,1.2,1.6c1.1,1.3,0.8,2.7,0.5,4.3c0.3-0.2,0.5-0.4,0.8-0.6c-2,0.2-4.2,0.6-6.2,0.1c-1.3-0.3-1.8-0.9-2-2.3
				c-0.2-1.9,0.1-4,0.1-6C-52-134.5-53.7-134.5-53.7-133.4L-53.7-133.4z"/>
		</g>
	</g>
	<g>
		<path class="st0" d="M-46.7-133.6c-2,1.3-5.1,0.7-6.4-1.4s-0.7-5.1,1.3-6.4c2-1.3,5.1-0.7,6.4,1.3C-44-138-44.6-135-46.7-133.6"/>
	</g>
	<g>
		<path class="st13" d="M-61.6-125.6c1-0.3,2-0.6,3.1-0.9"/>
		<g>
			<path class="st14" d="M-61.4-124.8c1-0.3,2-0.6,3.1-0.9c1-0.3,0.6-1.9-0.4-1.6c-1,0.3-2,0.6-3.1,0.9
				C-62.8-126.1-62.4-124.5-61.4-124.8L-61.4-124.8z"/>
		</g>
	</g>
	<g>
		<path class="st13" d="M-39.1-125.9c0.7,0,1.5,0,2.2,0"/>
		<g>
			<path class="st14" d="M-39.1-125.1c0.7,0,1.5,0,2.2,0c1.1,0,1.1-1.6,0-1.6c-0.7,0-1.5,0-2.2,0C-40.2-126.7-40.2-125.1-39.1-125.1
				L-39.1-125.1z"/>
		</g>
	</g>
	<g>
		<g>
			<path class="st14" d="M-61.7-125.7c-1-8.2,0.5-24.7,10.6-26.4c10.4-1.8,14.6,17.7,15.1,25.1c0,0.5,0.9,0.5,0.8,0
				c-0.4-6.3-2-12.4-5-17.9c-2.1-3.8-5.3-8.9-10.3-8.6c-11.2,0.6-13,20-12,27.8C-62.4-125.2-61.6-125.2-61.7-125.7L-61.7-125.7z"/>
		</g>
	</g>
</g>
<g>
	<g>
		<path class="st0" d="M-143.6-85c-1.1,1.3-2.3,2.7-3,4.3c-0.7,1.6-0.9,3.5-0.1,5.1c0.5,1,1.3,1.8,1.9,2.7c1.9,3.2,0.6,7.3,1.2,10.9
			c0.1,0.6,0.3,1.2,0.7,1.6c0.7,0.6,1.9,0.3,2.5-0.5c0.6-0.7,0.7-1.8,0.8-2.7c0.1-2.6,1.3-4.6,4.2-2.8c1.1,0.7,2,1.8,3.1,2.6
			c1.1,0.8,2.6,1.2,3.7,0.4c1.1-0.8-2-4.4-2.5-4.9c-1.5-1.2-3.7-1.4-2.2-4c0.4-0.7,1.1-1.1,1.6-1.7c1.4-1.7,1.2-4.3,0-6.2
			c-1.1-1.9-3-3.2-4.8-4.4"/>
	</g>
	<g>
		<path class="st17" d="M-130.9-77.9c-1.1-1-0.1-3.9-2-5.3c-1.4-1-3.4-1-5.1-0.9c-1.9,0-4.3,0-5.9,0.8c-1.9,1-4.2,4-2.5,6.1
			c0.6,0.8,1.9,0.2,2.8,0.6c1,0.5,1,1.9,0.7,2.9c-0.3,1-0.9,2.1-0.6,3.2c1.5,5.1,10.1-1.3,10.6,0.1
			C-133.4-71.8-134.9-81.7-130.9-77.9z"/>
		<g>
			<path class="st17" d="M-130.2-78.4c-1.3-1.8-0.3-4.1-2.3-5.6c-2-1.4-5-1.1-7.2-1c-3.4,0.1-9.9,2.7-7.9,7.4
				c0.4,0.9,0.7,0.9,1.4,1.4c0.3,0.2,0.8,0,1,0.1c2.5,1.8,1,2.2,0.8,4.1c-0.2,1.5,0.4,3,1.8,3.7c1.4,0.7,3,0.4,4.4,0
				c0.5-0.1,4.6-1.9,4.7-1.8c0.5,0.6,1.6,0,1.4-0.8c-0.4-1.1-0.5-2.4-0.6-3.6c-0.1-1-0.5-4.5,1.2-3.1c0.8,0.7,2-0.5,1.2-1.2
				c-5-4.2-4.2,5.7-3.3,8.2c0.5-0.3,0.9-0.5,1.4-0.8c-1-1.2-3.7,0.4-4.7,0.8c-1.2,0.4-3.1,1.3-4.3,0.9c-2.6-0.8-0.3-4.3-0.7-6.2
				c-0.3-1.5-1.1-1.3-2.1-2c-1-0.7-3.3,2.1-1.7-2.7c0.5-1.5,2.3-2.5,3.7-2.8c1.8-0.4,5.6-0.7,7.4-0.1c3.3,1.1,1.7,3.6,3.1,5.6
				C-131-76.7-129.5-77.5-130.2-78.4z"/>
		</g>
	</g>
	<g>
		<path class="st0" d="M-137.6-83.8c-2,1.3-5.1,0.7-6.4-1.4c-1.3-2-0.7-5.1,1.3-6.4c2-1.3,5.1-0.7,6.4,1.3
			C-134.9-88.2-135.5-85.2-137.6-83.8"/>
	</g>
	<g>
		<path class="st12" d="M-143.6-69.6c-0.1,2.1-0.2,4.2-0.2,6.2c1.4,0.1,2.7,0.2,4.1,0.4c0.3,0,0.2-4.8,3.6-3.6
			c1.6,0.6,2.8,2.4,4.4,2.1c1.4-0.3,2-2,1.5-3.4c-0.5-1.3-1.7-2.2-2.8-3"/>
	</g>
	<g>
		<path class="st18" d="M-127-65c-1.6,0.5-2.8,2.3-2.4,3.9c0.3,1.7,2,2.9,3.7,2.8c1.7-0.2,3.1-1.7,3.1-3.4c0-1.7-1.4-3.3-3.1-3.4"/>
	</g>
</g>
<g>
	<g>
		<path class="st0" d="M27.3,28.8c-2.1,6.8-2.8,14.1-2.1,21.1c0.1,0.6,0.1,1.2,0.4,1.7c0.3,0.5,0.9,0.9,1.5,0.8
			c1.7-0.4,1.6-4.4,2-5.8c0.6-1.8,1.4-3.3,1.6-5.3c1.5,2.6,2.8,5.3,4.1,7.9c0.1,0.3,0.3,0.5,0.5,0.7c0.6,0.4,1.4-0.2,1.6-0.9
			c0.1-0.7-0.2-1.4-0.5-2.1c-2.9-6.1-4.2-12.9-3.7-19.6"/>
		<g>
			<path class="st15" d="M26.5,28.6c-1.5,5.2-2.4,10.6-2.4,16c0,2-0.6,7.1,1.7,8.3c1.4,0.7,2.4,0,3.2-1.2c0.7-1.2,0.6-2.8,0.9-4.2
				c0.5-2,1.4-3.9,1.8-6c-0.5,0.1-1,0.1-1.5,0.2c0.6,1.1,5.2,13.3,7.6,7.7c0.9-2-1.8-5.8-2.3-7.4c-1.5-4.8-2-9.7-1.8-14.7
				c0.1-1.1-1.6-1.1-1.6,0c-0.2,4.9,0.2,9.6,1.6,14.3c0.2,0.6,2.4,7.1,2,7.2c-0.6,0-3.7-7.1-4.1-7.9c-0.3-0.6-1.4-0.5-1.5,0.2
				c-0.4,2.1-1.4,3.9-1.8,6c-0.2,0.7,0,1.9-0.4,2.5c-1.2,2-1.8,0.6-2-1.5c-0.5-6.5,0.4-12.9,2.2-19.1C28.4,28,26.8,27.5,26.5,28.6
				L26.5,28.6z"/>
		</g>
	</g>
	<g>
		<path class="st13" d="M33.3,37.8c-0.4-0.1-0.8-0.1-1.4-0.2c-1.6-0.2-6.2-0.4-7.5,0.6c-1.5,1.1-0.9,5.4-0.6,7.1
			c0.1,0.7,0.3,1.5,0.9,1.9c0.5,0.4,6.4-0.6,6.4-0.6c0-0.9,0.1-1.8,0.1-2.8c1.1,0.5,2,1.6,2,2.9c0,0.3,4,0.4,4.2-1
			c0.1-0.5-0.1-1.1-0.3-1.6c-0.6-1.5-1-3.6-1.8-4.9C34.5,38.1,34.1,37.9,33.3,37.8z"/>
	</g>
	<g>
		<path class="st12" d="M27.3,27.7c-2.3,3.4-3.5,7.5-3.4,11.6c0,0,5.7-0.4,6.2-0.4c2.2-0.1,3.7,0.3,4.5-1.7c1.2-2.8-1.2-7.9-2-10.6"
			/>
	</g>
	<g>
		<path class="st0" d="M31.7,27.4c-2,1.3-5.1,0.7-6.4-1.4s-0.7-5.1,1.3-6.4s5.1-0.7,6.4,1.3S33.8,26,31.7,27.4"/>
	</g>
	<g>
		<g>
			<path class="st0" d="M28.8,34.1c-0.1,0.8,0.6,1.4,1.3,1.5c0.9,0.1,1.5-0.6,1.8-1.3c0.1-0.2,0.2-0.4,0.3-0.6
				c0.1-0.1,0.4-0.3,0.1-0.3c-0.3,0-0.7,0.9-0.8,1.2c-0.2,0.3-0.5,1.1-0.9,1.2c-0.4,0.1-0.4-0.8-0.4-1c0-1.1-1.7-1.1-1.6,0
				c0,1.2,0.4,2.6,1.9,2.7c1.4,0.1,2.2-1.6,2.8-2.6c0.3-0.6,0.8-1.2,0.6-1.9c-0.1-0.6-0.6-1-1.2-1.1c-0.6-0.1-1.1,0.1-1.5,0.5
				c-0.2,0.2-0.3,0.5-0.5,0.7c-0.1,0.2-0.1,0.3-0.2,0.5c0,0.1-0.1,0.1-0.1,0.2c-0.1,0.1-0.1,0.2,0,0.4
				C30.5,33.1,28.9,33.1,28.8,34.1L28.8,34.1z"/>
		</g>
	</g>
	<g>
		<path class="st17" d="M25.4,28.5c-0.1-0.8-1.2-1.1-1.9-0.7s-1,1.2-1.3,2c-0.9,2.8-1.5,5.7-1.7,8.6c0,0.6,0,1.2,0.2,1.7
			s0.8,1,1.4,0.9c0.7-0.1,1-1,1.2-1.7c1-3.5,2-6.9,2.9-10.4"/>
		<g>
			<path class="st17" d="M26.1,28.1c-1.1-2.3-3.5-1-4.4,0.7c-1.3,2.8-2.4,7.6-1.9,10.7c0.3,2,2.4,3.1,3.8,1.4
				c0.9-1.1,1.1-2.9,1.4-4.2c0.7-2.5,1.4-5,2.1-7.6c0.3-1-1.3-1.5-1.6-0.4c-0.5,1.7-1,3.5-1.5,5.2c-0.2,0.7-0.9,5-1.5,5.2
				c-0.4-0.2-0.8-0.5-1.2-0.7c0-0.5,0.1-1,0.1-1.5c0.1-1.1,0.3-2.1,0.5-3.2c0.2-1,0.4-1.9,0.7-2.8c0.1-0.3,1.2-3.5,2-2
				C25.1,29.9,26.5,29,26.1,28.1L26.1,28.1z"/>
		</g>
	</g>
	<g>
		<g>
			<path class="st17" d="M27.4,30.8c0.8-1.5,3.1-0.7,2.7,1c-0.1,0.5,0.7,0.7,0.8,0.2c0.3-1.1-0.3-2.3-1.4-2.8
				c-1.1-0.4-2.3,0.1-2.9,1.1C26.4,30.8,27.1,31.3,27.4,30.8L27.4,30.8z"/>
		</g>
	</g>
	<g>
		<g>
			<path class="st17" d="M24.1,40.2c1.8-0.3,3.5-1.1,4.8-2.4c0.4-0.4-0.2-0.9-0.6-0.6c-1.3,1.2-2.8,1.9-4.5,2.1
				C23.4,39.5,23.6,40.3,24.1,40.2L24.1,40.2z"/>
		</g>
	</g>
</g>
<g>
	<g>
		<path class="st0" d="M-61.2-57.5c-0.1,0.7-0.1,1.5,0.4,2c0.7,0.8,2.1,0.4,2.8-0.4c0.7-0.8,0.8-1.9,1-3s0.7-2.1,1.6-2.6
			c4.7-2.4,4.9,8.5,8.8,6.1c1.3-0.8,0.9-2.7,0.5-4.2c-1.6-5-2.1-10.1-2.2-15.3c-0.1-5.1,1.4-10.3,1.9-15.4c0.1-1,0-2.4-1-2.7
			c-0.7-0.2-1.4,0.3-1.9,0.8c-2.1,2.2-3.2,6.7-4.3,9.6c-0.9,0-1.6-0.5-2-1.3c-0.4-0.7-0.6-1.6-0.7-2.4c-0.3-1.7-0.6-3.3-0.9-5
			c-0.2-1.1-0.7-2.5-1.8-2.7c-0.9-0.1-1.7,0.7-1.9,1.6c-0.6,2.7,0.4,6.4,0.7,9.2c0.4,3.3,0.7,6.6,0.7,9.9
			C-59.7-68-60.8-62.7-61.2-57.5z"/>
	</g>
	<g>
		<path class="st13" d="M-60.4-66.1c0.7-0.2,1.4,0.5,1.5,1.2c0.2,0.7,0,1.4,0,2.2s0.2,1.5,0.9,1.9c0.6,0.3,1.2,0,1.8-0.1
			c2.2-0.6,4.6-0.6,6.8,0.2c-0.2-1.8-0.1-3.6,0.4-5.3c0.3-1,0.7-2,0.9-3c0.2-1,0-2.2-0.8-2.9c-0.8-0.8-2.1-0.8-3.2-0.8
			c-2,0-4.1,0-6.1,0c-0.7,0-1.5,0-2,0.5c-0.7,0.6-0.6,1.7-0.4,2.6c0.2,0.9,0.5,1.9,0.1,2.7"/>
		<g>
			<path class="st14" d="M-60.4-65.2c1,0.1,0.4,4.4,2.1,5.2c0.8,0.4,1.6,0.1,2.4-0.1c2.3-0.4,4.2-0.5,6.4,0.2c0.5,0.1,1.1-0.3,1-0.8
				c-0.2-2,0-3.8,0.6-5.8c0.4-1.2,0.9-2.4,0.7-3.7c-0.3-2.1-1.8-3.1-3.8-3.3c-1.6-0.1-3.3,0-5-0.1c-1.2,0-2.7-0.2-3.9,0.2
				c-2.9,1.1-0.8,4.2-1.4,6.2c-0.3,1,1.3,1.4,1.6,0.4c0.5-1.8-1-4.3,1.6-5.3c0.8-0.3,2.2,0,3,0c1,0,2,0,3,0c1.5,0.1,2.9,0.5,3.2,2.3
				c0.2,1-0.7,2.5-0.9,3.4c-0.5,1.8-0.6,3.6-0.4,5.5c0.3-0.3,0.7-0.5,1-0.8c-1.5-0.4-2.9-0.7-4.5-0.6c-0.7,0-1.2,0.2-1.9,0.2
				c-0.6,0.3-1.2,0.3-1.7-0.3c-0.8-0.1-1.1-0.5-0.8-1.2c-0.4-1.7,0-3.4-2.4-3.5C-61.4-67-61.4-65.3-60.4-65.2L-60.4-65.2z"/>
		</g>
	</g>
	<g>
		<path class="st0" d="M-51.7-59.7c-2,1.3-5.1,0.7-6.4-1.4s-0.7-5.1,1.3-6.4c2-1.3,5.1-0.7,6.4,1.3S-49.6-61.1-51.7-59.7"/>
	</g>
	<g>
		<path class="st17" d="M-59.4-77.9c3.7-0.2,7.3,0,10.9,0.6c0.1-2.5,0.5-5,1.1-7.4c-0.6-0.5-1.1-1-1.8-1.3c-2.5-1-2.6,2-4.6,2.2
			c-1.8,0.2-2.9-1.9-2-3.4c-1.6,0.1-3.2,0.3-4.8,0.4c0.3,3.1,0.7,6.2,1.2,9.3"/>
		<g>
			<path class="st17" d="M-59.4-77.1c3.6-0.2,7.2,0,10.7,0.6c0.5,0.1,1-0.2,1-0.8c0.2-2.4,0.5-4.8,1.1-7.2c0.1-0.3,0-0.6-0.2-0.8
				c-1.1-0.9-2.4-2.1-4-1.6c-0.5,0.1-0.9,0.5-1.3,0.8c-0.2,0.2-0.4,0.6-0.6,0.7c-1.1,0.6-3,0.2-2.3-1.6c0.2-0.5-0.3-1.1-0.8-1
				c-1.6,0.1-3.2,0.3-4.8,0.4c-0.4,0-0.9,0.4-0.8,0.8c0.3,3.1,0.7,6.2,1.2,9.3c0.1,1,1.8,1,1.6,0c-0.4-3.1-0.8-6.2-1.2-9.3
				c-0.3,0.3-0.5,0.5-0.8,0.8c1.6-0.1,3.2-0.3,4.8-0.4c-0.3-0.3-0.5-0.7-0.8-1c-0.9,2.3,0.8,5.3,3.5,4.3c0.4-0.2,0.8-0.5,1.2-0.8
				c0.2-0.2,0.4-0.6,0.7-0.7c0.5-0.3,1.7-0.7,2.3-0.3c1.2,0.8-0.3,6.1-0.4,7.6c0.3-0.3,0.7-0.5,1-0.8c-3.7-0.6-7.4-0.8-11.1-0.6
				C-60.4-78.7-60.4-77.1-59.4-77.1L-59.4-77.1z"/>
		</g>
	</g>
</g>
<g>
	<g>
		<path class="st8" d="M-189.6-26.6c2.6-0.4,5.1,0.1,7.7-0.5c6.5-1.6,12.3-6.1,18.1-9.5c-1.7-0.8-3.7-0.7-5.5-0.1
			c-1.8,0.6-3.4,1.7-5,2.7c-4.6,2.8-9.6,4.9-14.8,6.3"/>
	</g>
	<g>
		<path class="st8" d="M-179.1-33.9c0.4-0.4,0.7-0.8,0.9-1.2c1.1-2,1-5.4,0.8-7.7c0-0.5-0.1-1.1-0.6-1.4c-0.5-0.2-1,0-1.5,0.2
			c-2.9,1.6-5.7,3.2-8.5,5c-2.2,1.4-4.7,1.9-4.3,4.9c0.1,1.2,0.3,2.5,0.4,3.7c0.1,0.5,0.2,1.1,0.5,1.5c0.7,0.7,1.9,0.3,2.8-0.1
			c1.7-0.8,3.3-1.6,5-2.4C-182-31.9-180.3-32.7-179.1-33.9z"/>
	</g>
	<g>
		<path class="st0" d="M-178.3-41.7c-1.4,2.3-2.8,4.7-3.1,7.4c-0.3,2.7,1,5.7,3.6,6.6c1.6,0.6,3.3,0.2,4.9,0.3
			c1.6,0.1,3.5,0.9,3.8,2.5c0.2,0.9-0.2,1.9-0.3,2.9c-0.1,1,0.5,2.1,1.4,2.1c0.9,0,1.4-1.2,1.6-2.1c0.5-2.3,1.1-4.7,0.4-6.9
			s-3.2-4.1-5.4-3.3"/>
		<g>
			<path class="st15" d="M-179.1-42.1c-2.4,4-5.2,9.8-1.3,13.8c1.8,1.8,3.8,1.7,6.1,1.8c5,0.2,2.4,4.7,4.8,6.9
				c3.1,2.7,4.3-3.3,4.5-5c0.5-4.3-1.6-9.1-6.6-8.2c-1,0.2-0.6,1.8,0.4,1.6c6.8-1.2,4.1,9.2,4,9.2c-1.7-0.1-0.9-2-1.2-2.7
				c-0.5-1.1-0.7-1.8-1.9-2.5c-1.8-1.1-3.4-0.5-5.3-0.8c-8-1.3-4.8-8.8-2.2-13.2C-177.1-42.2-178.5-43.1-179.1-42.1L-179.1-42.1z"/>
		</g>
	</g>
	<g>
		<path class="st0" d="M-172.6-42.3c-0.8,2.7,0.8,5.9,3.5,6.8c1.8,0.6,4,0.4,5.2,1.9c0.6,0.8,0.8,1.8,0.8,2.8c0,2.6-0.9,5.2-1.9,7.6
			c-0.3,0-0.5-0.1-0.8-0.1c0.9-1.2,0.2-2.9-0.9-3.9c-1.1-1-2.5-1.6-3.6-2.6c-1.9-1.7-2.6-4.5-4.4-6.3c-0.8-0.9-1.9-1.5-2.7-2.4
			c-0.8-0.9-1.3-2.2-0.9-3.3c1.6,0,3.2,0,4.8,0"/>
		<g>
			<path class="st15" d="M-173.4-42.5c-0.5,2.5,0.1,5.1,2.3,6.8c1.5,1.1,3.2,0.7,4.6,1.6c4.1,2.5,2,7.3,0.7,10.6
				c0.3-0.2,0.7-0.4,1-0.6c-0.3,0-0.5-0.1-0.8-0.1c0.2,0.4,0.3,0.8,0.5,1.2c1.1-2.4-0.1-4.2-2-5.7c-1.4-1.1-2.7-1.8-3.8-3.3
				c-0.6-0.9-1.1-2-1.7-2.9c-1.4-2.1-5.1-4.3-4.8-7c-0.3,0.3-0.5,0.5-0.8,0.8c1.6,0,3.2,0,4.8,0c1.1,0,1.1-1.6,0-1.6
				c-1.6,0-3.2,0-4.8,0c-0.5,0-0.8,0.4-0.8,0.8c-0.5,3.8,3.5,5.4,5.3,8.3c0.8,1.3,1.5,2.7,2.6,3.9c1.5,1.5,6,3.1,4.7,5.9
				c-0.2,0.4-0.1,1.1,0.5,1.2c0.3,0,0.5,0.1,0.8,0.1c0.5,0.1,0.8-0.1,1-0.6c1.1-2.9,3.3-8.1,1-11c-2.7-3.5-10-0.9-8.6-8
				C-171.6-43.1-173.2-43.5-173.4-42.5L-173.4-42.5z"/>
		</g>
	</g>
	<g>
		<path class="st12" d="M-169.7-37.2c-0.8-0.3-1.8-1-2.2-1.8c-0.2-0.4,0-3.7-0.1-3.8c-1.8-0.3-3.7-0.2-5.5,0.2
			c-2.7,0.5-4.2,4.8-4.6,7.2c-0.5,2.2-0.1,4.8,1.6,6.4c1.7,1.6,4.2,2,6.5,2.2c0.9,0.1,1.9,0.2,2.7,0.7c0.8,0.5,1.4,1.5,1,2.4
			c0.7-1.4,2-2.5,3.2-3.4s2.6-1.9,3.4-3.3s1-3.2,0-4.5C-165.1-36.6-167.7-36.3-169.7-37.2z"/>
	</g>
	<g>
		<path class="st0" d="M-173.1-42.2c-2,1.3-5.1,0.7-6.4-1.4c-1.3-2-0.7-5.1,1.3-6.4s5.1-0.7,6.4,1.3
			C-170.4-46.6-171-43.6-173.1-42.2"/>
	</g>
	<g>
		<path class="st0" d="M-176.6-34.8c1.1,0.9,2.4,1.5,3.7,1.9c0.3,0.1,0.7,0.2,1.1,0.1s0.7-0.3,0.7-0.7c0-0.4-0.3-0.8-0.7-1
			c-1.1-0.8-2.3-1.3-3.5-1.6"/>
	</g>
	<g>
		<g>
			<path class="st0" d="M-171.8-38c0,1.1,0.5,2.1,1.4,2.7c0.4,0.3,1.1,0,1.2-0.5c0.2-0.8,0.1-1.6-0.4-2.3c-0.6-0.9-2-0.1-1.4,0.8
				c0.2,0.3,0.3,0.7,0.2,1.1c0.4-0.2,0.8-0.3,1.2-0.5c-0.4-0.3-0.6-0.8-0.6-1.3C-170.1-39.1-171.8-39.1-171.8-38L-171.8-38z"/>
		</g>
	</g>
	<g>
		<g>
			<path class="st8" d="M-190.4-25.6c0,1.3,0,2.5,0,3.8c0,1.1,1.6,1.1,1.6,0c0-1.3,0-2.5,0-3.8C-188.7-26.7-190.4-26.7-190.4-25.6
				L-190.4-25.6z"/>
		</g>
	</g>
	<g>
		<g>
			<path class="st8" d="M-182.3-25.1c0,1.1,0,2.2,0,3.3c0,1.1,1.6,1.1,1.6,0c0-1.1,0-2.2,0-3.3C-180.6-26.2-182.3-26.2-182.3-25.1
				L-182.3-25.1z"/>
		</g>
	</g>
</g>
<g>
	<g>
		<path class="st0" d="M-180.3-87.6c1.8-3.1,5.9-4.5,9.4-3.5c3.5,1,6.1,4.2,6.9,7.7c0.9,3.5,0.1,7.3-1.5,10.5
			c-0.3,0.6-0.9,1.2-1.4,0.9c-0.3-0.2-0.4-0.5-0.5-0.8c-0.6-2.3-1.2-4.6-1.9-6.8c-0.4,2.3-0.8,4.6-1.2,6.9c-0.1,0.3-0.1,0.7-0.4,0.9
			c-1.9,1.6-2.2-6.5-2.9-7.3c-2-2.7-6.1-0.8-8.1,1c-0.6,0.5-1.1,1.1-1.8,1.4c-0.7,0.3-1.6,0.3-2-0.4c-0.5-0.8,0-1.8,0.6-2.6
			c1.2-1.4,2.5-2.7,3.9-3.8"/>
		<g>
			<path class="st15" d="M-179.6-87.2c4.5-6.5,13.2-2.6,14.8,4c0.5,1.9,0.8,5.9-0.5,7.5c-1.5,2-1.9,0.7-2.4-0.9
				c-0.3-1.1-0.6-2.3-0.9-3.4c-0.2-0.7-1.4-0.8-1.6,0c-0.3,1.5-0.2,4.9-1.1,6.2c-0.7,1.1-0.7-0.4-0.9-1.5c-0.3-1.7-0.2-3.7-1.5-4.9
				c-1.5-1.5-3.7-1.4-5.5-0.7c-0.9,0.3-1.8,1.2-2.7,1.5c-0.6,0.2-1.9,0.7-1.9-0.8c0-0.6,2.7-2.4,3.1-2.8c0.8-0.7-0.3-1.8-1.2-1.2
				c-1.5,1.2-6.8,5.1-4.4,7.7c3.6,3.8,8.9-8.8,12-0.9c0.6,1.4,0.2,6,2.3,6.5c3.1,0.7,3-7,3.3-8.6c-0.5,0-1.1,0-1.6,0
				c0.7,2.5,1.1,5.6,2.4,7.9c0.2,0.3,0.6,0.4,0.9,0.4c2.6-0.4,3.4-4.6,3.8-6.8c0.5-3.6-0.2-7.3-2.5-10.1c-4.1-5.2-11.7-5.3-15.5,0.2
				C-181.6-87.1-180.1-86.3-179.6-87.2L-179.6-87.2z"/>
		</g>
	</g>
	<g>
		<path class="st17" d="M-183-82.4c1,1.2,1.9,2.5,2.6,3.9c0.7-1.3,1.7-2.4,2.9-3.2c0.7-0.5,1.6-0.8,2.4-0.4c2.2,1,0.8,4.3,4.3,4
			c2.7-0.2,4.2-0.7,6.5-2.2c0.6-0.4,1.2-0.8,1.5-1.5c0.4-0.8,0.2-1.8-0.1-2.7c-1-2.9-3.4-5.3-6.3-6.3s-6.3-0.5-8.8,1.1"/>
		<g>
			<path class="st17" d="M-183.6-81.8c1,1.2,1.7,2.4,2.4,3.7c0.3,0.6,1.1,0.5,1.4,0c1.5-2.6,2.8-3.9,5.5-1.3
				c0.3,0.3,0.4,0.9,0.7,1.2c0.8,0.8,1.7,0.9,2.8,0.9c2.9,0.1,8-1.7,8.9-4.8c0.9-3-2-6.6-4.3-8.2c-3.7-2.6-8.3-2.4-12.2-0.2
				c-0.9,0.5-0.1,1.9,0.8,1.4c2.5-1.4,5.4-2,8.2-1.1c2,0.7,5.6,3.3,5.7,5.7c0.1,3.1-2.5,4.4-5,5.1c-2.6,0.7-3.2-0.4-4.6-2
				c-2.8-3.3-6-0.8-7.9,2.4c0.5,0,0.9,0,1.4,0c-0.8-1.5-1.7-2.8-2.7-4.1C-183.1-83.8-184.2-82.6-183.6-81.8L-183.6-81.8z"/>
		</g>
	</g>
	<g>
		<path class="st0" d="M-179.7-83.8c-2,1.3-5.1,0.7-6.4-1.4c-1.3-2-0.7-5.1,1.3-6.4c2-1.3,5.1-0.7,6.4,1.3
			C-177-88.2-177.6-85.2-179.7-83.8"/>
	</g>
	<g>
		<path class="st13" d="M-189.1-73.7c-0.7-0.5-1.7-0.4-2.2,0.2c-0.5,0.6-0.4,1.7,0.4,2.1c0.7,0.4,1.8-0.2,1.8-1
			c-0.4,0.8,0.5,2,1.4,1.8c0.9-0.2,1.3-1.5,0.6-2.2c0.4,0.7,1.4,0.9,2,0.5s0.7-1.5,0.2-2.1c-0.6-0.6-1.6-0.5-2.1,0.2
			c0.6-0.5,0.4-1.7-0.3-1.9c-0.8-0.2-1.6,0.7-1.3,1.4c-0.2-0.7-1.3-0.9-1.7-0.3c-0.4,0.6,0.3,1.6,1,1.4"/>
	</g>
	<g>
		<g>
			<path class="st13" d="M-162.3-83.2c-2.8,3.4-7.3,4.6-11.4,3c-0.5-0.2-0.7,0.6-0.2,0.8c4.4,1.6,9.2,0.3,12.2-3.3
				C-161.4-83-162-83.6-162.3-83.2L-162.3-83.2z"/>
		</g>
	</g>
	<g>
		<path class="st2" d="M-195.1-73.4c-0.4-0.4-1.2-0.3-1.6,0.2s-0.1,1.3,0.5,1.5s1.3-0.1,1.4-0.7c-0.5,0.3-0.8,0.9-0.6,1.4
			c0.1,0.5,0.8,0.9,1.3,0.7s0.6-1,0.2-1.4c0.6,0.3,1.3,0.5,1.9,0.4c0.7-0.1,1.3-0.6,1.2-1.3c-0.7,0-1.4,0-2.1-0.1
			c0.5-0.5,0.2-1.6-0.5-1.8c-0.7-0.2-1.5,0.6-1.3,1.3"/>
	</g>
</g>
</svg>
