<?xml version="1.0" encoding="utf-8"?>
<!-- Generator: Adobe Illustrator 22.0.1, SVG Export Plug-In . SVG Version: 6.00 Build 0)  -->
<svg version="1.1" id="Layer_1" xmlns="http://www.w3.org/2000/svg" xmlns:xlink="http://www.w3.org/1999/xlink" x="0px" y="0px"
	 viewBox="0 0 57.9 71.3" style="enable-background:new 0 0 57.9 71.3;" xml:space="preserve">
<style type="text/css">
	.st0{fill:#F4C498;}
	.st1{fill:#0000FF;stroke:#0000FF;stroke-width:0.5292;stroke-miterlimit:10;}
	.st2{fill:#EFE811;}
	.st3{fill:#5D605C;}
	.st4{fill:#0B4BAA;}
	.st5{fill:#FC3FF3;}
	.st6{fill:#0000FF;stroke:#0000FF;stroke-width:0.5143;stroke-miterlimit:10;}
	.st7{fill:#F15A24;stroke:#F15A24;stroke-width:0.5143;stroke-miterlimit:10;}
	.st8{fill:#6D392C;}
	.st9{fill:#187C11;}
	.st10{fill:#606060;}
	.st11{fill:#8EEFE6;}
	.st12{fill:#7A0C7A;}
	.st13{fill:#7478C4;}
	.st14{fill:#7678B9;}
	.st15{fill:#F3C498;}
	.st16{fill:#0000FF;}
	.st17{fill:#F15A24;}
	.st18{fill:#484C75;}
</style>
<g>
	<g>
		<path class="st8" d="M17,44.3c2.6-0.4,5.1,0.1,7.7-0.5c6.5-1.6,12.3-6.1,18.1-9.5c-1.7-0.8-3.7-0.7-5.5-0.1s-3.4,1.7-5,2.7
			c-4.6,2.8-9.6,4.9-14.8,6.3"/>
	</g>
	<g>
		<path class="st8" d="M27.5,37.1c0.4-0.4,0.7-0.8,0.9-1.2c1.1-2,1-5.4,0.8-7.7c0-0.5-0.1-1.1-0.6-1.4c-0.5-0.2-1,0-1.5,0.2
			c-2.9,1.6-5.7,3.2-8.5,5c-2.2,1.4-4.7,1.9-4.3,4.9c0.1,1.2,0.3,2.5,0.4,3.7c0.1,0.5,0.2,1.1,0.5,1.5c0.7,0.7,1.9,0.3,2.8-0.1
			c1.7-0.8,3.3-1.6,5-2.4C24.5,39,26.3,38.2,27.5,37.1z"/>
	</g>
	<g>
		<path class="st0" d="M28.2,29.2c-1.4,2.3-2.8,4.7-3.1,7.4c-0.3,2.7,1,5.7,3.6,6.6c1.6,0.6,3.3,0.2,4.9,0.3
			c1.6,0.1,3.5,0.9,3.8,2.5c0.2,0.9-0.2,1.9-0.3,2.9c-0.1,1,0.5,2.1,1.4,2.1c0.9,0,1.4-1.2,1.6-2.1c0.5-2.3,1.1-4.7,0.4-6.9
			c-0.7-2.2-3.2-4.1-5.4-3.3"/>
		<g>
			<path class="st15" d="M27.5,28.8c-2.4,4-5.2,9.8-1.3,13.8c1.8,1.8,3.8,1.7,6.1,1.8c5,0.2,2.4,4.7,4.8,6.9c3.1,2.7,4.3-3.3,4.5-5
				c0.5-4.3-1.6-9.1-6.6-8.2c-1,0.2-0.6,1.8,0.4,1.6c6.8-1.2,4.1,9.2,4,9.2c-1.7-0.1-0.9-2-1.2-2.7c-0.5-1.1-0.7-1.8-1.9-2.5
				c-1.8-1.1-3.4-0.5-5.3-0.8c-8-1.3-4.8-8.8-2.2-13.2C29.5,28.7,28.1,27.9,27.5,28.8L27.5,28.8z"/>
		</g>
	</g>
	<g>
		<path class="st0" d="M33.9,28.6c-0.8,2.7,0.8,5.9,3.5,6.8c1.8,0.6,4,0.4,5.2,1.9c0.6,0.8,0.8,1.8,0.8,2.8c0,2.6-0.9,5.2-1.9,7.6
			c-0.3,0-0.5-0.1-0.8-0.1c0.9-1.2,0.2-2.9-0.9-3.9c-1.1-1-2.5-1.6-3.6-2.6c-1.9-1.7-2.6-4.5-4.4-6.3c-0.8-0.9-1.9-1.5-2.7-2.4
			c-0.8-0.9-1.3-2.2-0.9-3.3c1.6,0,3.2,0,4.8,0"/>
		<g>
			<path class="st15" d="M33.1,28.4c-0.5,2.5,0.1,5.1,2.3,6.8c1.5,1.1,3.2,0.7,4.6,1.6c4.1,2.5,2,7.3,0.7,10.6
				c0.3-0.2,0.7-0.4,1-0.6c-0.3,0-0.5-0.1-0.8-0.1c0.2,0.4,0.3,0.8,0.5,1.2c1.1-2.4-0.1-4.2-2-5.7c-1.4-1.1-2.7-1.8-3.8-3.3
				c-0.6-0.9-1.1-2-1.7-2.9c-1.4-2.1-5.1-4.3-4.8-7c-0.3,0.3-0.5,0.5-0.8,0.8c1.6,0,3.2,0,4.8,0c1.1,0,1.1-1.6,0-1.6
				c-1.6,0-3.2,0-4.8,0c-0.5,0-0.8,0.4-0.8,0.8c-0.5,3.8,3.5,5.4,5.3,8.3c0.8,1.3,1.5,2.7,2.6,3.9c1.5,1.5,6,3.1,4.7,5.9
				c-0.2,0.4-0.1,1.1,0.5,1.2c0.3,0,0.5,0.1,0.8,0.1c0.5,0.1,0.8-0.1,1-0.6c1.1-2.9,3.3-8.1,1-11c-2.7-3.5-10-0.9-8.6-8
				C34.9,27.8,33.4,27.4,33.1,28.4L33.1,28.4z"/>
		</g>
	</g>
	<g>
		<path class="st12" d="M36.9,33.7c-0.8-0.3-1.8-1-2.2-1.8c-0.2-0.4,0-3.7-0.1-3.8c-1.8-0.3-3.7-0.2-5.5,0.2
			c-2.7,0.5-4.2,4.8-4.6,7.2c-0.5,2.2-0.1,4.8,1.6,6.4c1.7,1.6,4.2,2,6.5,2.2c0.9,0.1,1.9,0.2,2.7,0.7c0.8,0.5,1.4,1.5,1,2.4
			c0.7-1.4,2-2.5,3.2-3.4c1.3-1,2.6-1.9,3.4-3.3s1-3.2,0-4.5C41.5,34.3,38.8,34.6,36.9,33.7z"/>
	</g>
	<g>
		<path class="st0" d="M33.5,28.7c-2,1.3-5.1,0.7-6.4-1.4s-0.7-5.1,1.3-6.4s5.1-0.7,6.4,1.3S35.5,27.3,33.5,28.7"/>
	</g>
	<g>
		<path class="st0" d="M30,36.1c1.1,0.9,2.4,1.5,3.7,1.9c0.3,0.1,0.7,0.2,1.1,0.1s0.7-0.3,0.7-0.7c0-0.4-0.3-0.8-0.7-1
			c-1.1-0.8-2.3-1.3-3.5-1.6"/>
	</g>
	<g>
		<g>
			<path class="st0" d="M34.8,32.9c0,1.1,0.5,2.1,1.4,2.7c0.4,0.3,1.1,0,1.2-0.5c0.2-0.8,0.1-1.6-0.4-2.3c-0.6-0.9-2-0.1-1.4,0.8
				c0.2,0.3,0.3,0.7,0.2,1.1c0.4-0.2,0.8-0.3,1.2-0.5c-0.4-0.3-0.6-0.8-0.6-1.3C36.5,31.8,34.8,31.8,34.8,32.9L34.8,32.9z"/>
		</g>
	</g>
	<g>
		<g>
			<path class="st8" d="M16.2,45.3c0,1.3,0,2.5,0,3.8c0,1.1,1.6,1.1,1.6,0c0-1.3,0-2.5,0-3.8C17.8,44.2,16.2,44.2,16.2,45.3
				L16.2,45.3z"/>
		</g>
	</g>
	<g>
		<g>
			<path class="st8" d="M24.3,45.8c0,1.1,0,2.2,0,3.3c0,1.1,1.6,1.1,1.6,0c0-1.1,0-2.2,0-3.3C25.9,44.7,24.3,44.7,24.3,45.8
				L24.3,45.8z"/>
		</g>
	</g>
</g>
</svg>
