<svg xmlns="http://www.w3.org/2000/svg" viewBox="0 0 91.23 120.78"><defs><style>.cls-1{fill:#6d392c;}.cls-2{fill:#187c11;}</style></defs><title>Asset 19</title><g id="Layer_2" data-name="Layer 2"><g id="Layer_1-2" data-name="Layer 1"><path class="cls-1" d="M48.42,46a77.6,77.6,0,0,1,2.24,62.92c-1.43,3.52-3,8-.22,10.68,2.45,2.36,6.85,1.08,8.86-1.66s2.31-6.35,2.54-9.75c1.39-21.29,2.49-44-7.93-62.57"/><path class="cls-2" d="M55.93,39.54A48,48,0,0,0,13.54,29.28,20.75,20.75,0,0,1,36.08,40.19C23.64,34.93,7.83,39.41,0,50.41a122.56,122.56,0,0,1,50.54-5.24,41.47,41.47,0,0,0-36.45,14A66,66,0,0,1,54,47.79c-8.15-.42-15.7,7.45-14.94,15.57A31.06,31.06,0,0,1,61.72,52.08,31.23,31.23,0,0,1,47.3,26,31.24,31.24,0,0,1,61.86,0a91.17,91.17,0,0,0-3.94,33.63A27,27,0,0,1,80.46,17.34a30.48,30.48,0,0,0-18.4,17.11,67.12,67.12,0,0,1,29.17-1.16,45.21,45.21,0,0,0-28.64,4.82A19.86,19.86,0,0,1,84.85,61.68a100.73,100.73,0,0,0-29.79-14.6"/></g></g></svg>