<svg id="Layer_1" data-name="Layer 1" xmlns="http://www.w3.org/2000/svg" viewBox="0 0 47.82 70.93"><defs><style>.cls-1{fill:#6d392c;}.cls-2{fill:#187c11;}</style></defs><title>Artboard 1 copy 3</title><g id="Layer_2" data-name="Layer 2"><g id="Layer_1-2" data-name="Layer 1-2"><path class="cls-1" d="M17.33,26.7a24.37,24.37,0,0,0,12.92,14c-1.72-3.23-5.53-4.68-8.07-7.32-2.39-2.49-3.52-5.9-4.58-9.2L16.28,26"/><path class="cls-1" d="M22,24.82,23.51,33A2.65,2.65,0,0,0,24,34.25a.92.92,0,0,0,1.24.22,1.33,1.33,0,0,0,.33-1,20.4,20.4,0,0,0-2.51-10"/><path class="cls-1" d="M28.21,17.48a134.32,134.32,0,0,1,2.31,39.35,7.25,7.25,0,0,1-1.08,3.81,3.9,3.9,0,0,1-5.5.59l0,0A50.73,50.73,0,0,0,27,26.33a22.94,22.94,0,0,1-1.17-5.91,6.05,6.05,0,0,1,2.49-5.22"/><path class="cls-2" d="M14.2,20.21A14.79,14.79,0,0,0,8,20.83a3.22,3.22,0,0,0-2.11,1.5c-.53,1.21.4,2.57,1.46,3.38a9.75,9.75,0,0,0,6.37,2,4.43,4.43,0,0,0,2.35-.7A2.09,2.09,0,0,0,17,24.84a14.27,14.27,0,0,0,5.91-.68c1-.34,2.12-1.13,1.85-2.13-.22-.78-1.18-1.09-2-1.17a3.23,3.23,0,0,1-2.27-.75c-.52-.62-.35-1.63-.28-2.48s-.21-1.94-1.06-2.08-1.56,1-2.35,1.66a5.59,5.59,0,0,1-2.5.8,2.9,2.9,0,0,0-2.21,1.31c-.38.8.36,2,1.18,1.71"/><path class="cls-2" d="M26.67,7.72l-4.13.2c.59.51,0,1.57-.71,1.78a13.93,13.93,0,0,1-2.33.08c-.76.09-1.63.74-1.39,1.49.15.49.69.74,1.17.92l5,1.89-3.85,1.18a1,1,0,0,0-.59.35.68.68,0,0,0,.3.91,2,2,0,0,0,1,.2h6c1,0,2.17-.12,2.62-1,.59-1.15-.59-2.35-1.64-3.12l3.95-2.84c.26-.19.56-.44.53-.78s-.43-.57-.78-.69a17.34,17.34,0,0,0-6.75-.83"/><path class="cls-2" d="M33.62,24.5,27,25.74c-1.8.34-3.78.79-4.88,2.26a3.7,3.7,0,0,0,3,5.91l-.86,1.66,8.94.25c1.09,0,2.5-.16,2.74-1.22s-1.27-2.38-.78-3.53,2.1-.78,3.08-1.4a2.31,2.31,0,0,0,.22-3.25A4.94,4.94,0,0,0,35.21,25a22.2,22.2,0,0,1-3.65-.45"/><path class="cls-2" d="M34.76,18.78a7.5,7.5,0,0,0-7.29-1,4,4,0,0,0-2.28,2,2.08,2.08,0,0,0,.95,2.65c1,.38,2.35-.21,3.13.55.57.56.39,1.49.49,2.28a4.11,4.11,0,0,0,4.06,3.46,5.76,5.76,0,0,0,4.78-2.89,9.31,9.31,0,0,1,1.28-2,10.42,10.42,0,0,0,1.4-1.24,2.45,2.45,0,0,0-.56-3.05,6.86,6.86,0,0,0-3-1.41,8,8,0,0,1-3.1-1.27"/></g></g></svg>